<svg width="25.600004999999996" height="25.600000999999995" xmlns="http://www.w3.org/2000/svg">
 <metadata id="metadata322">image/svg+xml</metadata>

 <g>
  <title>background</title>
  <rect fill="none" id="canvas_background" height="402" width="582" y="-1" x="-1"/>
 </g>
 <g>
  <title>Layer 1</title>
  <path fill="#cda100" fill-rule="evenodd" d="m11.921639,25.079404l0,-9.929776l-1.800459,0c-0.220791,0 -0.399984,-0.179223 -0.399984,-0.40005l0,-2.973172c0,-0.263499 0.199459,-0.394716 0.399984,-0.395783l1.801525,-0.001067l0,-1.6002c0,-0.843839 0.0096,-2.360829 0.799967,-3.328417c0.797834,-0.985724 1.902854,-1.64714 3.727845,-1.64714c2.811617,0 4.0233,0.375514 4.067032,0.389382c0.190925,0.060808 0.308254,0.254966 0.273055,0.452324l-0.550377,3.044648c-0.042665,0.230429 -0.271989,0.37658 -0.498113,0.315773c0.003199,0 -0.871431,-0.234696 -1.670331,-0.234696c-0.486379,0 -1.224483,0.104546 -1.224483,0.684886l0,1.920241l3.111338,0c0.233591,0 0.41705,0.200558 0.397851,0.433121l-0.24319,2.973172c-0.017066,0.208026 -0.189859,0.366979 -0.397851,0.366979l-2.868148,0l0,9.929776c0,0.220828 -0.180259,0.40005 -0.399983,0.40005l-4.125696,0c-0.220791,0 -0.399984,-0.179222 -0.399984,-0.40005zm4.125696,-0.40005l0,-9.929777c0,-0.219761 0.179193,-0.40005 0.399984,-0.40005l2.89908,0l0.178126,-2.173072l-3.077205,0c-0.220791,0 -0.399984,-0.179222 -0.399984,-0.40005l0,-2.32029c0,-0.557936 0.282655,-0.954786 0.692238,-1.189482c0.385051,-0.219761 0.870364,-0.295504 1.332211,-0.295504c0.456514,0 0.924762,0.066141 1.279947,0.131217l0.17386,0.034138l0.408516,-2.26055l-0.127995,-0.024536c-0.559977,-0.104546 -1.643665,-0.247497 -3.355595,-0.247497c-1.582867,0 -2.459631,0.551536 -3.108138,1.351636c-0.579176,0.709422 -0.619707,1.912773 -0.619707,2.82382l0,2.000251c0,0.220827 -0.180259,0.40005 -0.399984,0.40005l-1.801525,0l0,2.169871l1.800459,0c0.219724,0 0.399984,0.18029 0.399984,0.40005l0,9.929777l3.325729,0z" id="path3176"/>
  <path fill="#cda100" fill-rule="evenodd" d="m0,23.261577l0,-20.923153c0,-1.289761 1.047423,-2.338426 2.338036,-2.338426l20.923933,0c1.289546,0 2.338036,1.048665 2.338036,2.338426l0,20.923153c0,1.290828 -1.04849,2.338426 -2.338036,2.338426l-20.923933,0c-1.290613,0 -2.338036,-1.047598 -2.338036,-2.338426zm24.800038,0l0,-20.923153c0,-0.84704 -0.691171,-1.538326 -1.538069,-1.538326l-20.923933,0c-0.847965,0 -1.538069,0.691286 -1.538069,1.538326l0,20.923153c0,0.848106 0.690105,1.538326 1.538069,1.538326l20.923933,0c0.846898,0 1.538069,-0.69022 1.538069,-1.538326z" id="path3178"/>
 </g>
</svg>