<svg width="25.600004999999996" height="25.600000999999995" xmlns="http://www.w3.org/2000/svg">
 <metadata id="metadata322">image/svg+xml</metadata>

 <g>
  <title>background</title>
  <rect x="-1" y="-1" width="27.600005" height="27.600001" id="canvas_background" fill="none"/>
 </g>
 <g>
  <title>Layer 1</title>
  <path id="path3176" d="m9.997168,22.467616l0,-9.92977l-1.80046,0c-0.22079,0 -0.39998,-0.17923 -0.39998,-0.40005l0,-2.97317c0,-0.2635 0.19946,-0.39472 0.39998,-0.39579l1.80153,-0.00106l0,-1.6002c0,-0.84384 0.0096,-2.36083 0.79996,-3.32842c0.79784,-0.98573 1.90286,-1.64714 3.72785,-1.64714c2.81161,0 4.0233,0.37551 4.06703,0.38938c0.19092,0.06081 0.30825,0.25497 0.27305,0.45232l-0.55037,3.04465c-0.04267,0.23043 -0.27199,0.37658 -0.49812,0.31578c0.0032,0 -0.87143,-0.2347 -1.67033,-0.2347c-0.48638,0 -1.22448,0.10455 -1.22448,0.68489l0,1.92024l3.11134,0c0.23359,0 0.41705,0.20056 0.39785,0.43312l-0.24319,2.97317c-0.01707,0.20803 -0.18986,0.36698 -0.39785,0.36698l-2.86815,0l0,9.92978c0,0.22082 -0.18026,0.40005 -0.39998,0.40005l-4.1257,0c-0.22079,0 -0.39998,-0.17923 -0.39998,-0.40005l0,-0.00001zm4.1257,-0.40005l0,-9.92977c0,-0.21976 0.17919,-0.40005 0.39998,-0.40005l2.89908,0l0.17813,-2.17307l-3.07721,0c-0.22079,0 -0.39998,-0.17923 -0.39998,-0.40005l0,-2.32029c0,-0.55794 0.28265,-0.95479 0.69223,-1.18949c0.38506,-0.21976 0.87037,-0.2955 1.33222,-0.2955c0.45651,0 0.92476,0.06614 1.27994,0.13122l0.17386,0.03413l0.40852,-2.26055l-0.128,-0.02453c-0.55997,-0.10455 -1.64366,-0.2475 -3.35559,-0.2475c-1.58287,0 -2.45963,0.55154 -3.10814,1.35164c-0.57918,0.70942 -0.61971,1.91277 -0.61971,2.82382l0,2.00025c0,0.22083 -0.18026,0.40005 -0.39998,0.40005l-1.80153,0l0,2.16987l1.80046,0c0.21973,0 0.39999,0.18029 0.39999,0.40005l0,9.92978l3.32573,0l0,-0.00001z" fill-rule="evenodd" fill="#cda100"/>
 </g>
</svg>