<svg width="25.600005" height="25.600001" xmlns="http://www.w3.org/2000/svg">
 <metadata id="metadata322">image/svg+xml</metadata>

 <g>
  <title>background</title>
  <rect fill="none" id="canvas_background" height="402" width="582" y="-1" x="-1"/>
 </g>
 <g>
  <title>Layer 1</title>
  <path fill="#cda100" fill-rule="evenodd" d="m0,23.261577l0,-20.923153c0,-1.289761 1.047423,-2.338426 2.338036,-2.338426l20.923933,0c1.289546,0 2.338036,1.048665 2.338036,2.338426l0,20.923153c0,1.290828 -1.04849,2.338426 -2.338036,2.338426l-20.923933,0c-1.290613,0 -2.338036,-1.047598 -2.338036,-2.338426zm24.800038,0l0,-20.923153c0,-0.84704 -0.691171,-1.538326 -1.538069,-1.538326l-20.923933,0c-0.847965,0 -1.538069,0.691286 -1.538069,1.538326l0,20.923153c0,0.848106 0.690105,1.538326 1.538069,1.538326l20.923933,0c0.846898,0 1.538069,-0.69022 1.538069,-1.538326z" id="path3358"/>
  <path fill="#cda100" fill-rule="evenodd" d="m4.000901,18.518583l0,-11.439299c0,-1.701546 1.381275,-3.084119 3.083605,-3.084119l11.441659,0c1.701263,0 3.083605,1.382573 3.083605,3.084119l0,11.439299c0,1.702614 -1.382343,3.08412 -3.083605,3.08412l-11.441659,0c-1.70233,0 -3.083605,-1.381506 -3.083605,-3.08412zm16.808903,0l0,-11.439299c0,-1.258824 -1.025024,-2.284019 -2.283639,-2.284019l-11.441659,0c-0.050131,0 -0.100263,0.002134 -0.149327,0.005334l0.265589,0l0,4.799535l-0.801033,0l-0.001066,-4.699255c-0.925828,0.291236 -1.597801,1.158545 -1.597801,2.178406l0,2.521916l15.99827,0l0,0.799033l-15.99827,0l0,8.118349c0,1.259891 1.023958,2.28402 2.283639,2.28402l11.441659,0c1.258614,0 2.283639,-1.024128 2.283639,-2.28402zm-12.012302,-3.315615c0,-2.208276 1.794059,-4.001567 4.003034,-4.001567c2.207908,0 4.003034,1.793291 4.003034,4.001567c0,2.209344 -1.795126,4.001568 -4.003034,4.001568c-2.208975,0 -4.003034,-1.792224 -4.003034,-4.001568zm7.206101,0c0,-1.765554 -1.435674,-3.201467 -3.203067,-3.201467c-1.76846,0 -3.203068,1.435913 -3.203068,3.201467c0,1.766621 1.434607,3.201468 3.203068,3.201468c1.767393,0 3.203067,-1.434847 3.203067,-3.201468zm-5.596568,-0.004267c0,-1.320699 1.071956,-2.394967 2.393501,-2.394967c1.320478,0 2.393501,1.074268 2.393501,2.394967c0,1.321766 -1.073022,2.394967 -2.393501,2.394967c-1.321545,0 -2.393501,-1.073201 -2.393501,-2.394967zm3.987035,0c0,-0.88011 -0.715704,-1.594866 -1.593534,-1.594866c-0.878897,0 -1.593534,0.714756 -1.593534,1.594866c0,0.881177 0.714637,1.594866 1.593534,1.594866c0.87783,0 1.593534,-0.71369 1.593534,-1.594866zm-6.393335,-5.598567l0,-4.799535l0.801033,0l0,4.799535l-0.801033,0zm1.598867,0l0,-4.799535l0.801033,0l0,4.799535l-0.801033,0zm6.405067,-2.398167c0,-0.881177 0.710371,-1.605535 1.593534,-1.605535c0.882097,0 1.593534,0.724357 1.593534,1.605535c0,0.882244 -0.711437,1.605534 -1.593534,1.605534c-0.883163,0 -1.593534,-0.72329 -1.593534,-1.605534zm2.387101,0c0,-0.446989 -0.360518,-0.805435 -0.793567,-0.805435c-0.434115,0 -0.793567,0.358445 -0.793567,0.805435c0,0.448056 0.359452,0.805434 0.793567,0.805434c0.433049,0 0.793567,-0.357378 0.793567,-0.805434z" id="path3360"/>
 </g>
</svg>