<svg width="25.600005" height="25.600001000000002" xmlns="http://www.w3.org/2000/svg">
 <g>
  <title>background</title>
  <rect x="-1" y="-1" width="3.263797" height="3.263797" id="canvas_background" fill="none"/>
 </g>

 <g>
  <title>Layer 1</title>
  <path d="m16.900633,18.631664l-1.591404,-2.011986c-0.088524,-0.107746 -0.159992,-0.16962 -0.210124,-0.204824l-0.055461,-0.032003l-0.023468,0.054408l-0.362654,1.619402l-0.060797,0.334975c-0.102391,0.345642 -0.326382,0.69875 -0.782901,0.7873l-0.280522,0.018134l-1.83992,0c-3.272401,0 -6.226946,-4.660848 -8.295122,-10.467444l-0.014937,-0.054408c-0.070398,-0.348844 -0.105594,-0.736094 0.065069,-1.047594c0.196257,-0.359511 0.571708,-0.47473 0.965292,-0.486467l2.827616,0.019203c0.174928,0.001069 0.329584,0.115218 0.379717,0.282706c0.635707,2.089861 1.416476,3.366822 2.371103,4.823002l0.026664,0.046942c0.103461,0.217624 0.31999,0.15575 0.431982,-0.017071l0.068265,-0.201622l0.001063,-3.280412c0,-0.482196 -0.219719,-0.550473 -0.753035,-0.626215c-0.244256,-0.035205 -0.398913,-0.28163 -0.324249,-0.516331c0.257054,-0.815032 1.100752,-1.232152 2.270838,-1.232152l1.078353,-0.025606c0.872495,0 1.662865,0.37445 1.662865,1.490321l0,4.315212l0.076796,0.042671c0.142929,0.050137 0.42345,0.060804 0.650644,-0.295505c0.980222,-1.382575 2.109777,-3.03398 2.268705,-3.897022c0.006399,-0.035205 0.017063,-0.068277 0.031993,-0.10028c0.19946,-0.419253 0.744503,-0.714752 0.964228,-0.781966c0.030936,-0.009598 0.092796,-0.027732 0.165327,-0.027732l2.944944,0.002132l0.182396,0.002132c0.069328,0.008535 0.137593,0.023468 0.203725,0.046942c0.177055,0.064006 0.301851,0.180287 0.383982,0.31257c0.161061,0.262433 0.138663,0.556869 0.154656,0.67422c0.006405,0.039469 0.006405,0.080007 0,0.120546c-0.27625,1.728217 -2.26337,3.665529 -3.098537,4.922218c-0.21439,0.295505 -0.217592,0.516331 -0.018133,0.758492l2.772155,3.470304c0.319983,0.457659 0.30292,0.957988 -0.037335,1.315368c-0.221858,0.233625 -0.543974,0.363776 -0.884229,0.403251l-0.319983,0.009598l-2.946013,0l0.052265,-0.003202c-0.387185,0.051206 -0.687972,-0.108815 -0.914096,-0.336044l-0.187725,-0.226159l0.000002,-0.000004zm1.049556,-0.234695l2.965209,0.001063c0.312521,0.01814 0.522645,-0.077875 0.60584,-0.165349c0.028797,-0.029871 0.068265,-0.077882 0.029867,-0.181356l-0.063999,-0.116281l-2.743351,-3.431897c-0.47038,-0.572871 -0.393584,-1.199086 -0.018133,-1.718619c0.794635,-1.195878 2.501228,-2.904892 2.903349,-4.315206l0.054398,-0.241098l-0.013867,-0.152549l-0.021335,-0.116281l-0.082132,0l-2.90121,0l-0.094929,0.044803c-0.089594,0.050143 -0.200523,0.128018 -0.279452,0.202692l-0.079999,0.099217l-0.099195,0.35524c-0.341318,0.954787 -1.195687,2.229616 -1.924191,3.268675l-0.35092,0.494996l-0.221852,0.273101c-0.588777,0.572877 -1.459146,0.468327 -1.814325,-0.009598c-0.084265,-0.11308 -0.145061,-0.258169 -0.145061,-0.424587l0,-4.360015c0,-0.516331 -0.234662,-0.690215 -0.853299,-0.690215l-1.078353,0.0256c-0.519449,0 -0.873565,0.088543 -1.110359,0.216561l-0.131195,0.085348l0.092796,0.033066c0.394653,0.176023 0.745573,0.519533 0.745573,1.240688l-0.003203,3.331618c-0.076796,1.040134 -1.348211,1.497787 -1.916716,0.690221l-0.076796,-0.132283c-0.849034,-1.294026 -1.590341,-2.49098 -2.210042,-4.241595l-0.165327,-0.5046l-2.526829,-0.016001c-0.260256,0.006403 -0.275193,0.076812 -0.270927,0.069346c-0.017063,0.029871 -0.037329,0.110941 -0.018133,0.291235l0.030936,0.188823l0.394647,1.064665c2.06605,5.348937 4.681409,8.840576 7.135707,8.840576l1.856989,0.001063c0.251725,0.012806 0.306123,-0.267767 0.31892,-0.457652l0.009601,-0.057609l0.369052,-1.652474l0.010664,-0.040538c0.051196,-0.152549 0.130125,-0.300839 0.251718,-0.416051c0.165327,-0.15682 0.379723,-0.227229 0.605847,-0.197358c0.315717,0.041608 0.591973,0.266698 0.817028,0.540868l1.607404,2.035453c0.165327,0.236833 0.274123,0.259232 0.356249,0.248564l0.053335,-0.004264l0.000001,-0.000006z" id="path3398" fill-rule="evenodd" fill="#cda100"/>
  <polyline fill="none" stroke-width="NaN" stroke-opacity="null" points="127.92246342072032,93.9004852823058 127.92246342072032,93.9004852823058 " id="svg_1" stroke-linecap="round"/>
  <polyline fill="none" stroke-width="NaN" points="1949.0181710668576,1271.6743396838835 1949.0181710668576,1271.6743396838835 " id="svg_2" stroke-linecap="round" stroke="#fcfcfc"/>
  <polyline fill="none" stroke="#fcfcfc" stroke-width="NaN" points="929.6004651562481,1746.742785156789 929.6004651562481,1746.742785156789 " id="svg_3" stroke-linecap="round"/>
 </g>
</svg>