<?xml version="1.0" standalone="no"?>
<!DOCTYPE svg PUBLIC "-//W3C//DTD SVG 1.1//EN" "http://www.w3.org/Graphics/SVG/1.1/DTD/svg11.dtd" >
<svg xmlns="http://www.w3.org/2000/svg" xmlns:xlink="http://www.w3.org/1999/xlink" version="1.1">
<metadata>
Created by FontForge 20170812 at Fri Jul 27 17:53:01 2012
 By root
URW Software, Copyright 1993 by URW
</metadata>
<defs>
<font id="Algerian" horiz-adv-x="1024" >
  <font-face 
    font-family="Algerian"
    font-weight="400"
    font-stretch="extra-condensed"
    units-per-em="2048"
    panose-1="4 2 7 5 4 10 2 6 7 2"
    ascent="1638"
    descent="-410"
    cap-height="1365"
    bbox="-386 -531 2083 1819"
    underline-thickness="117"
    underline-position="-300"
    unicode-range="U+0020-25CA"
  />
<missing-glyph horiz-adv-x="512" 
d="M51 0v1365h410v-1365h-410zM410 51v1263h-308v-1263h308z" />
    <glyph glyph-name=".notdef" horiz-adv-x="512" 
d="M51 0v1365h410v-1365h-410zM410 51v1263h-308v-1263h308z" />
    <glyph glyph-name=".null" horiz-adv-x="0" 
 />
    <glyph glyph-name="nonmarkingreturn" horiz-adv-x="512" 
 />
    <glyph glyph-name="space" unicode=" " horiz-adv-x="512" 
 />
    <glyph glyph-name="space" unicode="&#xa0;" horiz-adv-x="512" 
 />
    <glyph glyph-name="exclam" unicode="!" horiz-adv-x="662" 
d="M280 1338q27 -110 69 -165.5t132 -97.5l-11 -17q-94 -147 -132 -279t-47 -345l-1 -15h-33v20q0 179 -56.5 361.5t-145.5 289.5q97 43 141.5 92.5t83.5 155.5zM608 1090l-12 -15q-120 -155 -170 -297.5t-64 -373.5l-1 -11h-29q0 185 62.5 374t164.5 314q-177 103 -217 216
l32 -15q73 -110 234 -192zM282 326q54 0 92 -38t38 -92q0 -53 -38 -91t-92 -38q-53 0 -91 38t-38 91q0 54 38 92t91 38zM446 284q55 -51 55 -128q0 -68 -50.5 -119t-117.5 -51q-81 0 -131 60l7 7q64 -38 116 -38q63 0 107.5 43.5t44.5 103.5q0 57 -40 115z" />
    <glyph glyph-name="quotedbl" unicode="&#x22;" horiz-adv-x="692" 
d="M244 1365l-67 -403h-79l-30 403h176zM163 886l-35 20h96l78 418l23 -12l-78 -426h-84zM542 1365l-67 -403h-79l-30 403h176zM461 886l-35 20h96l78 418l24 -12l-78 -426h-85z" />
    <glyph glyph-name="numbersign" unicode="#" horiz-adv-x="1201" 
d="M648 470h-135l-66 -470h-130l-19 23h124l67 475h163l8 57h-222l-66 -473h-130l54 388h-197l-10 28h211l8 57h-245v83h257l18 125h-197l-10 28h211l7 57h-238v86h250l61 431h131l-61 -431h58l55 389l26 -8l-53 -381h134l61 431h128l-61 -431h59l55 389l26 -8l-53 -381h138
v-86h-237l-29 -210h58l22 153h241l-3 124l20 -22l2 -130h-236l-18 -125h135v-83h-233l-66 -473h-127zM689 763h-135l-18 -125h136zM701 848h-221l-30 -210h58l22 153h163zM796 0h-130l-19 23h124l67 475h241l-3 124l20 -22l2 -130h-236z" />
    <glyph glyph-name="dollar" unicode="$" horiz-adv-x="1201" 
d="M1031 1376q-113 -179 -162 -328l-2 -9l-6 1q-39 219 -236 276v-440l60 -16v391q53 -25 75 -45t52 -71h-9l-7 7q-54 50 -85 66v-356l16 -5q167 -48 233 -103q123 -104 123 -272q0 -164 -123.5 -278t-302.5 -114q-9 0 -32 2v-185h-81v108l-16 3q-79 16 -121 27l-93 23
q-63 15 -128 15q-54 0 -106 -22l-13 31q55 21 108 21q69 0 239 -42q61 -14 117 -25l13 -3v57q-75 9 -245 53q-75 20 -126 20q-62 0 -132 -39l-8 16l9 14q115 190 165 338h16q19 -140 103 -225t218 -100v426l-21 6q-198 51 -251.5 79.5t-77.5 94.5l37 -20q30 -56 178 -93
l120 -30l15 -4v54l-20 4q-206 43 -279 98q-54 42 -87 113.5t-33 148.5q0 168 113 267t306 99v135h81v-141q34 -6 60 -13v119l26 -19v-100q23 -5 125 -31q51 -13 88 -13q53 0 99 36zM709 162q99 21 153.5 79t54.5 143q0 86 -62 157q-39 45 -81 67t-138 48l-13 4v-502h11
q3 0 39 4h11v425q159 -35 196 -135h-7q-61 74 -164 99v-389zM543 895v353q-70 -6 -111.5 -47.5t-41.5 -105.5q0 -89 107 -156v-7q-136 58 -136 167q0 72 53.5 124t128.5 52v54q-100 0 -172 -61.5t-72 -147.5q0 -161 231 -222zM1095 1335l-9 -16q-66 -114 -109 -206l-39 -85
l-5 -12l-24 9q8 17 9 19l43 94q56 124 109 208zM1031 738q137 -100 137 -282q0 -163 -118.5 -294t-287.5 -154l-44 -6l-9 -2v-180h-110l-22 27h107v181q82 0 180 41q125 52 200 158.5t75 232.5q0 160 -108 272v6zM321 452q18 -97 59.5 -151t137.5 -108v-5q-89 21 -150.5 91
t-74.5 166z" />
    <glyph glyph-name="percent" unicode="%" horiz-adv-x="1282" 
d="M1017 1363l-716 -1290h-87l713 1290h90zM1056 1340l16 -28l-721 -1314h-96l-16 27h99zM373 1250q-26 20 -52 20q-51 0 -70 -43.5t-19 -157.5q0 -184 67 -255h-13q-45 35 -62.5 90.5t-17.5 167.5q0 126 23 173t85 47q40 0 67 -42h-8zM292 1405q117 0 190.5 -99.5
t73.5 -258.5q0 -156 -67 -242t-188 -86q-125 0 -196 93.5t-71 257.5q0 152 70.5 243.5t187.5 91.5zM294 1324q-71 0 -102 -61t-31 -201q0 -273 140 -273q130 0 130 267q0 268 -137 268zM475 1357h15q70 -46 109 -129.5t39 -187.5q0 -161 -75.5 -262.5t-194.5 -101.5
q-49 0 -84 24h15q27 -9 52 -9q113 0 187.5 98.5t74.5 248.5q0 188 -138 319zM990 533q-27 20 -53 20q-85 0 -85 -110l-4 -125l3 -50q11 -116 64 -171h-12q-47 38 -64 92t-17 166q0 127 23 173.5t85 46.5q40 0 67 -42h-7zM908 689q116 0 190 -100t74 -257t-66.5 -243
t-188.5 -86q-124 0 -195.5 93.5t-71.5 257.5q0 152 70.5 243.5t187.5 91.5zM910 608q-71 0 -102 -60.5t-31 -201.5q0 -273 140 -273q130 0 130 266q0 269 -137 269zM1091 641h15q70 -46 109 -129.5t39 -187.5q0 -161 -75 -262.5t-195 -101.5q-50 0 -84 24h15q25 -9 54 -9
q113 0 187 98t74 248q0 187 -139 320z" />
    <glyph glyph-name="ampersand" unicode="&#x26;" horiz-adv-x="1642" 
d="M561 928q-27 98 -27 184q0 134 67 215t177 81q102 0 173.5 -67t71.5 -161q0 -192 -273 -278q106 -271 223 -440q16 33 25 75q-104 159 -171 327l14 6q239 97 239 292q0 70 -48 148l-8 13q80 -70 80 -176q0 -190 -242 -301q70 -166 141 -275q4 48 4 95q0 74 -9 122l10 -6
q134 -103 253 -146q-120 -121 -215 -289q117 -165 227 -165q43 0 73 25l18 16q14 11 26 11q34 0 34 -28q0 -42 -66 -83.5t-131 -41.5q-101 0 -218 75q-143 -155 -366 -155q-207 0 -354 134l6 9q161 -116 348 -116q209 0 342 145q-20 14 -37 29q-145 -112 -328 -112
q-213 0 -348.5 115.5t-135.5 296.5q0 154 97 254t310 167zM614 767q-180 -100 -180 -289q0 -103 52 -175.5t147 -101.5v-13q-100 14 -162.5 92t-62.5 188q0 208 195 325l-5 13q-7 17 -13 34q-115 -46 -179 -142t-64 -220q0 -132 81 -220t203 -88q136 0 247 118
q-130 178 -259 479zM799 1012q108 56 108 172q0 63 -37.5 105t-93.5 42q-112 0 -112 -131q0 -104 59 -222q7 4 10 5l26 10q3 1 14 6q-49 116 -49 184q0 100 80 100q32 0 68 -33l-7 -10l-8 5q-27 16 -50 16q-62 0 -62 -82q0 -71 54 -167zM1313 565q-114 -119 -159 -207l-3 -8
l8 -9q85 -98 156 -98q15 0 36 6v-8q-26 -15 -54 -15q-93 0 -170 124q73 135 167 230zM1492 154q-21 -64 -80.5 -108t-125.5 -44q-93 0 -159 56v8q66 -39 136 -39q126 0 200 129l4 7z" />
    <glyph glyph-name="quotesingle" unicode="'" horiz-adv-x="394" 
d="M244 1367l-67 -403h-79l-30 403h176zM163 887l-35 20h96l78 418l23 -11l-78 -427h-84z" />
    <glyph glyph-name="parenleft" unicode="(" horiz-adv-x="910" 
d="M736 1508l25 -24v-117q-31 2 -45 2q-102 0 -168 -77q-61 -70 -83.5 -178t-22.5 -327q0 -547 87 -713q35 -66 156 -85v-89q-188 0 -338 132q-119 106 -168 267t-49 445q0 230 39.5 372.5t132.5 249.5q72 82 157 121.5t226 55.5v-91q-147 -16 -233 -111q-59 -66 -82 -182.5
t-23 -351.5q0 -460 74 -617q31 -68 85 -121q-50 92 -70.5 263.5t-20.5 490.5q0 335 94 461q81 109 204 109h23v115zM761 -79v-112q-130 15 -240.5 64.5t-174.5 123.5v5q122 -123 311 -151l61 -9q3 0 18 -3v105z" />
    <glyph glyph-name="parenright" unicode=")" horiz-adv-x="910" 
d="M150 1543q151 -9 286 -105q250 -178 250 -665q0 -568 -220 -759q-132 -115 -316 -135v95q90 31 136.5 70t82.5 113q51 105 72.5 270.5t21.5 454.5q0 285 -70 413t-243 159v89zM483 1464q156 -96 227 -266.5t71 -448.5q0 -430 -136.5 -657.5t-428.5 -282.5l-17 19
q294 54 424.5 272t130.5 654q0 271 -61.5 422.5t-226.5 287.5h17z" />
    <glyph glyph-name="asterisk" unicode="*" horiz-adv-x="717" 
d="M362 1033q-54 -69 -64 -205l-1 -15l-21 26q9 135 75 212q-9 14 -20 29q-89 -122 -89 -229l-147 107q79 21 159 111q-46 3 -73 3t-72 -5l-31 21q37 5 55 5q54 0 126 -18q15 18 27 35q-80 26 -153 26q-46 0 -92 -12l56 172q55 -85 203 -135q0 143 -62 238h181
q-65 -81 -65 -235q24 8 52 19q19 104 63 167l7 -38q-34 -53 -62 -125q97 47 147 109l56 -172q-44 17 -92 17q-67 0 -152 -27q84 -116 190 -156l-147 -107q1 12 1 19q0 68 -55 163zM487 1065q80 -75 177 -103l-174 -139l-32 3l165 128q-95 29 -193 125q65 27 133 27
q49 0 92 -13l-48 165l28 -16l48 -178q-48 15 -100 15q-50 0 -96 -14z" />
    <glyph glyph-name="plus" unicode="+" horiz-adv-x="1202" 
d="M497 1149h125v-356h54v300l28 -17v-283h264v-125h-346v-334h-125v252h-293l-18 28h311v54h-344v125h344v356zM704 586v-356h-130l-22 23h124v361h350v124l23 -22v-130h-345z" />
    <glyph glyph-name="comma" unicode="," horiz-adv-x="536" 
d="M308 304q30 -70 30 -137q0 -249 -296 -345l-8 14l10 9q103 85 103 206q0 86 -53 149q12 4 19 7q109 40 195 97zM407 274q17 -62 17 -111q0 -283 -331 -410l-13 28l17 6q169 67 234 165q66 100 66 204q0 51 -18 131z" />
    <glyph glyph-name="hyphen" unicode="-" horiz-adv-x="643" 
d="M499 772l43 -118h-500l-42 118h499zM643 582h-536l-22 28h520l-46 137l32 -23z" />
    <glyph glyph-name="period" unicode="." horiz-adv-x="546" 
d="M228 326q54 0 92 -38t38 -92q0 -53 -38 -91t-92 -38q-53 0 -91 38t-38 91q0 54 38 92t91 38zM392 284q55 -51 55 -128q0 -68 -50.5 -119t-117.5 -51q-81 0 -131 60l7 7q64 -38 116 -38q63 0 107.5 43.5t44.5 103.5q0 57 -40 115z" />
    <glyph glyph-name="slash" unicode="/" horiz-adv-x="984" 
d="M1029 1536l-983 -1634h-94l983 1634h94zM-30 -157h106l1001 1664l18 -21l-1004 -1670h-110z" />
    <glyph glyph-name="zero" unicode="0" horiz-adv-x="1202" 
d="M771 1119q-76 99 -197 99q-123 0 -178.5 -122.5t-55.5 -394.5q0 -238 49 -365t156 -165v-10q-74 12 -139 90q-92 113 -92 467q0 279 62.5 403.5t202.5 124.5q131 0 207 -118zM554 1385q190 0 330 -145q180 -184 180 -542q0 -295 -133 -466t-362 -171q-233 0 -374.5 185
t-141.5 490q0 294 137 471.5t364 177.5zM550 1292q-158 0 -229 -136.5t-71 -438.5q0 -574 324 -574q290 0 290 571q0 313 -72 445.5t-242 132.5zM827 1345q152 -67 236.5 -234.5t84.5 -401.5q0 -392 -183 -578q-148 -151 -370 -151q-102 0 -177.5 30.5t-163.5 107.5l9 7
q146 -120 319 -120q253 0 395 183t142 509q0 239 -71.5 395t-220.5 244v9z" />
    <glyph glyph-name="one" unicode="1" horiz-adv-x="1229" 
d="M687 1345v-1159l122 -104h-431l127 104v880q-58 -30 -117 -30q-92 0 -142 75h8q61 -50 132 -50q67 0 119 35v62q-68 -50 -159 -50q-50 0 -83.5 23t-33.5 57q0 50 47 52q42 2 42 -38q0 -7 -2 -14q-1 -5 -1 -7q1 -16 27 -16q66 0 130 51t96 129h119zM737 1327l27 -13v-1128
l161 -186h-512l-22 27h476l-130 151v1149z" />
    <glyph glyph-name="two" unicode="2" horiz-adv-x="1229" 
d="M1048 362v-280h-930q36 162 129.5 283t268.5 231q158 99 212 157q107 118 107 275q0 124 -71.5 195t-196.5 71q-107 0 -176.5 -60.5t-69.5 -153.5q0 -74 44 -123.5t111 -49.5q66 0 123 60l16 -9q-13 -78 -70.5 -125.5t-139.5 -47.5q-115 0 -189.5 71.5t-74.5 181.5
q0 146 119.5 241.5t300.5 95.5q196 0 331 -110t135 -269q0 -231 -325 -411l-153 -84q-168 -92 -268 -268q-2 -3 -5 -8h64q77 144 285 257l138 74q166 90 241.5 189.5t75.5 227.5q0 192 -168 319l6 8q191 -99 191 -327q0 -261 -328 -439l-137 -75q-220 -119 -267 -234h312
q191 0 254 25.5t85 111.5h20zM1125 326v-326h-910l-18 27h901v299h27zM822 1022q-59 190 -236 190q-74 0 -125.5 -44t-51.5 -108q0 -87 91 -127v-13q-51 9 -83.5 49.5t-32.5 94.5q0 75 57.5 125.5t143.5 50.5q102 0 169.5 -62t67.5 -156zM677 913q-34 -108 -96 -158
t-162 -50q-131 0 -201 112h8l11 -9q56 -49 92 -65t86 -16q200 0 238 195z" />
    <glyph glyph-name="three" unicode="3" horiz-adv-x="1229" 
d="M324 521q-14 -60 -14 -117q0 -269 254 -269q127 0 198 78.5t71 219.5q0 140 -78.5 236.5t-193.5 96.5q-35 0 -107 -15l-11 -3l39 109h9q39 -2 62 -2q105 0 172.5 63.5t67.5 163.5q0 98 -74 167t-179 69q-99 0 -162 -55t-63 -141q0 -55 26.5 -88.5t69.5 -33.5q30 0 56 24
l15 -8q-37 -89 -146 -89q-79 0 -132.5 55t-53.5 135q0 78 68 151q115 122 356 122q178 0 291.5 -84.5t113.5 -216.5q0 -96 -60 -167.5t-162 -96.5q-25 -7 -24 -15q1 -10 21 -17q290 -91 290 -361q0 -176 -126.5 -275t-349.5 -99q-204 0 -317 86t-148 267l9 3q125 41 212 107
zM413 497q-1 -8 -1 -11q-11 -86 -11 -114q0 -145 123 -209v-10q-67 19 -109 80t-42 141q0 44 14 116l1 7h25zM770 601q-79 78 -201 78q-51 0 -86 -12l-8 -3l-8 26q61 15 103 15q148 0 206 -104h-6zM992 696q76 -77 105.5 -140t29.5 -151q0 -193 -144 -311.5t-380 -118.5
q-248 0 -378 138v6l10 -8q159 -112 364 -112q219 0 359.5 114t140.5 292q0 75 -22 130.5t-85 140.5q-3 4 -8 11zM912 1313q60 -15 106.5 -91.5t46.5 -159.5q0 -103 -66 -185.5t-165 -103.5l-20 20q102 28 163 100.5t61 165.5q0 129 -118 246q-3 2 -8 8zM766 1103l-9 13
q-81 114 -202 114q-65 0 -107 -35.5t-42 -91.5q0 -40 37 -66l4 -4l-11 -16q-59 25 -59 88q0 64 50.5 107t126.5 43q81 0 139 -40t82 -112h-9zM556 968q-68 -108 -182 -108q-82 0 -159 79l-6 5v6q8 -5 9 -6l34 -25q45 -35 119 -35q48 0 93 27.5t69 70.5z" />
    <glyph glyph-name="four" unicode="4" horiz-adv-x="1229" 
d="M664 1345l-1 -9q-32 -167 -160 -399t-292 -420l-6 -7v-25h52l6 7q178 203 281.5 386.5t179.5 432.5l3 8l21 -13l-4 -13q-150 -497 -455 -808h355v439l6 3q113 72 162 152h19v-594h49v555l27 -6v-549q88 0 133 -28t45 -83q0 -31 -19 -51.5t-48 -20.5q-64 0 -64 48
q0 18 7 27l7 8q2 4 2 8q0 24 -52 24h-18h-69v-230l118 -105h-428l123 99v156h-555l-22 26h577v54h-589v34l5 6q144 169 250 433.5t106 454.5h248zM1081 452q31 -4 55 -34.5t24 -66.5q0 -44 -26 -73.5t-64 -29.5q-37 0 -78 24v12q39 -19 66 -19q35 0 58.5 25t23.5 63
q0 26 -7.5 39t-45.5 54zM1066 0h-503l-23 27h470l-130 152v174h27v-165z" />
    <glyph glyph-name="five" unicode="5" horiz-adv-x="1229" 
d="M194 1346h523h34q100 0 136 14.5t38 57.5q1 11 -8 12q-3 0 -11 -8q-12 -11 -28 -11q-46 0 -46 45q0 46 48 46q38 0 69 -38t31 -84q0 -98 -85 -143.5t-268 -45.5h-343v-339l17 13q21 17 39 28v245h291h86l130 15q78 18 128 76t50 129q0 50 -27 106h6l7 -12q35 -61 35 -112
q0 -101 -93 -165t-239 -64h-81h-266v-204q93 49 204 49q216 0 348 -127t132 -334q0 -212 -137.5 -335t-374.5 -123q-194 0 -319 87.5t-151 240.5l13 7q147 73 220 132q-9 -56 -9 -107q0 -133 67.5 -206.5t190.5 -73.5q134 0 211 106t77 291q0 172 -75 264t-214 92
q-181 0 -292 -172l-64 39v609zM943 856q89 -57 139.5 -159t50.5 -222q0 -233 -152 -377t-397 -144q-161 0 -300 85v9q150 -64 296 -64q239 0 380.5 134t141.5 361q0 220 -159 370v7zM392 472q-10 -57 -10 -97q0 -78 45.5 -137t125.5 -85v-12q-89 13 -144 81.5t-55 166.5
q0 41 13 90zM791 659l-11 15q-90 118 -221 118q-73 0 -125 -29t-113 -104l-22 12q95 144 262 144q164 0 238 -156h-8z" />
    <glyph glyph-name="six" unicode="6" horiz-adv-x="1229" 
d="M803 1049q-1 10 -1 15q-19 250 -219 250q-62 0 -122.5 -38t-97.5 -102q-84 -145 -84 -504q0 -289 72 -410q78 -131 213 -131q117 0 194 114t77 286q0 162 -63 254t-174 92q-85 0 -140 -55t-72 -157q-8 -51 -36 -51q-44 0 -44 58q0 124 92.5 209t228.5 85q174 0 281 -123
t107 -325q0 -207 -120 -335t-314 -128q-223 0 -351 167q-66 86 -106 221.5t-40 273.5q0 294 149.5 487.5t375.5 193.5q131 0 231.5 -63t153.5 -179l-10 -4l-54 -26q-84 -44 -127 -75zM778 1128l-8 6l-41 42q-54 55 -128 55q-84 0 -142 -72q-50 -62 -82 -251l-2 -9l-27 -32
q32 389 250 389q63 0 114 -36.5t66 -91.5zM888 1341q62 -26 128.5 -94t101.5 -140l-12 -5q-107 -41 -119 -46l-128 -60l-8 -4l-11 20q107 64 243 109q-56 110 -195 213v7zM797 615q-88 172 -195 172q-103 0 -140 -155q-24 -97 -80 -97q-3 0 -10 1q-1 -15 -1 -19
q0 -274 224 -352l9 -3v-7q-110 0 -184 106.5t-74 264.5q0 10 2 38q12 -3 30 -3q37 0 51 48l9 31q52 172 168 172q68 0 123.5 -55.5t74.5 -141.5h-7zM986 818q46 -32 81.5 -130t35.5 -192q0 -238 -162 -392q-141 -134 -318 -134q-144 0 -266 98l-9 7v6q149 -84 274 -84
q166 0 300 127q154 146 154 366q0 157 -84 317z" />
    <glyph glyph-name="seven" unicode="7" horiz-adv-x="1229" 
d="M1071 1345q-21 -182 -137 -400l-95 -179q-142 -267 -142 -612l2 -72h-268q0 87 37 233q55 220 257 495l125 170q38 52 76 133h-549v-21v-20q0 -199 -139 -199q-49 0 -90 31h45q23 -8 42 -8q116 0 116 167l1 41v35h585l5 11q11 25 13 42h-661v-43q0 -208 -101 -208
q-30 0 -51 15t-21 36q0 48 44 48q17 0 33 -14q9 -9 16 -9q27 0 27 77l1 55v196h829zM1149 1306q-19 -193 -134 -402l-99 -178q-126 -228 -126 -544q0 -71 9 -168l2 -14h-316l-15 27h297q-7 66 -7 135q0 338 136 582l93 167q107 191 135 383l2 12h23z" />
    <glyph glyph-name="eight" unicode="8" horiz-adv-x="1229" 
d="M400 792q-245 106 -245 273q0 106 64.5 179t239.5 165q114 60 169 101l31 23q22 15 21 27q0 8 -8 11l-15 7q-23 10 -23 45q0 58 55 58q27 0 49 -28t22 -63q0 -87 -180 -191l-122 -71q-142 -82 -142 -192q0 -60 39 -101.5t141 -90.5q85 -41 156 -60q232 69 232 232
q0 68 -52.5 115.5t-128.5 47.5q-99 0 -135 -83q-12 -29 -28 -29q-31 0 -31 50q0 58 51.5 97.5t128.5 39.5q117 0 198.5 -70t81.5 -171q0 -83 -52 -147t-175 -131q12 -5 13 -6l47 -20q2 -1 11 -5q212 104 212 283q0 49 -15.5 82.5t-69.5 105.5q-3 3 -9 11q118 -73 118 -211
q0 -83 -59 -162t-153 -121q119 -64 185 -165.5t66 -219.5q0 -166 -133.5 -270t-345.5 -104q-236 0 -387 109.5t-151 280.5q0 116 73.5 202t236.5 159zM596 704q-263 -101 -263 -288q0 -144 135 -257v-8q-74 42 -117 114.5t-43 154.5q0 207 259 295l-99 32
q-228 -113 -228 -318q0 -149 105.5 -237.5t283.5 -88.5q139 0 219.5 69t80.5 188q0 111 -75.5 192t-238.5 145zM770 1667q52 -48 52 -101q0 -100 -142 -189l-10 -6h-40q165 98 165 193q0 42 -35 94zM1004 701q70 -36 115 -120.5t45 -181.5q0 -198 -149.5 -320t-393.5 -122
q-237 0 -377 123v5l15 -10q78 -50 159.5 -71t199.5 -21q236 0 378 115t142 308q0 128 -78 224l-47 58q-1 1 -9 13zM855 1142q-57 61 -124 61q-80 0 -121 -61h-15q43 87 136 87q90 0 133 -87h-9zM494 1254q-97 -67 -97 -140q0 -67 48 -107l-6 -7q-67 56 -67 127q0 77 122 159
v-32z" />
    <glyph glyph-name="nine" unicode="9" horiz-adv-x="1229" 
d="M824 561q-123 -141 -325 -141q-86 0 -165 37t-119 97l1 7q80 -114 279 -114q222 0 341 172q5 79 5 150q0 250 -57 363q-38 75 -106 120t-143 45q-116 0 -183.5 -94.5t-67.5 -255.5q0 -156 71 -246.5t193 -90.5q180 0 216 172l8 41q5 23 25 23q32 0 32 -55
q0 -122 -98.5 -205.5t-241.5 -83.5q-170 0 -279.5 113.5t-109.5 288.5q0 197 127.5 331.5t314.5 134.5q216 0 352.5 -175.5t136.5 -453.5q0 -244 -105.5 -448.5t-294.5 -326.5q-191 -124 -401 -124q-61 0 -61 32q0 27 44 32q252 28 407.5 195t203.5 460zM773 1100
q-96 115 -209 115q-187 0 -187 -281q0 -117 44.5 -198t121.5 -104v-7q-89 15 -142 99.5t-53 211.5q0 146 56 226.5t158 80.5q66 0 123.5 -39t87.5 -104zM836 1310q285 -155 285 -569q0 -423 -279 -708q-121 -125 -277 -196t-308 -71l-26 1l-7 24q240 0 447 137
q199 130 311 344.5t112 465.5q0 403 -258 561v11z" />
    <glyph glyph-name="colon" unicode=":" horiz-adv-x="546" 
d="M227 1063q54 0 92 -38t38 -92q0 -53 -38 -91t-92 -38q-53 0 -91 38t-38 91q0 54 38 92t91 38zM391 1022q55 -52 55 -128q0 -68 -50.5 -119t-117.5 -51q-81 0 -131 59l7 8q64 -38 116 -38q63 0 107.5 43t44.5 103q0 57 -40 115zM227 326q54 0 92 -38t38 -92q0 -53 -38 -91
t-92 -38q-53 0 -91 38t-38 91q0 54 38 92t91 38zM391 284q55 -51 55 -128q0 -68 -50.5 -119t-117.5 -51q-81 0 -131 60l7 7q64 -38 116 -38q63 0 107.5 43.5t44.5 103.5q0 57 -40 115z" />
    <glyph glyph-name="semicolon" unicode=";" horiz-adv-x="536" 
d="M308 304q30 -70 30 -137q0 -249 -296 -345l-8 14l10 9q103 85 103 206q0 86 -53 149q12 4 19 7q109 40 195 97zM407 274q17 -62 17 -111q0 -283 -331 -410l-13 28l17 6q169 67 234 165q66 100 66 204q0 51 -18 131zM223 1063q53 0 91 -38t38 -92q0 -53 -38 -91t-91 -38
q-54 0 -92 38t-38 91q0 54 38 92t92 38zM386 1022q56 -52 56 -128q0 -68 -50.5 -119t-118.5 -51q-81 0 -131 59l7 8q64 -38 117 -38q62 0 107 43t45 103q0 57 -40 115z" />
    <glyph glyph-name="less" unicode="&#x3c;" 
d="M940 1275v-101l-582 -375l582 -391v-268l-855 577v15z" />
    <glyph glyph-name="equal" unicode="=" horiz-adv-x="1202" 
d="M968 964v-125h-815v125h815zM1026 908l23 -22v-130h-844l-18 28h839v124zM968 622v-125h-815v125h815zM1026 567l23 -22v-130h-844l-18 28h839v124z" />
    <glyph glyph-name="greater" unicode="&#x3e;" 
d="M85 140v101l582 374l-582 392v268l855 -577v-16z" />
    <glyph glyph-name="question" unicode="?" horiz-adv-x="889" 
d="M107 858q-73 88 -73 187q0 127 100.5 207t259.5 80q164 0 273.5 -89t109.5 -222q0 -93 -46 -162.5t-157 -144.5l-106 -71q-52 -35 -92.5 -90.5t-38.5 -89.5l3 -55q1 -14 -9 -25q-9 -10 -24 -9q-23 1 -41 33t-18 73q0 137 152 292q100 102 134.5 161t34.5 129
q0 85 -50 137.5t-132 52.5q-69 0 -119 -43.5t-50 -104.5q0 -65 82 -114q-9 -6 -10 -7l-54 -31q-58 -33 -129 -94zM715 1273q147 -108 147 -275q0 -111 -72 -206q-37 -49 -214 -180l-56 -41q-102 -76 -102 -144q0 -35 27 -82l-36 10q-18 35 -18 72q0 53 36 97t131 110
q161 110 221 190.5t60 185.5q0 77 -35.5 145.5t-95.5 107.5zM424 973l-22 -12q-147 -85 -223 -142l-9 -6l-16 21l10 7q133 93 208 132q-82 52 -82 135q0 41 33 69.5t82 28.5q95 0 142 -108h-6q-61 81 -139 81q-86 0 -86 -77q0 -83 108 -129zM399 326q54 0 92 -38t38 -92
q0 -53 -38 -91t-92 -38q-53 0 -91 38t-38 91q0 54 38 92t91 38zM562 284q56 -51 56 -128q0 -68 -50.5 -119t-118.5 -51q-80 0 -130 60l6 7q64 -38 117 -38q62 0 107 43.5t45 103.5q0 56 -40 115z" />
    <glyph glyph-name="at" unicode="@" horiz-adv-x="1475" 
d="M845 393q-102 -97 -206 -97q-92 0 -158 76v4q62 -56 160 -56q92 0 182 86l15 15q64 -99 165 -99q154 0 269.5 155.5t115.5 363.5q0 169 -83.5 295t-240.5 193l2 12q166 -58 259.5 -190.5t93.5 -309.5q0 -218 -122.5 -383t-284.5 -165q-103 0 -167 100zM379 111v7
q130 -114 358 -114q154 0 266.5 43.5t206.5 139.5l18 -16q-68 -91 -198 -141.5t-293 -50.5q-118 0 -198.5 29.5t-159.5 102.5zM808 998q-21 19 -41 19q-76 0 -123 -101.5t-47 -264.5t61 -201l-1 -6q-85 23 -85 219q0 167 54 270.5t141 103.5q28 0 48 -33zM1063 1075l23 -27
l-54 -429q-4 -31 -4 -47q0 -60 35 -95q79 40 125.5 142t46.5 235q0 193 -144 329t-349 136q-237 0 -406 -183.5t-169 -441.5q0 -240 157 -402t390 -162q203 0 378 126q28 20 50 22t21 -19q-1 -33 -69 -78q-173 -116 -396 -116q-272 0 -461 187.5t-189 457.5q0 330 269 534
q186 141 405 141q258 0 429.5 -152.5t171.5 -380.5q0 -186 -102.5 -326.5t-238.5 -140.5q-133 0 -143 137q-86 -144 -218 -144q-114 0 -182 85t-68 227q0 182 109 312t262 130q62 0 138 -30q40 -16 64 -16q32 0 56 16l13 -9l-52 -407l-9 -88q-3 -31 -3 -46q0 -38 18.5 -62
t47.5 -24q11 0 32 5q-46 33 -46 96q0 15 5 55zM833 711l17 149q1 6 1 20q0 91 -34.5 145.5t-91.5 54.5q-91 0 -148 -115.5t-57 -299.5q0 -110 33.5 -172t93.5 -62q72 0 121 73.5t65 206.5zM1009 1203l-21 6q-115 31 -210 31q-226 0 -376.5 -164.5t-150.5 -410.5
q0 -156 71.5 -277.5t197.5 -179.5l-9 -11q-288 137 -288 469q0 257 159 428.5t397 171.5q159 0 230 -63z" />
    <glyph glyph-name="A" unicode="A" horiz-adv-x="1550" 
d="M967 1365l-104 -118l164 -436l40 22l-148 394l106 122l26 -11l-101 -117l140 -373q12 9 14 11l33 28q30 24 38 34q26 -114 80 -204q-29 2 -42 2q-95 0 -139 -30l181 -491l150 -116h-505l138 116l-111 292q-110 -111 -169 -211l-23 6q59 98 176 219l8 10l-19 44
q-119 -99 -197 -230l-18 29q-52 83 -133 189l-10 12q-77 -171 -77 -278q0 -63 21.5 -106.5t103.5 -145.5q7 -9 22 -28h-540l-20 27h509l-17 21q-66 80 -86.5 124.5t-20.5 104.5q0 102 83 304l-44 46q-13 -32 -33 -94l-33 -102q-27 -82 -27 -136q0 -56 19 -93t80 -101
q6 -6 18 -19h-500q143 74 226.5 199t165.5 386l4 14q-53 45 -153 55q55 82 85 171q14 -13 17 -16l45 -42q23 -22 55 -45l18 44l-12 10q-50 44 -84 71l-9 7l16 22q53 -35 102 -81l136 374l-106 114h461zM720 1044l-110 -290q9 -10 10 -12l41 -46q33 -36 84 -112l10 -15
q43 54 102 107zM675 1160l-159 -420q76 -78 131 -154l46 -64q1 -1 10 -13q9 9 10 11l14 17q3 4 11 13q-70 108 -163 195l128 338zM1263 873q22 -90 110 -247q-22 3 -25 3l-81 7q-55 5 -80 5q-4 0 -20 -1l167 -443l223 -197h-579l-19 27h531l-180 159l-178 471q34 9 78 9
q54 0 120 -9l-12 22q-64 118 -86 213z" />
    <glyph glyph-name="A" unicode="a" horiz-adv-x="1550" 
d="M967 1365l-104 -118l164 -436l40 22l-148 394l106 122l26 -11l-101 -117l140 -373q12 9 14 11l33 28q30 24 38 34q26 -114 80 -204q-29 2 -42 2q-95 0 -139 -30l181 -491l150 -116h-505l138 116l-111 292q-110 -111 -169 -211l-23 6q59 98 176 219l8 10l-19 44
q-119 -99 -197 -230l-18 29q-52 83 -133 189l-10 12q-77 -171 -77 -278q0 -63 21.5 -106.5t103.5 -145.5q7 -9 22 -28h-540l-20 27h509l-17 21q-66 80 -86.5 124.5t-20.5 104.5q0 102 83 304l-44 46q-13 -32 -33 -94l-33 -102q-27 -82 -27 -136q0 -56 19 -93t80 -101
q6 -6 18 -19h-500q143 74 226.5 199t165.5 386l4 14q-53 45 -153 55q55 82 85 171q14 -13 17 -16l45 -42q23 -22 55 -45l18 44l-12 10q-50 44 -84 71l-9 7l16 22q53 -35 102 -81l136 374l-106 114h461zM720 1044l-110 -290q9 -10 10 -12l41 -46q33 -36 84 -112l10 -15
q43 54 102 107zM675 1160l-159 -420q76 -78 131 -154l46 -64q1 -1 10 -13q9 9 10 11l14 17q3 4 11 13q-70 108 -163 195l128 338zM1263 873q22 -90 110 -247q-22 3 -25 3l-81 7q-55 5 -80 5q-4 0 -20 -1l167 -443l223 -197h-579l-19 27h531l-180 159l-178 471q34 9 78 9
q54 0 120 -9l-12 22q-64 118 -86 213z" />
    <glyph glyph-name="B" unicode="B" horiz-adv-x="1324" 
d="M67 1229q238 157 534 157q215 0 351 -96.5t136 -249.5q0 -204 -236 -273v-11q24 -6 58 -16q111 26 174.5 106t63.5 193q0 142 -117 252v6l11 -9q131 -101 131 -259q0 -218 -226 -304q98 -45 152.5 -128t54.5 -187q0 -149 -108 -238.5t-288 -89.5h-716l138 118v433
q-59 0 -138 -12l-8 29q89 9 146 9v53h-25q-56 0 -141 -8l44 96l16 -1q39 -3 59 -3q30 0 47 -3v376zM380 1244v-451q11 1 15 1l18 -1h17v409q86 40 168 40q94 0 148.5 -34t92.5 -116l-28 16q-75 113 -214 113q-78 0 -140 -44v-384h42q191 0 284.5 63.5t93.5 194.5
q0 115 -77.5 185.5t-203.5 70.5q-111 0 -216 -63zM380 711v-551h50v491q71 5 102 5q166 0 240.5 -31t118.5 -118h-12q-49 69 -123 95.5t-217 26.5l-82 -2v-467h32l145 5q282 20 282 274q0 159 -93 217.5t-348 58.5q-25 0 -95 -4zM1129 641q107 -83 107 -252
q0 -170 -119 -281q-116 -108 -341 -108h-680l-17 27h631q206 0 297 42q202 94 202 327q0 130 -92 236z" />
    <glyph glyph-name="B" unicode="b" horiz-adv-x="1324" 
d="M67 1229q238 157 534 157q215 0 351 -96.5t136 -249.5q0 -204 -236 -273v-11q24 -6 58 -16q111 26 174.5 106t63.5 193q0 142 -117 252v6l11 -9q131 -101 131 -259q0 -218 -226 -304q98 -45 152.5 -128t54.5 -187q0 -149 -108 -238.5t-288 -89.5h-716l138 118v433
q-59 0 -138 -12l-8 29q89 9 146 9v53h-25q-56 0 -141 -8l44 96l16 -1q39 -3 59 -3q30 0 47 -3v376zM380 1244v-451q11 1 15 1l18 -1h17v409q86 40 168 40q94 0 148.5 -34t92.5 -116l-28 16q-75 113 -214 113q-78 0 -140 -44v-384h42q191 0 284.5 63.5t93.5 194.5
q0 115 -77.5 185.5t-203.5 70.5q-111 0 -216 -63zM380 711v-551h50v491q71 5 102 5q166 0 240.5 -31t118.5 -118h-12q-49 69 -123 95.5t-217 26.5l-82 -2v-467h32l145 5q282 20 282 274q0 159 -93 217.5t-348 58.5q-25 0 -95 -4zM1129 641q107 -83 107 -252
q0 -170 -119 -281q-116 -108 -341 -108h-680l-17 27h631q206 0 297 42q202 94 202 327q0 130 -92 236z" />
    <glyph glyph-name="C" unicode="C" horiz-adv-x="1192" 
d="M1092 1334l-11 -19q-90 -157 -156 -314l-9 -23l-13 7q-23 152 -107 241t-203 89q-127 0 -212 -111q-107 -138 -107 -468q0 -284 98.5 -445t273.5 -161q140 0 223.5 93.5t99.5 267.5q4 42 34 42q39 0 39 -65q0 -97 -44 -201q-93 -220 -384 -220q-260 0 -413 182.5
t-153 493.5q0 287 159 481t395 194q112 0 255 -55q75 -29 124 -29q53 0 95 29zM802 1161q-91 73 -172 73q-259 0 -259 -494q0 -225 60 -374.5t169 -193.5v-10q-118 24 -188.5 181.5t-70.5 398.5q0 517 284 517q96 0 177 -85v-13zM1128 474q-16 -248 -138.5 -377.5
t-342.5 -129.5q-167 0 -311 103v8q128 -84 309 -84q198 0 323 127q61 62 90 139t39 204l2 23zM1165 1286l-11 -19q-109 -186 -174 -339l-27 13l11 25q50 105 88 174l80 142l10 18z" />
    <glyph glyph-name="C" unicode="c" horiz-adv-x="1192" 
d="M1092 1334l-11 -19q-90 -157 -156 -314l-9 -23l-13 7q-23 152 -107 241t-203 89q-127 0 -212 -111q-107 -138 -107 -468q0 -284 98.5 -445t273.5 -161q140 0 223.5 93.5t99.5 267.5q4 42 34 42q39 0 39 -65q0 -97 -44 -201q-93 -220 -384 -220q-260 0 -413 182.5
t-153 493.5q0 287 159 481t395 194q112 0 255 -55q75 -29 124 -29q53 0 95 29zM802 1161q-91 73 -172 73q-259 0 -259 -494q0 -225 60 -374.5t169 -193.5v-10q-118 24 -188.5 181.5t-70.5 398.5q0 517 284 517q96 0 177 -85v-13zM1128 474q-16 -248 -138.5 -377.5
t-342.5 -129.5q-167 0 -311 103v8q128 -84 309 -84q198 0 323 127q61 62 90 139t39 204l2 23zM1165 1286l-11 -19q-109 -186 -174 -339l-27 13l11 25q50 105 88 174l80 142l10 18z" />
    <glyph glyph-name="D" unicode="D" horiz-adv-x="1237" 
d="M71 1365h394q289 0 428 -111q207 -164 207 -514q0 -363 -181 -525q-82 -73 -183.5 -103t-269.5 -30h-425l137 105v1063zM374 1281v-1122h55v1056q52 8 95 8q82 0 129.5 -16.5t95.5 -60.5q-106 50 -227 50q-26 0 -68 -4v-1033q112 0 170 18.5t110 71.5q145 147 145 494
q0 339 -157 463q-95 75 -301 75h-47zM103 0l-15 27h366q270 0 410 75q301 160 301 619q0 307 -135 456l-40 44q-2 2 -12 14q212 -133 212 -509q0 -395 -210 -582q-161 -144 -526 -144h-351z" />
    <glyph glyph-name="D" unicode="d" horiz-adv-x="1237" 
d="M71 1365h394q289 0 428 -111q207 -164 207 -514q0 -363 -181 -525q-82 -73 -183.5 -103t-269.5 -30h-425l137 105v1063zM374 1281v-1122h55v1056q52 8 95 8q82 0 129.5 -16.5t95.5 -60.5q-106 50 -227 50q-26 0 -68 -4v-1033q112 0 170 18.5t110 71.5q145 147 145 494
q0 339 -157 463q-95 75 -301 75h-47zM103 0l-15 27h366q270 0 410 75q301 160 301 619q0 307 -135 456l-40 44q-2 2 -12 14q212 -133 212 -509q0 -395 -210 -582q-161 -144 -526 -144h-351z" />
    <glyph glyph-name="E" unicode="E" horiz-adv-x="1273" 
d="M1125 1365l-16 -19q-102 -125 -162 -287q-10 23 -15 34q-55 120 -118 155t-226 35q-75 0 -180 -5v-460h64v407q76 7 145 7q127 0 187 -27t107 -105q-14 10 -20 15q-81 64 -117 76t-142 12q-32 0 -114 -4l-21 -1v-380h184l129 177v-431l-129 167h-273v-561h64v514h217
l26 -26h-218v-488q204 0 290 29t135 114l53 91q3 6 12 22q26 -110 64.5 -176t127.5 -154h-1121l152 116v446q-84 -10 -152 -52l-14 21q61 44 166 57v47q-17 2 -24 2q-102 0 -186 -75q46 160 210 160v427l-152 120h1067zM1173 1295l-7 -9q-122 -164 -163 -275l-17 21
q67 155 173 284zM879 962v-442l-25 13v442zM1293 90l-52 -90h-1092l-16 27h1095l34 63q-144 133 -203 284l32 -12q55 -128 186 -256z" />
    <glyph glyph-name="E" unicode="e" horiz-adv-x="1273" 
d="M1125 1365l-16 -19q-102 -125 -162 -287q-10 23 -15 34q-55 120 -118 155t-226 35q-75 0 -180 -5v-460h64v407q76 7 145 7q127 0 187 -27t107 -105q-14 10 -20 15q-81 64 -117 76t-142 12q-32 0 -114 -4l-21 -1v-380h184l129 177v-431l-129 167h-273v-561h64v514h217
l26 -26h-218v-488q204 0 290 29t135 114l53 91q3 6 12 22q26 -110 64.5 -176t127.5 -154h-1121l152 116v446q-84 -10 -152 -52l-14 21q61 44 166 57v47q-17 2 -24 2q-102 0 -186 -75q46 160 210 160v427l-152 120h1067zM1173 1295l-7 -9q-122 -164 -163 -275l-17 21
q67 155 173 284zM879 962v-442l-25 13v442zM1293 90l-52 -90h-1092l-16 27h1095l34 63q-144 133 -203 284l32 -12q55 -128 186 -256z" />
    <glyph glyph-name="F" unicode="F" horiz-adv-x="1129" 
d="M63 1365h1038q-62 -82 -88.5 -129t-67.5 -151l-8 -20q-66 136 -130.5 176t-217.5 40l-57 -1l-97 1l-37 1v-468h61v413l29 1q62 3 132 3q204 0 255 -106q-49 47 -106.5 63.5t-177.5 16.5q-43 0 -107 -5v-386h151l160 169v-419l-168 166h-229v-504l128 -130h-491l163 130
v430q-77 0 -135 -58l-19 21q58 64 154 64v47q-21 2 -30 2q-93 0 -161 -76l-7 16q45 130 198 142v422zM1177 1304q-143 -167 -180 -306l-21 14q38 157 183 309zM868 948v-432l-26 15v432zM689 646h-205v-428l176 -218h-579l-25 27h548l-145 179v467h201z" />
    <glyph glyph-name="F" unicode="f" horiz-adv-x="1129" 
d="M63 1365h1038q-62 -82 -88.5 -129t-67.5 -151l-8 -20q-66 136 -130.5 176t-217.5 40l-57 -1l-97 1l-37 1v-468h61v413l29 1q62 3 132 3q204 0 255 -106q-49 47 -106.5 63.5t-177.5 16.5q-43 0 -107 -5v-386h151l160 169v-419l-168 166h-229v-504l128 -130h-491l163 130
v430q-77 0 -135 -58l-19 21q58 64 154 64v47q-21 2 -30 2q-93 0 -161 -76l-7 16q45 130 198 142v422zM1177 1304q-143 -167 -180 -306l-21 14q38 157 183 309zM868 948v-432l-26 15v432zM689 646h-205v-428l176 -218h-579l-25 27h548l-145 179v467h201z" />
    <glyph glyph-name="G" unicode="G" horiz-adv-x="1396" 
d="M1172 1330l-187 -368q-18 157 -98.5 240t-212.5 83q-188 0 -292.5 -146t-104.5 -409q0 -579 474 -579h161v519h-252q-82 0 -117.5 9t-68.5 39v25q36 -27 72 -35.5t117 -8.5h249v54h-278h-45q-149 0 -149 108q0 42 25 72t60 30q26 0 45.5 -19t19.5 -45q0 -44 -32 -51
l-24 -5q-12 -3 -12 -10q0 -13 33 -13h34h660l-138 -135v-493l128 -110h-511h-101q-127 0 -210 31t-168 110q-201 184 -201 493q0 319 190 498q166 157 394 157q102 0 234 -36q135 -37 178 -37q63 0 128 32zM1232 1267l-171 -336l-24 11l172 337zM912 1115l-18 13
q-114 81 -208 81q-114 0 -197 -81q-60 -60 -86.5 -157t-26.5 -256q0 -202 40 -309t147 -193v-11q-116 69 -167 194.5t-51 340.5q0 237 89 368.5t250 131.5q140 0 228 -116v-6zM1292 763l-103 -103v-469l166 -191l-397 3l-360 -4q-34 0 -52 2q-63 7 -127 55h21
q68 -30 186 -30l50 1h623l-138 153v490l115 116z" />
    <glyph glyph-name="G" unicode="g" horiz-adv-x="1396" 
d="M1172 1330l-187 -368q-18 157 -98.5 240t-212.5 83q-188 0 -292.5 -146t-104.5 -409q0 -579 474 -579h161v519h-252q-82 0 -117.5 9t-68.5 39v25q36 -27 72 -35.5t117 -8.5h249v54h-278h-45q-149 0 -149 108q0 42 25 72t60 30q26 0 45.5 -19t19.5 -45q0 -44 -32 -51
l-24 -5q-12 -3 -12 -10q0 -13 33 -13h34h660l-138 -135v-493l128 -110h-511h-101q-127 0 -210 31t-168 110q-201 184 -201 493q0 319 190 498q166 157 394 157q102 0 234 -36q135 -37 178 -37q63 0 128 32zM1232 1267l-171 -336l-24 11l172 337zM912 1115l-18 13
q-114 81 -208 81q-114 0 -197 -81q-60 -60 -86.5 -157t-26.5 -256q0 -202 40 -309t147 -193v-11q-116 69 -167 194.5t-51 340.5q0 237 89 368.5t250 131.5q140 0 228 -116v-6zM1292 763l-103 -103v-469l166 -191l-397 3l-360 -4q-34 0 -52 2q-63 7 -127 55h21
q68 -30 186 -30l50 1h623l-138 153v490l115 116z" />
    <glyph glyph-name="H" unicode="H" horiz-adv-x="1286" 
d="M65 1365h470l-136 -133v-432q23 -4 54 -6v428l109 108l20 -18l-103 -102v-417l33 -3q77 -7 149 -7q104 0 179 10v460l-122 112h462l-138 -133v-1042l121 -108h-460l137 117v424q-84 -20 -173 -20q-84 0 -174 9l-14 1v-423l165 -190h-517l-26 27h488l-136 149v460l29 -2
q132 -10 191 -10q96 0 167 26v36q-94 -14 -219 -14q-67 0 -98 3l-101 9q-6 1 -23 2v-496l128 -108h-462l134 117v437q-84 0 -134 -66l-21 10q58 73 155 81v37q-112 0 -177 -85l-15 10q59 144 192 170v450zM1222 1309l-102 -99v-1020l166 -190h-519l-25 27h487l-134 151v1042
l111 110z" />
    <glyph glyph-name="H" unicode="h" horiz-adv-x="1286" 
d="M65 1365h470l-136 -133v-432q23 -4 54 -6v428l109 108l20 -18l-103 -102v-417l33 -3q77 -7 149 -7q104 0 179 10v460l-122 112h462l-138 -133v-1042l121 -108h-460l137 117v424q-84 -20 -173 -20q-84 0 -174 9l-14 1v-423l165 -190h-517l-26 27h488l-136 149v460l29 -2
q132 -10 191 -10q96 0 167 26v36q-94 -14 -219 -14q-67 0 -98 3l-101 9q-6 1 -23 2v-496l128 -108h-462l134 117v437q-84 0 -134 -66l-21 10q58 73 155 81v37q-112 0 -177 -85l-15 10q59 144 192 170v450zM1222 1309l-102 -99v-1020l166 -190h-519l-25 27h487l-134 151v1042
l111 110z" />
    <glyph glyph-name="I" unicode="I" horiz-adv-x="626" 
d="M41 1365h474l-134 -136v-1041l126 -106h-466l139 115v1043zM560 1308l-102 -101v-1019l168 -188h-520l-25 27h486l-137 151v1038l113 112z" />
    <glyph glyph-name="I" unicode="i" horiz-adv-x="626" 
d="M41 1365h474l-134 -136v-1041l126 -106h-466l139 115v1043zM560 1308l-102 -101v-1019l168 -188h-520l-25 27h486l-137 151v1038l113 112z" />
    <glyph glyph-name="J" unicode="J" horiz-adv-x="1051" 
d="M956 1365l-135 -135v-743v-32q0 -75 50 -102q-12 -131 -127 -213.5t-286 -82.5q-315 0 -405 247l-14 38q-10 29 -24.5 39.5t-55.5 17.5l299 223q-16 -98 -16 -198q0 -135 53.5 -215.5t144.5 -80.5q181 0 181 287v827l-136 123h471zM997 1309l-98 -100v-731v-39l14 -61
q13 -26 55 -53q-14 -85 -86 -174q-145 -181 -407 -181q-200 0 -320 115v8q75 -57 141 -78.5t164 -21.5q174 0 310.5 92.5t167.5 230.5q-46 37 -56 63t-10 105v736l110 110zM351 599l-2 -13q-19 -113 -19 -164q0 -194 145 -264h-15q-157 46 -157 247q0 102 22 194h26z" />
    <glyph glyph-name="J" unicode="j" horiz-adv-x="1051" 
d="M956 1365l-135 -135v-743v-32q0 -75 50 -102q-12 -131 -127 -213.5t-286 -82.5q-315 0 -405 247l-14 38q-10 29 -24.5 39.5t-55.5 17.5l299 223q-16 -98 -16 -198q0 -135 53.5 -215.5t144.5 -80.5q181 0 181 287v827l-136 123h471zM997 1309l-98 -100v-731v-39l14 -61
q13 -26 55 -53q-14 -85 -86 -174q-145 -181 -407 -181q-200 0 -320 115v8q75 -57 141 -78.5t164 -21.5q174 0 310.5 92.5t167.5 230.5q-46 37 -56 63t-10 105v736l110 110zM351 599l-2 -13q-19 -113 -19 -164q0 -194 145 -264h-15q-157 46 -157 247q0 102 22 194h26z" />
    <glyph glyph-name="K" unicode="K" horiz-adv-x="1386" 
d="M49 1365h468l-139 -132v-604l55 63v533l112 109l15 -22l-103 -100v-489l310 370q67 80 67 144q0 38 -38 72.5t-92 45.5v10h527v-10q-173 -42 -373 -282l-139 -165l369 -717l168 -109h-519l131 98l-248 496l-163 -199v-286l163 -191h-513l-27 27h480l-127 153v310l174 214
l-22 44l-207 -246v-311l121 -109h-458l137 117v1047zM1281 1274q-148 -10 -295 -173l-175 -194l353 -716l283 -191h-636l-28 27h579l-213 145l-366 735l186 210q146 163 301 178z" />
    <glyph glyph-name="K" unicode="k" horiz-adv-x="1386" 
d="M49 1365h468l-139 -132v-604l55 63v533l112 109l15 -22l-103 -100v-489l310 370q67 80 67 144q0 38 -38 72.5t-92 45.5v10h527v-10q-173 -42 -373 -282l-139 -165l369 -717l168 -109h-519l131 98l-248 496l-163 -199v-286l163 -191h-513l-27 27h480l-127 153v310l174 214
l-22 44l-207 -246v-311l121 -109h-458l137 117v1047zM1281 1274q-148 -10 -295 -173l-175 -194l353 -716l283 -191h-636l-28 27h579l-213 145l-366 735l186 210q146 163 301 178z" />
    <glyph glyph-name="L" unicode="L" horiz-adv-x="1121" 
d="M41 1365h478l-141 -137v-1069h8l36 -3h9v1062l108 109l14 -22l-97 -99v-1050q45 -4 86 -4q159 0 240.5 70.5t109.5 232.5q94 -273 193 -373h-1044l138 113v1043zM1183 90l-45 -90h-1044l-25 27h1058l29 63q-110 135 -176 301l-4 11l32 -12l7 -17q67 -148 160 -273z" />
    <glyph glyph-name="L" unicode="l" horiz-adv-x="1121" 
d="M41 1365h478l-141 -137v-1069h8l36 -3h9v1062l108 109l14 -22l-97 -99v-1050q45 -4 86 -4q159 0 240.5 70.5t109.5 232.5q94 -273 193 -373h-1044l138 113v1043zM1183 90l-45 -90h-1044l-25 27h1058l29 63q-110 135 -176 301l-4 11l32 -12l7 -17q67 -148 160 -273z" />
    <glyph glyph-name="M" unicode="M" horiz-adv-x="1498" 
d="M1388 1365l-137 -139v-1027l123 -117h-460l139 117v673l-317 -872h-96l-8 27h87l334 930v153l-372 -1027h-70l-274 807v-529q0 -106 14 -150t66 -97l90 -114h-523l-18 27h491l-37 55h-446l21 11q111 61 146.5 123.5t35.5 197.5v827l-132 124h517l-145 -131l283 -837
l36 87l-256 742l131 97l21 -17l-125 -88l238 -697l258 713l-122 131h507zM256 1128v-718q0 -165 31.5 -227t130.5 -90l-9 15q-98 68 -98 196v74v591zM1444 1287l-113 -81v-1008l174 -198h-531l-14 27h484l-139 157v1039l118 81z" />
    <glyph glyph-name="M" unicode="m" horiz-adv-x="1498" 
d="M1388 1365l-137 -139v-1027l123 -117h-460l139 117v673l-317 -872h-96l-8 27h87l334 930v153l-372 -1027h-70l-274 807v-529q0 -106 14 -150t66 -97l90 -114h-523l-18 27h491l-37 55h-446l21 11q111 61 146.5 123.5t35.5 197.5v827l-132 124h517l-145 -131l283 -837
l36 87l-256 742l131 97l21 -17l-125 -88l238 -697l258 713l-122 131h507zM256 1128v-718q0 -165 31.5 -227t130.5 -90l-9 15q-98 68 -98 196v74v591zM1444 1287l-113 -81v-1008l174 -198h-531l-14 27h484l-139 157v1039l118 81z" />
    <glyph glyph-name="N" unicode="N" horiz-adv-x="1230" 
d="M1182 1365q-114 -59 -147 -108q-50 -76 -50 -229v-65v-881h-169l-472 916v-543l-1 -45l12 -144q20 -100 91 -148l8 -7q-138 46 -138 295l1 94v547l-54 105v-576q0 -274 36 -359t169 -124l87 -93h-542l-16 27h501l-52 55h-466q122 44 162 118t40 254v800l-133 111h506
l-142 -95l484 -944v120l-415 808l140 95l19 -19l-124 -84l380 -746v467v53q0 174 -28.5 232.5t-140.5 112.5h454zM1217 1291l-18 -30q-77 -18 -104.5 -66.5t-27.5 -163.5v-1031h-215l-13 27h201v994q0 141 36.5 196.5t140.5 73.5z" />
    <glyph glyph-name="N" unicode="n" horiz-adv-x="1230" 
d="M1182 1365q-114 -59 -147 -108q-50 -76 -50 -229v-65v-881h-169l-472 916v-543l-1 -45l12 -144q20 -100 91 -148l8 -7q-138 46 -138 295l1 94v547l-54 105v-576q0 -274 36 -359t169 -124l87 -93h-542l-16 27h501l-52 55h-466q122 44 162 118t40 254v800l-133 111h506
l-142 -95l484 -944v120l-415 808l140 95l19 -19l-124 -84l380 -746v467v53q0 174 -28.5 232.5t-140.5 112.5h454zM1217 1291l-18 -30q-77 -18 -104.5 -66.5t-27.5 -163.5v-1031h-215l-13 27h201v994q0 141 36.5 196.5t140.5 73.5z" />
    <glyph glyph-name="O" unicode="O" horiz-adv-x="1278" 
d="M816 1142l-17 10q-96 53 -176 53q-263 0 -263 -517q0 -378 163 -501l-9 -10q-100 71 -142.5 186.5t-42.5 312.5q0 555 292 555q133 0 195 -89zM602 1378q243 0 388.5 -184t145.5 -492q0 -291 -143.5 -464t-385.5 -173q-191 0 -340 122q-219 180 -219 533q0 302 150 480
t404 178zM602 1292q-338 0 -338 -594q0 -549 333 -549q155 0 236 145.5t81 425.5q0 317 -78 442q-82 130 -234 130zM921 1327q143 -69 226 -236t83 -386q0 -322 -163.5 -520t-429.5 -198q-170 0 -318 115v5q124 -91 311 -91q251 0 412 189t161 483q0 219 -73.5 383
t-208.5 245v11z" />
    <glyph glyph-name="O" unicode="o" horiz-adv-x="1278" 
d="M816 1142l-17 10q-96 53 -176 53q-263 0 -263 -517q0 -378 163 -501l-9 -10q-100 71 -142.5 186.5t-42.5 312.5q0 555 292 555q133 0 195 -89zM602 1378q243 0 388.5 -184t145.5 -492q0 -291 -143.5 -464t-385.5 -173q-191 0 -340 122q-219 180 -219 533q0 302 150 480
t404 178zM602 1292q-338 0 -338 -594q0 -549 333 -549q155 0 236 145.5t81 425.5q0 317 -78 442q-82 130 -234 130zM921 1327q143 -69 226 -236t83 -386q0 -322 -163.5 -520t-429.5 -198q-170 0 -318 115v5q124 -91 311 -91q251 0 412 189t161 483q0 219 -73.5 383
t-208.5 245v11z" />
    <glyph glyph-name="P" unicode="P" horiz-adv-x="1211" 
d="M97 1365h449q286 0 407 -79q154 -99 154 -275q0 -107 -59 -186t-165 -114t-337 -35h-123v-484l122 -110h-465l139 117v401q-12 1 -17 1q-72 0 -138 -31l-9 18q67 38 120 38h36l8 1v49q-23 3 -31 3q-107 0 -171 -52l-10 15q61 112 196 112h16v490zM423 1262v-501h13l26 -1
q4 0 13 1v446h110q128 0 180.5 -22.5t89.5 -93.5q-37 51 -92.5 71.5t-156.5 20.5h-103v-422q198 0 290.5 58t92.5 182q0 139 -82.5 202t-265.5 63q-47 0 -115 -4zM1056 1258q61 -30 98 -105.5t37 -171.5q0 -217 -168 -312q-127 -72 -434 -72q-51 0 -86 2v-413l157 -186h-501
l-27 27h471l-128 148v451q87 -5 185 -5q258 0 383 91t125 279q0 78 -24 135.5t-88 131.5z" />
    <glyph glyph-name="P" unicode="p" horiz-adv-x="1211" 
d="M97 1365h449q286 0 407 -79q154 -99 154 -275q0 -107 -59 -186t-165 -114t-337 -35h-123v-484l122 -110h-465l139 117v401q-12 1 -17 1q-72 0 -138 -31l-9 18q67 38 120 38h36l8 1v49q-23 3 -31 3q-107 0 -171 -52l-10 15q61 112 196 112h16v490zM423 1262v-501h13l26 -1
q4 0 13 1v446h110q128 0 180.5 -22.5t89.5 -93.5q-37 51 -92.5 71.5t-156.5 20.5h-103v-422q198 0 290.5 58t92.5 182q0 139 -82.5 202t-265.5 63q-47 0 -115 -4zM1056 1258q61 -30 98 -105.5t37 -171.5q0 -217 -168 -312q-127 -72 -434 -72q-51 0 -86 2v-413l157 -186h-501
l-27 27h471l-128 148v451q87 -5 185 -5q258 0 383 91t125 279q0 78 -24 135.5t-88 131.5z" />
    <glyph glyph-name="Q" unicode="Q" horiz-adv-x="1312" 
d="M783 1189q-9 4 -14 6q-79 36 -135 36q-150 0 -216 -138t-66 -451q0 -359 202 -478h-10q-106 32 -161.5 159.5t-55.5 337.5q0 313 69 451t226 138q95 0 161 -54v-7zM910 164q90 -92 216 -92q68 0 152 38l7 -4q-47 -65 -77 -118l-74 -133l-4 -8q-165 29 -287 177
q-103 -48 -207 -48q-167 0 -266 87l4 7q134 -66 248 -66q111 0 203 40l-6 9q-14 23 -27 35q-93 -35 -192 -35q-238 0 -395 191.5t-157 480.5q0 297 153.5 480.5t403.5 183.5q243 0 391.5 -181t148.5 -477q0 -180 -51.5 -307.5t-174.5 -250.5zM858 314q68 146 68 425
q0 570 -337 570q-329 0 -329 -599q0 -269 91 -422t250 -153q67 0 130 29q-59 110 -157 110q-7 0 -24 -2l70 86q73 -21 177 -104l12 -10q12 15 28 38l5 7q-67 65 -175 103l14 23q87 -33 164 -91zM938 1317q139 -58 221.5 -218.5t82.5 -373.5q0 -319 -187 -548q57 -49 177 -59
v-6q-38 -6 -57 -6q-89 0 -161 66q200 203 200 556q0 385 -276 583v6zM1360 60q-81 -106 -153 -240l-6 -11l-24 12q34 68 77 131l78 114l5 8z" />
    <glyph glyph-name="Q" unicode="q" horiz-adv-x="1312" 
d="M783 1189q-9 4 -14 6q-79 36 -135 36q-150 0 -216 -138t-66 -451q0 -359 202 -478h-10q-106 32 -161.5 159.5t-55.5 337.5q0 313 69 451t226 138q95 0 161 -54v-7zM910 164q90 -92 216 -92q68 0 152 38l7 -4q-47 -65 -77 -118l-74 -133l-4 -8q-165 29 -287 177
q-103 -48 -207 -48q-167 0 -266 87l4 7q134 -66 248 -66q111 0 203 40l-6 9q-14 23 -27 35q-93 -35 -192 -35q-238 0 -395 191.5t-157 480.5q0 297 153.5 480.5t403.5 183.5q243 0 391.5 -181t148.5 -477q0 -180 -51.5 -307.5t-174.5 -250.5zM858 314q68 146 68 425
q0 570 -337 570q-329 0 -329 -599q0 -269 91 -422t250 -153q67 0 130 29q-59 110 -157 110q-7 0 -24 -2l70 86q73 -21 177 -104l12 -10q12 15 28 38l5 7q-67 65 -175 103l14 23q87 -33 164 -91zM938 1317q139 -58 221.5 -218.5t82.5 -373.5q0 -319 -187 -548q57 -49 177 -59
v-6q-38 -6 -57 -6q-89 0 -161 66q200 203 200 556q0 385 -276 583v6zM1360 60q-81 -106 -153 -240l-6 -11l-24 12q34 68 77 131l78 114l5 8z" />
    <glyph glyph-name="R" unicode="R" horiz-adv-x="1301" 
d="M88 1245q237 137 510 137q212 0 349.5 -92t137.5 -234q0 -116 -90 -205.5t-246 -129.5q69 -190 187.5 -370t237.5 -276l-15 -5q-149 -51 -292 -144l-15 -10l-5 32q-64 387 -179 656l-4 10q-69 -32 -185 -51l-8 -1v-374l176 -188h-517l-16 27h476l-145 154v403l21 3
q114 12 191 45q-6 12 -7 15l-10 29q-1 3 -5 12q-62 -18 -234 -39l-11 -2v-446l114 -119h-442l130 119v336l-8 -1q-58 -13 -105 -29l-8 -3l-9 20q44 17 69 23l53 13l8 2v52q-59 0 -147 -26l-11 -4q2 14 20 65q2 4 14 45l3 9q45 -3 70 -3q27 0 50 3v492q-46 28 -95 47z
M390 1271v-539q29 0 55 5v492q55 15 132 15q195 0 265 -128q-74 60 -130 82.5t-134 22.5q-61 0 -107 -12v-472l11 2q197 36 292.5 113.5t95.5 201.5q0 111 -86 183.5t-217 72.5q-105 0 -177 -39zM873 671q63 -206 223 -403q100 -123 253 -221q-229 -61 -430 -186l-9 -6
l-20 16q191 125 407 184q-288 192 -453 614l-6 17q306 116 306 354q0 98 -79 214q101 -92 101 -234q0 -230 -293 -349z" />
    <glyph glyph-name="R" unicode="r" horiz-adv-x="1301" 
d="M88 1245q237 137 510 137q212 0 349.5 -92t137.5 -234q0 -116 -90 -205.5t-246 -129.5q69 -190 187.5 -370t237.5 -276l-15 -5q-149 -51 -292 -144l-15 -10l-5 32q-64 387 -179 656l-4 10q-69 -32 -185 -51l-8 -1v-374l176 -188h-517l-16 27h476l-145 154v403l21 3
q114 12 191 45q-6 12 -7 15l-10 29q-1 3 -5 12q-62 -18 -234 -39l-11 -2v-446l114 -119h-442l130 119v336l-8 -1q-58 -13 -105 -29l-8 -3l-9 20q44 17 69 23l53 13l8 2v52q-59 0 -147 -26l-11 -4q2 14 20 65q2 4 14 45l3 9q45 -3 70 -3q27 0 50 3v492q-46 28 -95 47z
M390 1271v-539q29 0 55 5v492q55 15 132 15q195 0 265 -128q-74 60 -130 82.5t-134 22.5q-61 0 -107 -12v-472l11 2q197 36 292.5 113.5t95.5 201.5q0 111 -86 183.5t-217 72.5q-105 0 -177 -39zM873 671q63 -206 223 -403q100 -123 253 -221q-229 -61 -430 -186l-9 -6
l-20 16q191 125 407 184q-288 192 -453 614l-6 17q306 116 306 354q0 98 -79 214q101 -92 101 -234q0 -230 -293 -349z" />
    <glyph glyph-name="S" unicode="S" horiz-adv-x="1136" 
d="M980 1354q-52 -70 -83 -146q-61 -150 -81 -184l-5 -6q-4 11 -6 17q-28 90 -46 125t-54 67q-91 81 -207 81q-107 0 -178 -59.5t-71 -149.5q0 -168 253 -229l169 -41q361 -87 361 -381q0 -164 -123.5 -275.5t-305.5 -111.5q-114 0 -255 35l-117 29q-71 17 -117 17
q-61 0 -126 -39l-8 14q124 187 174 356l18 -5q21 -157 126 -244t275 -87q134 0 213 62t79 167q0 121 -110 200q-79 56 -324 104q-189 37 -274 123t-85 239q0 158 113.5 256.5t295.5 98.5q117 0 273 -42q73 -20 108 -20q49 0 107 34zM1042 1312l-9 -15q-41 -69 -70 -132
q-70 -147 -79 -164l-5 -7l-24 10l4 9q29 66 84 172l68 132l5 8zM750 1113q-110 117 -236 117q-76 0 -126 -44t-50 -112q0 -74 101 -152l8 -5l-5 -8q-132 59 -132 171q0 78 56 127t146 49q86 0 150.5 -36.5t94.5 -102.5zM980 716q136 -103 136 -282q0 -191 -148 -323.5
t-360 -132.5q-108 0 -195 22l-160 39q-56 14 -120 14q-57 0 -105 -23l-12 29q52 24 106 24q60 0 137 -18l154 -37q92 -22 194 -22q200 0 340.5 127.5t140.5 308.5q0 153 -108 268v6zM268 428q37 -180 198 -255v-8q-186 54 -225 258zM143 752l34 -19q33 -59 193 -98l161 -40
q164 -41 218.5 -70.5t77.5 -89.5l-7 -4q-45 52 -97.5 76t-201.5 59q-216 50 -290 86.5t-88 99.5z" />
    <glyph glyph-name="S" unicode="s" horiz-adv-x="1136" 
d="M980 1354q-52 -70 -83 -146q-61 -150 -81 -184l-5 -6q-4 11 -6 17q-28 90 -46 125t-54 67q-91 81 -207 81q-107 0 -178 -59.5t-71 -149.5q0 -168 253 -229l169 -41q361 -87 361 -381q0 -164 -123.5 -275.5t-305.5 -111.5q-114 0 -255 35l-117 29q-71 17 -117 17
q-61 0 -126 -39l-8 14q124 187 174 356l18 -5q21 -157 126 -244t275 -87q134 0 213 62t79 167q0 121 -110 200q-79 56 -324 104q-189 37 -274 123t-85 239q0 158 113.5 256.5t295.5 98.5q117 0 273 -42q73 -20 108 -20q49 0 107 34zM1042 1312l-9 -15q-41 -69 -70 -132
q-70 -147 -79 -164l-5 -7l-24 10l4 9q29 66 84 172l68 132l5 8zM750 1113q-110 117 -236 117q-76 0 -126 -44t-50 -112q0 -74 101 -152l8 -5l-5 -8q-132 59 -132 171q0 78 56 127t146 49q86 0 150.5 -36.5t94.5 -102.5zM980 716q136 -103 136 -282q0 -191 -148 -323.5
t-360 -132.5q-108 0 -195 22l-160 39q-56 14 -120 14q-57 0 -105 -23l-12 29q52 24 106 24q60 0 137 -18l154 -37q92 -22 194 -22q200 0 340.5 127.5t140.5 308.5q0 153 -108 268v6zM268 428q37 -180 198 -255v-8q-186 54 -225 258zM143 752l34 -19q33 -59 193 -98l161 -40
q164 -41 218.5 -70.5t77.5 -89.5l-7 -4q-45 52 -97.5 76t-201.5 59q-216 50 -290 86.5t-88 99.5z" />
    <glyph glyph-name="T" unicode="T" horiz-adv-x="1185" 
d="M1156 1365q-9 -17 -12 -23l-68 -120q-35 -64 -65 -160l-2 -5l-10 7l-3 13q-29 114 -82.5 158t-163.5 44q-45 0 -90 -4h-12v-1084l118 -109h-457l140 117v995l-71 1q-103 0 -146.5 -40.5t-51.5 -142.5h-26q11 117 60.5 163t163.5 46l60 -1h11v49q-51 6 -97 6
q-129 0 -186 -52.5t-63 -177.5h-12q-43 139 -133 310l-6 10h1204zM1219 1302q-69 -88 -145 -292l-4 -10l-22 19l3 9q74 207 143 288l5 6zM952 1146q-77 50 -180 50q-23 0 -48 -3l4 -1005l159 -188h-511l-23 27h479l-134 153v1042l54 1q97 0 137.5 -15.5t62.5 -61.5z" />
    <glyph glyph-name="T" unicode="t" horiz-adv-x="1185" 
d="M1156 1365q-9 -17 -12 -23l-68 -120q-35 -64 -65 -160l-2 -5l-10 7l-3 13q-29 114 -82.5 158t-163.5 44q-45 0 -90 -4h-12v-1084l118 -109h-457l140 117v995l-71 1q-103 0 -146.5 -40.5t-51.5 -142.5h-26q11 117 60.5 163t163.5 46l60 -1h11v49q-51 6 -97 6
q-129 0 -186 -52.5t-63 -177.5h-12q-43 139 -133 310l-6 10h1204zM1219 1302q-69 -88 -145 -292l-4 -10l-22 19l3 9q74 207 143 288l5 6zM952 1146q-77 50 -180 50q-23 0 -48 -3l4 -1005l159 -188h-511l-23 27h479l-134 153v1042l54 1q97 0 137.5 -15.5t62.5 -61.5z" />
    <glyph glyph-name="U" unicode="U" horiz-adv-x="1244" 
d="M1189 1365l-179 -143v-646q0 -178 -11.5 -256t-45.5 -128q-86 -128 -334 -128q-262 0 -366 128q-83 101 -83 387v664l-136 122h472l-136 -133v-654l2 -154q0 -149 62 -211.5t209 -62.5q162 0 223 95q49 77 49 330l4 647l-156 143h426zM1223 1297l-136 -113v-621
q0 -305 -48 -398q-98 -188 -383 -188q-246 0 -370 123l8 -4l35 -20q123 -72 316 -72q276 0 366 174q48 94 48 378v640l149 122zM548 1311l-98 -99v-743l-1 -69l31 -127q23 -38 87 -92l2 -9q-84 34 -116 99t-32 201v750l113 110z" />
    <glyph glyph-name="U" unicode="u" horiz-adv-x="1244" 
d="M1189 1365l-179 -143v-646q0 -178 -11.5 -256t-45.5 -128q-86 -128 -334 -128q-262 0 -366 128q-83 101 -83 387v664l-136 122h472l-136 -133v-654l2 -154q0 -149 62 -211.5t209 -62.5q162 0 223 95q49 77 49 330l4 647l-156 143h426zM1223 1297l-136 -113v-621
q0 -305 -48 -398q-98 -188 -383 -188q-246 0 -370 123l8 -4l35 -20q123 -72 316 -72q276 0 366 174q48 94 48 378v640l149 122zM548 1311l-98 -99v-743l-1 -69l31 -127q23 -38 87 -92l2 -9q-84 34 -116 99t-32 201v750l113 110z" />
    <glyph glyph-name="V" unicode="V" horiz-adv-x="1269" 
d="M1376 1681l11 -11q-131 -126 -214 -270t-199 -450l-292 -764l119 -104h-461l132 109l-366 1042l-154 132h496l-141 -141l330 -939l39 93l-295 832l102 101l18 -19l-89 -88l277 -791l212 566q95 252 95 353q0 102 -75 175l19 4q291 56 436 170zM1430 1620l9 -23
q-191 -149 -394 -680l-282 -735l156 -182h-516l-22 27h479l-126 148l287 749l54 142q72 184 170 336.5t185 217.5z" />
    <glyph glyph-name="V" unicode="v" horiz-adv-x="1269" 
d="M1376 1681l11 -11q-131 -126 -214 -270t-199 -450l-292 -764l119 -104h-461l132 109l-366 1042l-154 132h496l-141 -141l330 -939l39 93l-295 832l102 101l18 -19l-89 -88l277 -791l212 566q95 252 95 353q0 102 -75 175l19 4q291 56 436 170zM1430 1620l9 -23
q-191 -149 -394 -680l-282 -735l156 -182h-516l-22 27h479l-126 148l287 749l54 142q72 184 170 336.5t185 217.5z" />
    <glyph glyph-name="W" unicode="W" horiz-adv-x="1618" 
d="M1730 1708q-139 -153 -209.5 -305t-166.5 -503l-173 -630l20 -78l123 -110h-456l131 110l-177 641l-172 -627l172 -206h-511l-20 27h476l-150 173l189 684l-33 119l-205 -749l16 -62l117 -110h-457l136 110l-291 1047l-150 126h489l-137 -126l229 -824l35 121l-193 688
l91 81l23 -16l-83 -74l175 -629l214 779h94l260 -942l32 113l-230 829h28l215 -779l94 338q88 318 88 414q0 107 -100 168q117 37 251 101t200 115zM1790 1632q-120 -132 -197.5 -298t-158.5 -464l-177 -646l192 -224h-513l-23 27h475l-162 187l184 670q82 298 157 458.5
t200 306.5z" />
    <glyph glyph-name="W" unicode="w" horiz-adv-x="1618" 
d="M1730 1708q-139 -153 -209.5 -305t-166.5 -503l-173 -630l20 -78l123 -110h-456l131 110l-177 641l-172 -627l172 -206h-511l-20 27h476l-150 173l189 684l-33 119l-205 -749l16 -62l117 -110h-457l136 110l-291 1047l-150 126h489l-137 -126l229 -824l35 121l-193 688
l91 81l23 -16l-83 -74l175 -629l214 779h94l260 -942l32 113l-230 829h28l215 -779l94 338q88 318 88 414q0 107 -100 168q117 37 251 101t200 115zM1790 1632q-120 -132 -197.5 -298t-158.5 -464l-177 -646l192 -224h-513l-23 27h475l-162 187l184 670q82 298 157 458.5
t200 306.5z" />
    <glyph glyph-name="X" unicode="X" horiz-adv-x="1429" 
d="M1275 1365l-220 -144l-320 -407l366 -601l174 -131h-516l127 123l-228 372l-282 -364l164 -213h-547l-15 27h509l-143 186l300 389l-28 44l-327 -414l122 -150h-459l234 150l387 490l-312 509l-190 134h528l-131 -114l223 -364l36 46l-187 298l111 106l18 -17l-96 -89
l170 -278l217 278l-125 134h440zM1311 1289l-195 -115l-283 -367l345 -570l244 -237h-621l-18 27h575l-203 197l-354 583l297 384l198 118z" />
    <glyph glyph-name="X" unicode="x" horiz-adv-x="1429" 
d="M1275 1365l-220 -144l-320 -407l366 -601l174 -131h-516l127 123l-228 372l-282 -364l164 -213h-547l-15 27h509l-143 186l300 389l-28 44l-327 -414l122 -150h-459l234 150l387 490l-312 509l-190 134h528l-131 -114l223 -364l36 46l-187 298l111 106l18 -17l-96 -89
l170 -278l217 278l-125 134h440zM1311 1289l-195 -115l-283 -367l345 -570l244 -237h-621l-18 27h575l-203 197l-354 583l297 384l198 118z" />
    <glyph glyph-name="Y" unicode="Y" horiz-adv-x="1314" 
d="M1439 1717l6 -8l-10 -11q-179 -186 -295 -378q-45 -73 -64 -104l-372 -595v-406l145 -133h-487l144 133v406l-240 369l-52 83q-71 111 -116.5 162t-134.5 121l-11 9h505l-124 -129l333 -502l32 51l-297 451l105 100l21 -16l-91 -84l277 -427l224 353q97 154 97 230
q0 64 -85 146q291 70 478 173zM1484 1657v-41l-10 -10q-84 -80 -144.5 -160t-179.5 -269l-362 -570v-392l178 -215h-626l-12 27h585l-152 188v399l369 582l58 92q155 247 296 369z" />
    <glyph glyph-name="Y" unicode="y" horiz-adv-x="1314" 
d="M1439 1717l6 -8l-10 -11q-179 -186 -295 -378q-45 -73 -64 -104l-372 -595v-406l145 -133h-487l144 133v406l-240 369l-52 83q-71 111 -116.5 162t-134.5 121l-11 9h505l-124 -129l333 -502l32 51l-297 451l105 100l21 -16l-91 -84l277 -427l224 353q97 154 97 230
q0 64 -85 146q291 70 478 173zM1484 1657v-41l-10 -10q-84 -80 -144.5 -160t-179.5 -269l-362 -570v-392l178 -215h-626l-12 27h585l-152 188v399l369 582l58 92q155 247 296 369z" />
    <glyph glyph-name="Z" unicode="Z" horiz-adv-x="1312" 
d="M1132 1365l-802 -1198h63l786 1176l18 -24l-770 -1152h100l79 2h41q82 0 155.5 31t111.5 81q47 62 80 137q84 -220 178 -336h-1138l741 1113l-20 1l-128 2q-182 0 -251 -39.5t-100 -162.5l-21 23q19 85 82 141q42 38 99 50.5t188 12.5q83 0 153 -3l15 -1l39 57
q-70 5 -138 5q-207 0 -284.5 -18t-134.5 -78q-44 -47 -72 -127l-8 17q-50 115 -142 279l-6 11h1086zM1278 90l-51 -90h-1142l-21 27h1147l36 63q-115 140 -181 318l34 -13q51 -151 170 -296z" />
    <glyph glyph-name="Z" unicode="z" horiz-adv-x="1312" 
d="M1132 1365l-802 -1198h63l786 1176l18 -24l-770 -1152h100l79 2h41q82 0 155.5 31t111.5 81q47 62 80 137q84 -220 178 -336h-1138l741 1113l-20 1l-128 2q-182 0 -251 -39.5t-100 -162.5l-21 23q19 85 82 141q42 38 99 50.5t188 12.5q83 0 153 -3l15 -1l39 57
q-70 5 -138 5q-207 0 -284.5 -18t-134.5 -78q-44 -47 -72 -127l-8 17q-50 115 -142 279l-6 11h1086zM1278 90l-51 -90h-1142l-21 27h1147l36 63q-115 140 -181 318l34 -13q51 -151 170 -296z" />
    <glyph glyph-name="bracketleft" unicode="[" horiz-adv-x="896" 
d="M205 1529h460v-98h-237v-1429h57v1375h238v97l23 -26v-99h-232v-1347h151v-98h-460v1625zM723 -52l23 -26v-99h-489l-18 28h484v97z" />
    <glyph glyph-name="backslash" unicode="\" horiz-adv-x="1058" 
d="M-16 1536l974 -1634h-94l-974 1634h94zM932 -157h106l-992 1664l43 -21l997 -1670h-110z" />
    <glyph glyph-name="bracketright" unicode="]" horiz-adv-x="896" 
d="M150 1431v98h460v-1625h-460v98h237v1347h-186l-18 28h204v54h-237zM668 1475l23 -25v-1627h-489l-18 28h484v1624z" />
    <glyph glyph-name="asciicircum" unicode="^" 
d="M1079 578h-101l-374 582l-392 -582h-268l577 856h16z" />
    <glyph glyph-name="underscore" unicode="_" 
d="M33 -184h957v-117h-957v117z" />
    <glyph glyph-name="grave" unicode="`" 
d="M394 1762l138 -192h-117l-229 192h208zM665 1502h-168l-28 25h139l-125 174l43 -9z" />
    <glyph glyph-name="braceleft" unicode="{" horiz-adv-x="901" 
d="M669 1529v-83q-131 0 -194.5 -60t-63.5 -182q0 -47 11 -80l28 -86q15 -46 15 -88q0 -168 -241 -208v-8q45 -6 78 -16q218 45 218 204q0 43 -15 88l-28 86q-11 33 -11 80q0 123 63.5 182.5t194.5 59.5v83l27 -13v-83q-131 0 -194.5 -60t-63.5 -183q0 -48 11 -80l28 -86
q15 -44 15 -82q0 -155 -228 -202q151 -58 151 -205q0 -41 -14 -92l-26 -96q-14 -49 -14 -99q0 -191 133 -233q-78 65 -78 205q0 50 14 99l26 96q14 51 14 91q0 112 -88 175q62 -36 88.5 -80t26.5 -109q0 -40 -14 -91l-26 -96q-14 -49 -14 -98q0 -132 73 -198q46 -8 98 -8
v-82q-43 4 -126 4q-189 0 -261 70q-87 84 -87 248q0 68 44 236q17 65 17 112q0 35 -23 75q-43 5 -73 5q-13 0 -44 -2l-14 25q34 3 58 3q13 0 48 -4q-45 33 -140 37v75q187 12 187 140q0 36 -16 87q-45 146 -45 207q0 174 99 259q68 58 253 58q91 0 123 3zM751 -75v-102
q-249 0 -416 41v5q144 -19 311 -19l60 -1h18v100z" />
    <glyph glyph-name="bar" unicode="|" 
d="M436 1365h153v-1706h-153v1706z" />
    <glyph glyph-name="braceright" unicode="}" horiz-adv-x="901" 
d="M763 782v-74q-102 -5 -147 -39t-45 -104q0 -41 17 -106q45 -167 45 -235q0 -163 -89 -246q-74 -69 -265 -69l-129 -4v82q135 0 196.5 58t61.5 186q0 49 -14 99l-27 94q-14 52 -14 92q0 145 152 203q-44 21 -80 58q62 -33 112 -46q29 6 67 10v8q-246 40 -246 206
q0 42 15 87l29 85q11 33 11 83q0 59 -31 129q-58 46 -183 46l-14 27q111 0 175 -37q-58 72 -210 72v82q59 -3 125 -3q188 0 258 -58q101 -83 101 -256q0 -61 -46 -206q-16 -50 -16 -86q0 -126 191 -138zM171 -150l150 4q191 0 265 69q89 83 89 246q0 67 -45 235
q-17 64 -17 106q0 70 45 104t147 39v90l28 -27v-91q-102 -5 -147 -38.5t-45 -104.5q0 -42 17 -106q45 -168 45 -235q0 -162 -89 -245q-74 -70 -265 -70l-113 -2l-37 -1zM663 811q-49 41 -49 83q0 36 16 85q46 140 46 212q0 97 -71 218q99 -91 99 -251q0 -77 -46 -207
q-16 -45 -16 -72q0 -23 21 -68z" />
    <glyph glyph-name="asciitilde" unicode="~" horiz-adv-x="1365" 
d="M1064 1502l36 -23q-49 -95 -124 -152.5t-150 -57.5q-44 0 -118 24l-58 20l-59 19q-66 21 -116 21q-80 0 -156 -88q-6 -6 -18 -19l-36 23q121 212 277 212q54 0 177 -43q110 -38 158 -38q104 0 187 102z" />
    <glyph glyph-name="Adieresis" unicode="&#xc4;" horiz-adv-x="1550" 
d="M967 1365l-104 -118l164 -436l40 22l-148 394l106 122l26 -11l-101 -117l140 -373q12 9 14 11l33 28q30 24 38 34q26 -114 80 -204q-29 2 -42 2q-95 0 -139 -30l181 -491l150 -116h-505l138 116l-111 292q-110 -111 -169 -211l-23 6q59 98 176 219l8 10l-19 44
q-119 -99 -197 -230l-18 29q-52 83 -133 189l-10 12q-77 -171 -77 -278q0 -63 21.5 -106.5t103.5 -145.5q7 -9 22 -28h-540l-20 27h509l-17 21q-66 80 -86.5 124.5t-20.5 104.5q0 102 83 304l-44 46q-13 -32 -33 -94l-33 -102q-27 -82 -27 -136q0 -56 19 -93t80 -101
q6 -6 18 -19h-500q143 74 226.5 199t165.5 386l4 14q-53 45 -153 55q55 82 85 171q14 -13 17 -16l45 -42q23 -22 55 -45l18 44l-12 10q-50 44 -84 71l-9 7l16 22q53 -35 102 -81l136 374l-106 114h461zM720 1044l-110 -290q9 -10 10 -12l41 -46q33 -36 84 -112l10 -15
q43 54 102 107zM675 1160l-159 -420q76 -78 131 -154l46 -64q1 -1 10 -13q9 9 10 11l14 17q3 4 11 13q-70 108 -163 195l128 338zM1263 873q22 -90 110 -247q-22 3 -25 3l-81 7q-55 5 -80 5q-4 0 -20 -1l167 -443l223 -197h-579l-19 27h531l-180 159l-178 471q34 9 78 9
q54 0 120 -9l-12 22q-64 118 -86 213zM921 1765q40 0 68 -28t28 -68t-28 -68t-68 -28t-68 28t-28 68q0 39 28 67.5t68 28.5zM1045 1722q56 -25 56 -99q0 -54 -35.5 -90.5t-88.5 -36.5q-59 0 -94 47v7q47 -34 81 -34q49 0 84 34.5t35 83.5q0 39 -38 88zM700 1722
q56 -25 56 -99q0 -54 -36 -90.5t-88 -36.5q-59 0 -94 47v7q47 -34 81 -34q49 0 84 34.5t35 83.5q0 39 -38 88zM573 1765q40 0 68 -28t28 -68t-28 -68t-68 -28t-68 28t-28 68t28 68t68 28z" />
    <glyph glyph-name="Adieresis" unicode="&#xe4;" horiz-adv-x="1550" 
d="M967 1365l-104 -118l164 -436l40 22l-148 394l106 122l26 -11l-101 -117l140 -373q12 9 14 11l33 28q30 24 38 34q26 -114 80 -204q-29 2 -42 2q-95 0 -139 -30l181 -491l150 -116h-505l138 116l-111 292q-110 -111 -169 -211l-23 6q59 98 176 219l8 10l-19 44
q-119 -99 -197 -230l-18 29q-52 83 -133 189l-10 12q-77 -171 -77 -278q0 -63 21.5 -106.5t103.5 -145.5q7 -9 22 -28h-540l-20 27h509l-17 21q-66 80 -86.5 124.5t-20.5 104.5q0 102 83 304l-44 46q-13 -32 -33 -94l-33 -102q-27 -82 -27 -136q0 -56 19 -93t80 -101
q6 -6 18 -19h-500q143 74 226.5 199t165.5 386l4 14q-53 45 -153 55q55 82 85 171q14 -13 17 -16l45 -42q23 -22 55 -45l18 44l-12 10q-50 44 -84 71l-9 7l16 22q53 -35 102 -81l136 374l-106 114h461zM720 1044l-110 -290q9 -10 10 -12l41 -46q33 -36 84 -112l10 -15
q43 54 102 107zM675 1160l-159 -420q76 -78 131 -154l46 -64q1 -1 10 -13q9 9 10 11l14 17q3 4 11 13q-70 108 -163 195l128 338zM1263 873q22 -90 110 -247q-22 3 -25 3l-81 7q-55 5 -80 5q-4 0 -20 -1l167 -443l223 -197h-579l-19 27h531l-180 159l-178 471q34 9 78 9
q54 0 120 -9l-12 22q-64 118 -86 213zM921 1765q40 0 68 -28t28 -68t-28 -68t-68 -28t-68 28t-28 68q0 39 28 67.5t68 28.5zM1045 1722q56 -25 56 -99q0 -54 -35.5 -90.5t-88.5 -36.5q-59 0 -94 47v7q47 -34 81 -34q49 0 84 34.5t35 83.5q0 39 -38 88zM700 1722
q56 -25 56 -99q0 -54 -36 -90.5t-88 -36.5q-59 0 -94 47v7q47 -34 81 -34q49 0 84 34.5t35 83.5q0 39 -38 88zM573 1765q40 0 68 -28t28 -68t-28 -68t-68 -28t-68 28t-28 68t28 68t68 28z" />
    <glyph glyph-name="Aring" unicode="&#xc5;" horiz-adv-x="1550" 
d="M967 1365l-104 -118l164 -436l40 22l-148 394l106 122l26 -11l-101 -117l140 -373q12 9 14 11l33 28q30 24 38 34q26 -114 80 -204q-29 2 -42 2q-95 0 -139 -30l181 -491l150 -116h-505l138 116l-111 292q-110 -111 -169 -211l-23 6q59 98 176 219l8 10l-19 44
q-119 -99 -197 -230l-18 29q-52 83 -133 189l-10 12q-77 -171 -77 -278q0 -63 21.5 -106.5t103.5 -145.5q7 -9 22 -28h-540l-20 27h509l-17 21q-66 80 -86.5 124.5t-20.5 104.5q0 102 83 304l-44 46q-13 -32 -33 -94l-33 -102q-27 -82 -27 -136q0 -56 19 -93t80 -101
q6 -6 18 -19h-500q143 74 226.5 199t165.5 386l4 14q-53 45 -153 55q55 82 85 171q14 -13 17 -16l45 -42q23 -22 55 -45l18 44l-12 10q-50 44 -84 71l-9 7l16 22q53 -35 102 -81l136 374l-106 114h461zM720 1044l-110 -290q9 -10 10 -12l41 -46q33 -36 84 -112l10 -15
q43 54 102 107zM675 1160l-159 -420q76 -78 131 -154l46 -64q1 -1 10 -13q9 9 10 11l14 17q3 4 11 13q-70 108 -163 195l128 338zM1263 873q22 -90 110 -247q-22 3 -25 3l-81 7q-55 5 -80 5q-4 0 -20 -1l167 -443l223 -197h-579l-19 27h531l-180 159l-178 471q34 9 78 9
q54 0 120 -9l-12 22q-64 118 -86 213zM870 1789q91 -47 91 -149q0 -73 -49 -125t-119 -52q-81 0 -135 59l8 7q57 -48 116 -48q65 0 111.5 47t46.5 112q0 84 -81 140zM733 1819q59 0 101 -41.5t42 -101.5t-42 -101.5t-101 -41.5q-60 0 -102 41.5t-42 101.5q0 59 42 101
t102 42zM733 1740q-27 0 -46 -19t-19 -45q0 -27 19 -46t46 -19t46 19t19 46q0 26 -19 45t-46 19z" />
    <glyph glyph-name="Aring" unicode="&#xe5;" horiz-adv-x="1550" 
d="M967 1365l-104 -118l164 -436l40 22l-148 394l106 122l26 -11l-101 -117l140 -373q12 9 14 11l33 28q30 24 38 34q26 -114 80 -204q-29 2 -42 2q-95 0 -139 -30l181 -491l150 -116h-505l138 116l-111 292q-110 -111 -169 -211l-23 6q59 98 176 219l8 10l-19 44
q-119 -99 -197 -230l-18 29q-52 83 -133 189l-10 12q-77 -171 -77 -278q0 -63 21.5 -106.5t103.5 -145.5q7 -9 22 -28h-540l-20 27h509l-17 21q-66 80 -86.5 124.5t-20.5 104.5q0 102 83 304l-44 46q-13 -32 -33 -94l-33 -102q-27 -82 -27 -136q0 -56 19 -93t80 -101
q6 -6 18 -19h-500q143 74 226.5 199t165.5 386l4 14q-53 45 -153 55q55 82 85 171q14 -13 17 -16l45 -42q23 -22 55 -45l18 44l-12 10q-50 44 -84 71l-9 7l16 22q53 -35 102 -81l136 374l-106 114h461zM720 1044l-110 -290q9 -10 10 -12l41 -46q33 -36 84 -112l10 -15
q43 54 102 107zM675 1160l-159 -420q76 -78 131 -154l46 -64q1 -1 10 -13q9 9 10 11l14 17q3 4 11 13q-70 108 -163 195l128 338zM1263 873q22 -90 110 -247q-22 3 -25 3l-81 7q-55 5 -80 5q-4 0 -20 -1l167 -443l223 -197h-579l-19 27h531l-180 159l-178 471q34 9 78 9
q54 0 120 -9l-12 22q-64 118 -86 213zM870 1789q91 -47 91 -149q0 -73 -49 -125t-119 -52q-81 0 -135 59l8 7q57 -48 116 -48q65 0 111.5 47t46.5 112q0 84 -81 140zM733 1819q59 0 101 -41.5t42 -101.5t-42 -101.5t-101 -41.5q-60 0 -102 41.5t-42 101.5q0 59 42 101
t102 42zM733 1740q-27 0 -46 -19t-19 -45q0 -27 19 -46t46 -19t46 19t19 46q0 26 -19 45t-46 19z" />
    <glyph glyph-name="Ccedilla" unicode="&#xc7;" horiz-adv-x="1213" 
d="M665 49l-20 -83q102 0 102 -125q0 -87 -54 -144.5t-135 -57.5q-100 0 -157 99l8 5l35 22q25 16 64 47q0 -94 61 -94q28 0 49.5 39t21.5 91q0 67 -56 67q-30 0 -50 -30l-18 16q13 34 25 71l2 7q-102 16 -207 91v8q94 -62 214 -75q5 16 11 40l1 6q-240 24 -377 200
t-137 462q0 296 157.5 491.5t396.5 195.5q112 0 255 -55q75 -29 124 -29q53 0 95 29l16 -9l-11 -19q-90 -157 -156 -314l-9 -23l-12 7q-24 152 -107.5 241t-203.5 89q-126 0 -211 -111q-107 -138 -107 -468q0 -285 98.5 -445.5t272.5 -160.5q141 0 224.5 93.5t98.5 267.5
q4 42 34 42q39 0 39 -61q0 -82 -30.5 -169t-76.5 -136q-99 -105 -270 -118zM802 1161q-91 73 -172 73q-259 0 -259 -494q0 -225 60.5 -375.5t168.5 -192.5l1 -10q-119 24 -189.5 181t-70.5 399q0 250 73.5 383.5t211.5 133.5q95 0 176 -85v-13zM751 -63q68 -53 68 -155
q0 -83 -59.5 -142.5t-141.5 -59.5q-78 0 -124 44v9q56 -32 110 -32q74 0 131 62.5t57 143.5q0 68 -49 125zM570 -142q7 34 45 34v-10q-18 -10 -32 -39zM1128 474q-27 -419 -362 -491l-10 -2l-26 24q90 7 177 66q91 61 134.5 151t55.5 242l2 23zM1165 1286l-11 -19
q-109 -186 -174 -339l-27 13l11 25q50 105 88 174l80 142l10 18zM574 -235l23 -11l-18 -12z" />
    <glyph glyph-name="Ccedilla" unicode="&#xe7;" horiz-adv-x="1213" 
d="M665 49l-20 -83q102 0 102 -125q0 -87 -54 -144.5t-135 -57.5q-100 0 -157 99l8 5l35 22q25 16 64 47q0 -94 61 -94q28 0 49.5 39t21.5 91q0 67 -56 67q-30 0 -50 -30l-18 16q13 34 25 71l2 7q-102 16 -207 91v8q94 -62 214 -75q5 16 11 40l1 6q-240 24 -377 200
t-137 462q0 296 157.5 491.5t396.5 195.5q112 0 255 -55q75 -29 124 -29q53 0 95 29l16 -9l-11 -19q-90 -157 -156 -314l-9 -23l-12 7q-24 152 -107.5 241t-203.5 89q-126 0 -211 -111q-107 -138 -107 -468q0 -285 98.5 -445.5t272.5 -160.5q141 0 224.5 93.5t98.5 267.5
q4 42 34 42q39 0 39 -61q0 -82 -30.5 -169t-76.5 -136q-99 -105 -270 -118zM802 1161q-91 73 -172 73q-259 0 -259 -494q0 -225 60.5 -375.5t168.5 -192.5l1 -10q-119 24 -189.5 181t-70.5 399q0 250 73.5 383.5t211.5 133.5q95 0 176 -85v-13zM751 -63q68 -53 68 -155
q0 -83 -59.5 -142.5t-141.5 -59.5q-78 0 -124 44v9q56 -32 110 -32q74 0 131 62.5t57 143.5q0 68 -49 125zM570 -142q7 34 45 34v-10q-18 -10 -32 -39zM1128 474q-27 -419 -362 -491l-10 -2l-26 24q90 7 177 66q91 61 134.5 151t55.5 242l2 23zM1165 1286l-11 -19
q-109 -186 -174 -339l-27 13l11 25q50 105 88 174l80 142l10 18zM574 -235l23 -11l-18 -12z" />
    <glyph glyph-name="Eacute" unicode="&#xc9;" horiz-adv-x="1273" 
d="M1125 1365l-16 -19q-102 -125 -162 -287q-10 23 -15 34q-55 120 -118 155t-226 35q-75 0 -180 -5v-460h64v407q76 7 145 7q127 0 187 -27t107 -105q-14 10 -20 15q-81 64 -117 76t-142 12q-32 0 -114 -4l-21 -1v-380h184l129 177v-431l-129 167h-273v-561h64v514h217
l26 -26h-218v-488q204 0 290 29t135 114l53 91q3 6 12 22q26 -110 64.5 -176t127.5 -154h-1121l152 116v446q-84 -10 -152 -52l-14 21q61 44 166 57v47q-17 2 -24 2q-102 0 -186 -75q46 160 210 160v427l-152 120h1067zM1173 1295l-7 -9q-122 -164 -163 -275l-17 21
q67 155 173 284zM879 962v-442l-25 13v442zM1293 90l-52 -90h-1092l-16 27h1095l34 63q-144 133 -203 284l32 -12q55 -128 186 -256zM728 1764l-244 -198h-106l147 198h203zM421 1482l-23 28h123l246 199l19 -24l-251 -203h-114z" />
    <glyph glyph-name="Eacute" unicode="&#xe9;" horiz-adv-x="1273" 
d="M1125 1365l-16 -19q-102 -125 -162 -287q-10 23 -15 34q-55 120 -118 155t-226 35q-75 0 -180 -5v-460h64v407q76 7 145 7q127 0 187 -27t107 -105q-14 10 -20 15q-81 64 -117 76t-142 12q-32 0 -114 -4l-21 -1v-380h184l129 177v-431l-129 167h-273v-561h64v514h217
l26 -26h-218v-488q204 0 290 29t135 114l53 91q3 6 12 22q26 -110 64.5 -176t127.5 -154h-1121l152 116v446q-84 -10 -152 -52l-14 21q61 44 166 57v47q-17 2 -24 2q-102 0 -186 -75q46 160 210 160v427l-152 120h1067zM1173 1295l-7 -9q-122 -164 -163 -275l-17 21
q67 155 173 284zM879 962v-442l-25 13v442zM1293 90l-52 -90h-1092l-16 27h1095l34 63q-144 133 -203 284l32 -12q55 -128 186 -256zM728 1764l-244 -198h-106l147 198h203zM421 1482l-23 28h123l246 199l19 -24l-251 -203h-114z" />
    <glyph glyph-name="Ntilde" unicode="&#xd1;" horiz-adv-x="1230" 
d="M1182 1365q-114 -59 -147 -108q-50 -76 -50 -229v-65v-881h-169l-472 916v-543l-1 -45l12 -144q20 -100 91 -148l8 -7q-138 46 -138 295l1 94v547l-54 105v-576q0 -274 36 -359t169 -124l87 -93h-542l-16 27h501l-52 55h-466q122 44 162 118t40 254v800l-133 111h506
l-142 -95l484 -944v120l-415 808l140 95l19 -19l-124 -84l380 -746v467v53q0 174 -28.5 232.5t-140.5 112.5h454zM1217 1291l-18 -30q-77 -18 -104.5 -66.5t-27.5 -163.5v-1031h-215l-13 27h201v994q0 141 36.5 196.5t140.5 73.5zM867 1762q2 -19 2 -26q0 -72 -45.5 -122.5
t-109.5 -50.5q-71 0 -187 58q-67 34 -95 34q-66 0 -76 -78h-71q0 86 52.5 144t129.5 58q65 0 189 -73q48 -29 76 -29q27 0 45 20.5t18 49.5q0 6 -1 15h73zM923 1734l21 -18q0 -91 -53 -153t-130 -62q-50 0 -114 30l13 13q56 -21 96 -21q148 0 166 199zM439 1607v-30
q-21 -29 -29 -74h-80l-16 23h79q11 56 46 81z" />
    <glyph glyph-name="Ntilde" unicode="&#xf1;" horiz-adv-x="1230" 
d="M1182 1365q-114 -59 -147 -108q-50 -76 -50 -229v-65v-881h-169l-472 916v-543l-1 -45l12 -144q20 -100 91 -148l8 -7q-138 46 -138 295l1 94v547l-54 105v-576q0 -274 36 -359t169 -124l87 -93h-542l-16 27h501l-52 55h-466q122 44 162 118t40 254v800l-133 111h506
l-142 -95l484 -944v120l-415 808l140 95l19 -19l-124 -84l380 -746v467v53q0 174 -28.5 232.5t-140.5 112.5h454zM1217 1291l-18 -30q-77 -18 -104.5 -66.5t-27.5 -163.5v-1031h-215l-13 27h201v994q0 141 36.5 196.5t140.5 73.5zM867 1762q2 -19 2 -26q0 -72 -45.5 -122.5
t-109.5 -50.5q-71 0 -187 58q-67 34 -95 34q-66 0 -76 -78h-71q0 86 52.5 144t129.5 58q65 0 189 -73q48 -29 76 -29q27 0 45 20.5t18 49.5q0 6 -1 15h73zM923 1734l21 -18q0 -91 -53 -153t-130 -62q-50 0 -114 30l13 13q56 -21 96 -21q148 0 166 199zM439 1607v-30
q-21 -29 -29 -74h-80l-16 23h79q11 56 46 81z" />
    <glyph glyph-name="Odieresis" unicode="&#xd6;" horiz-adv-x="1278" 
d="M816 1142l-17 10q-96 53 -176 53q-263 0 -263 -517q0 -378 163 -501l-9 -10q-100 71 -142.5 186.5t-42.5 312.5q0 555 292 555q133 0 195 -89zM602 1378q243 0 388.5 -184t145.5 -492q0 -291 -143.5 -464t-385.5 -173q-191 0 -340 122q-219 180 -219 533q0 302 150 480
t404 178zM602 1292q-338 0 -338 -594q0 -549 333 -549q155 0 236 145.5t81 425.5q0 317 -78 442q-82 130 -234 130zM921 1327q143 -69 226 -236t83 -386q0 -322 -163.5 -520t-429.5 -198q-170 0 -318 115v5q124 -91 311 -91q251 0 412 189t161 483q0 219 -73.5 383
t-208.5 245v11zM771 1765q40 0 68 -28t28 -68t-28 -68t-68 -28t-68 28t-28 68t28 68t68 28zM896 1722q55 -25 55 -99q0 -54 -35.5 -90.5t-88.5 -36.5q-59 0 -94 47v7q47 -34 81 -34q49 0 84 34.5t35 83.5q0 39 -37 88zM551 1722q55 -26 55 -99q0 -54 -35.5 -90.5
t-88.5 -36.5q-59 0 -94 47v7q47 -34 81 -34q49 0 84 34.5t35 83.5q0 39 -37 88zM423 1765q40 0 68 -28t28 -68t-28 -68t-68 -28t-68 28t-28 68q0 39 28 67.5t68 28.5z" />
    <glyph glyph-name="Odieresis" unicode="&#xf6;" horiz-adv-x="1278" 
d="M816 1142l-17 10q-96 53 -176 53q-263 0 -263 -517q0 -378 163 -501l-9 -10q-100 71 -142.5 186.5t-42.5 312.5q0 555 292 555q133 0 195 -89zM602 1378q243 0 388.5 -184t145.5 -492q0 -291 -143.5 -464t-385.5 -173q-191 0 -340 122q-219 180 -219 533q0 302 150 480
t404 178zM602 1292q-338 0 -338 -594q0 -549 333 -549q155 0 236 145.5t81 425.5q0 317 -78 442q-82 130 -234 130zM921 1327q143 -69 226 -236t83 -386q0 -322 -163.5 -520t-429.5 -198q-170 0 -318 115v5q124 -91 311 -91q251 0 412 189t161 483q0 219 -73.5 383
t-208.5 245v11zM771 1765q40 0 68 -28t28 -68t-28 -68t-68 -28t-68 28t-28 68t28 68t68 28zM896 1722q55 -25 55 -99q0 -54 -35.5 -90.5t-88.5 -36.5q-59 0 -94 47v7q47 -34 81 -34q49 0 84 34.5t35 83.5q0 39 -37 88zM551 1722q55 -26 55 -99q0 -54 -35.5 -90.5
t-88.5 -36.5q-59 0 -94 47v7q47 -34 81 -34q49 0 84 34.5t35 83.5q0 39 -37 88zM423 1765q40 0 68 -28t28 -68t-28 -68t-68 -28t-68 28t-28 68q0 39 28 67.5t68 28.5z" />
    <glyph glyph-name="Udieresis" unicode="&#xdc;" horiz-adv-x="1244" 
d="M1189 1365l-179 -143v-646q0 -178 -11.5 -256t-45.5 -128q-86 -128 -334 -128q-262 0 -366 128q-83 101 -83 387v664l-136 122h472l-136 -133v-654l2 -154q0 -149 62 -211.5t209 -62.5q162 0 223 95q49 77 49 330l4 647l-156 143h426zM1223 1297l-136 -113v-621
q0 -305 -48 -398q-98 -188 -383 -188q-246 0 -370 123l8 -4l35 -20q123 -72 316 -72q276 0 366 174q48 94 48 378v640l149 122zM548 1311l-98 -99v-743l-1 -69l31 -127q23 -38 87 -92l2 -9q-84 34 -116 99t-32 201v750l113 110zM809 1765q40 0 68 -28t28 -68t-28 -68
t-68 -28t-68 28t-28 68t28 68t68 28zM933 1722q56 -25 56 -99q0 -54 -36 -90.5t-88 -36.5q-59 0 -95 47v7q48 -34 82 -34q49 0 84 34.5t35 83.5q0 39 -38 88zM588 1722q55 -26 55 -99q0 -54 -35.5 -90.5t-88.5 -36.5q-58 0 -94 47v7q48 -34 82 -34q49 0 83.5 34.5t34.5 83.5
q0 39 -37 88zM461 1765q40 0 68 -28t28 -68t-28 -68t-68 -28t-68 28t-28 68t28 68t68 28z" />
    <glyph glyph-name="Udieresis" unicode="&#xfc;" horiz-adv-x="1244" 
d="M1189 1365l-179 -143v-646q0 -178 -11.5 -256t-45.5 -128q-86 -128 -334 -128q-262 0 -366 128q-83 101 -83 387v664l-136 122h472l-136 -133v-654l2 -154q0 -149 62 -211.5t209 -62.5q162 0 223 95q49 77 49 330l4 647l-156 143h426zM1223 1297l-136 -113v-621
q0 -305 -48 -398q-98 -188 -383 -188q-246 0 -370 123l8 -4l35 -20q123 -72 316 -72q276 0 366 174q48 94 48 378v640l149 122zM548 1311l-98 -99v-743l-1 -69l31 -127q23 -38 87 -92l2 -9q-84 34 -116 99t-32 201v750l113 110zM809 1765q40 0 68 -28t28 -68t-28 -68
t-68 -28t-68 28t-28 68t28 68t68 28zM933 1722q56 -25 56 -99q0 -54 -36 -90.5t-88 -36.5q-59 0 -95 47v7q48 -34 82 -34q49 0 84 34.5t35 83.5q0 39 -38 88zM588 1722q55 -26 55 -99q0 -54 -35.5 -90.5t-88.5 -36.5q-58 0 -94 47v7q48 -34 82 -34q49 0 83.5 34.5t34.5 83.5
q0 39 -37 88zM461 1765q40 0 68 -28t28 -68t-28 -68t-68 -28t-68 28t-28 68t28 68t68 28z" />
    <glyph glyph-name="dagger" unicode="&#x2020;" horiz-adv-x="1204" 
d="M324 1529h476l-135 -136v-346h61v334l113 111l17 -20l-102 -101v-324h148l161 168v-418l-168 166h-230v-915l128 -135h-490l162 135v830h-196l-139 -139l-23 21l155 145h203v58h-229l-168 -166v418l161 -168h236v353zM1135 1180v-432l-26 15v432zM956 878h-205v-838
l176 -217h-565l-25 27h534l-145 179v876h201z" />
    <glyph glyph-name="degree" unicode="&#xb0;" horiz-adv-x="621" 
d="M433 1344q53 -28 84.5 -82.5t31.5 -118.5q0 -99 -70 -171t-166 -72q-105 0 -176 71l8 6q75 -56 152 -56q93 0 159.5 67t66.5 161q0 112 -102 186zM258 1383q85 0 145 -60t60 -145t-60 -145t-145 -60t-145 60t-60 145t60 145t145 60zM258 1298q-49 0 -84.5 -35.5
t-35.5 -85.5q0 -49 35.5 -84.5t84.5 -35.5q51 0 86 35t35 85q0 51 -35 86t-86 35z" />
    <glyph glyph-name="cent" unicode="&#xa2;" horiz-adv-x="1201" 
d="M539 1338h76v-133q27 0 62 -8v106l25 -20v-92q33 -10 81 -31q57 -25 87 -25q36 0 61 27l9 -6q-83 -134 -130 -277h-11q0 93 -53 166t-131 86v-801h15q24 0 47 7v730q26 -5 59 -45v-13l-34 20v-685q50 18 88.5 73t46.5 122l4 36q4 33 30 33q34 0 34 -48q0 -81 -37.5 -152
t-97.5 -104q-56 -31 -155 -41v-162h-76v103l-16 5q-65 24 -112 57l-7 16q64 -38 135 -53v37q-154 25 -244.5 148.5t-90.5 308.5q0 191 93.5 325.5t241.5 156.5v133zM539 1047q-89 -63 -89 -280q0 -177 61 -330l8 -18v-8q-95 140 -95 342q0 251 115 325v50
q-164 -50 -164 -374q0 -164 39 -260t125 -143v696zM998 1117l-5 -9q-33 -59 -59 -113l-63 -134l-6 -12l-24 15q56 134 132 268zM975 562q0 -142 -72 -237t-201 -123v-175h-109l-20 25h104v174q120 17 195.5 107t75.5 217q0 7 -2 27z" />
    <glyph glyph-name="sterling" unicode="&#xa3;" horiz-adv-x="1229" 
d="M338 221l-14 -17q-90 59 -150 59q-72 0 -72 -55q0 -18 17 -47l-16 -5q-21 24 -21 51q0 33 26 55.5t65 22.5q90 0 165 -64zM1156 538q25 -100 25 -196q0 -292 -308 -292q-203 0 -413 151q-135 -139 -280 -139q-82 0 -141 49t-59 117q0 85 73.5 139t190.5 54q75 0 169 -35
l15 -6q2 22 2 38q0 101 -75 201h-238l-40 116h225q-72 120 -72 261q0 175 122 282.5t320 107.5q177 0 296 -89.5t161 -253.5l-249 -51v18q0 134 -65.5 213t-176.5 79q-98 0 -159.5 -48.5t-61.5 -126.5q0 -83 57 -226l57 -139l10 -27h254l41 -116h-266q4 -25 4 -50
q0 -128 -41 -222l44 -23q39 75 39 163l3 75v10h282l-55 163l34 -17l57 -171h-292v-26q0 -110 -43 -209q121 -70 249 -70q99 0 158 54.5t59 144.5q0 42 -14 97h102zM378 256q-103 72 -197 72q-60 0 -100.5 -29.5t-40.5 -73.5q0 -43 34 -69t92 -26q145 0 212 126zM1243 492
l1 -15q12 -99 12 -155q0 -159 -102 -251t-278 -92q-105 0 -185 24t-212 94l-13 7q-134 -114 -267 -114q-139 0 -198 132h5q82 -109 202 -109q63 0 134 35.5t117 90.5q225 -133 420 -133q167 0 258.5 85.5t91.5 240.5q0 73 -16 173zM141 547l-9 25h237l8 -25h-236zM842 1141
q-86 92 -195 92q-145 0 -145 -126q0 -67 46 -181q48 -121 63 -164l-18 -6q-117 266 -117 356q0 65 46.5 105.5t122.5 40.5q151 0 203 -117h-6zM903 924v25l277 55q-21 171 -210 313q69 -25 143 -112q69 -82 99 -221z" />
    <glyph glyph-name="section" unicode="&#xa7;" horiz-adv-x="1118" 
d="M922 1526l10 -4q-45 -60 -70 -121q-56 -133 -74 -158q-5 18 -8 26q-32 111 -91 160t-159 49q-95 0 -157.5 -51.5t-62.5 -128.5q0 -93 89 -152q-45 50 -45 110q0 77 56 124.5t146 47.5q127 0 177 -82l-7 -4q-78 61 -167 61q-77 0 -127 -43t-50 -109q0 -53 38.5 -95.5
t103.5 -61.5q265 -78 358.5 -151.5t93.5 -201.5q0 -191 -218 -266q164 -89 164 -261q0 -146 -111 -239.5t-286 -93.5q-104 0 -205 30l-82 24q-50 15 -87 15q-46 0 -103 -34l-7 13q103 152 148 294l15 -4q24 -209 219 -257q-125 66 -159 228l27 4q24 -113 88 -178t153 -65
q109 0 182.5 60.5t73.5 150.5q0 49 -58.5 85t-215.5 85q-208 66 -278.5 107.5t-81.5 105.5l32 -21q28 -60 184 -112l157 -52q176 -59 237 -106q-41 66 -95.5 95t-250.5 89q-172 52 -244.5 120t-72.5 178q0 100 63 167t173 85q-179 66 -179 259q0 139 102.5 221t277.5 82
q98 0 214 -36q53 -16 80 -16q42 0 90 28zM445 949q-111 -15 -160.5 -56t-49.5 -118q0 -100 125 -156q-74 58 -74 140q0 133 188 145l89 -19l13 -16q-64 11 -100 11q-70 0 -116 -36t-46 -90q0 -78 71 -133q47 -35 197 -77l54 -15q93 14 144 60t51 116q0 90 -89 142
q-51 30 -229 82q-23 7 -68 20zM887 443q136 -88 136 -244q0 -173 -139 -285t-356 -112q-81 0 -151 19l-114 30q-40 11 -86 11q-45 0 -78 -23l-12 29q39 23 83 23q43 0 100 -15l114 -29q68 -17 143 -17q204 0 335.5 106.5t131.5 271.5q0 133 -114 231l-26 17q194 118 194 284
q0 137 -127 229v5q156 -85 156 -235q0 -179 -190 -296zM1004 1490q-92 -152 -144 -284l-24 10q19 56 79 167q14 26 59 112l3 8z" />
    <glyph glyph-name="bullet" unicode="&#x2022;" horiz-adv-x="1365" 
d="M685 978q118 0 201 -83t83 -201t-83 -201t-201 -83t-201 83t-83 201t83 201t201 83z" />
    <glyph glyph-name="paragraph" unicode="&#xb6;" horiz-adv-x="1301" 
d="M499 -102v859l-20 1q-183 0 -285 74v26q108 -70 259 -70h27l19 -1v53q-230 0 -340.5 89t-110.5 273q0 101 48 179.5t130 112.5q86 35 273 35h753q-8 -11 -12 -17l-67 -89q-10 -13 -53 -92q-5 -10 -15 -28l-10 7q-22 64 -47 86q-53 47 -114 47q-7 0 -26 -5v-1540h-110
v1461h-107v-1543h-158l-22 27h154v1543h133v53h-184v-1541h-115zM1329 1479q-69 -63 -136 -194l-13 -25l-22 19l3 6q74 151 143 210l5 4zM1068 1324q-28 36 -65 36q-9 0 -16 -2l-3 -1v-1541h-157l-22 27h153v1543q17 1 24 1q66 0 86 -63z" />
    <glyph glyph-name="registered" unicode="&#xae;" horiz-adv-x="1605" 
d="M425 1048q144 78 306 78q127 0 209.5 -52.5t82.5 -133.5q0 -66 -54.5 -117.5t-147.5 -73.5q36 -104 100 -205.5t128 -156.5l6 -6l-8 -3q-88 -33 -163 -82l-8 -5l-3 17q-34 209 -98 366q-31 -15 -89 -23l-3 -1v-207l137 -140h-342l-23 27h311l-107 107v230l10 1
q59 8 98 26q-4 8 -4 10l-7 19q-1 2 -3 7q-32 -8 -69 -13l-71 -9l-6 -1v-254l67 -68h-265l79 68v177q-8 -2 -11 -3q-22 -6 -38 -12q-4 -2 -11 -5l-12 23q27 10 38 13l23 5q3 1 11 3v34q-32 0 -89 -15l-6 -2l1 7q1 4 11 30q2 6 8 26q1 1 2 5q27 -2 42 -2q17 0 27 1l3 1v280
q-28 17 -57 27zM607 1063v-308q23 0 52 9v267q31 8 73 8q107 0 145 -65q-65 44 -131 44q-35 0 -65 -7v-245q213 39 213 173q0 63 -51.5 104.5t-130.5 41.5q-63 0 -105 -22zM923 705q32 -107 102.5 -199t166.5 -153q-130 -36 -248 -110l-6 -4l-25 18q104 67 226 102
q-156 107 -247 352l-4 10q184 64 184 206q0 52 -48 118q68 -54 68 -139q0 -133 -169 -201zM1089 1162l-28 10q-149 54 -274 54q-510 0 -510 -537q0 -215 98 -337.5t318 -184.5l-16 -11q-246 74 -330 172q-101 119 -101 353q0 571 524 571q220 0 319 -90zM765 1378
q295 0 486.5 -191.5t191.5 -485.5q0 -290 -183 -463t-489 -173q-238 0 -426 122q-277 179 -277 533q0 302 189 480t508 178zM755 1306q-567 0 -567 -609q0 -273 147 -417.5t425 -144.5q274 0 415.5 149t141.5 437q0 161 -36 265.5t-117 181.5q-147 138 -409 138zM1166 1327
q171 -68 271 -235.5t100 -385.5q0 -323 -203 -521t-534 -198q-213 0 -400 115v5q158 -91 394 -91q317 0 516.5 190.5t199.5 494.5q0 209 -91.5 372.5t-252.5 242.5v11z" />
    <glyph glyph-name="copyright" unicode="&#xa9;" horiz-adv-x="1605" 
d="M1089 1162l-28 10q-149 54 -274 54q-510 0 -510 -537q0 -215 98 -337.5t318 -184.5l-16 -11q-246 74 -330 172q-101 119 -101 353q0 571 524 571q220 0 319 -90zM1067 1081l-7 -12q-59 -95 -101 -188l-7 -14l-8 4q-15 91 -69.5 144.5t-132.5 53.5q-100 0 -153.5 -90
t-53.5 -258q0 -170 64 -266.5t178 -96.5q187 0 210 217q2 25 22 25q25 0 25 -39q0 -115 -76 -184t-202 -69q-169 0 -268.5 109.5t-99.5 295.5q0 173 103 289.5t257 116.5q74 0 166 -33q48 -17 77 -17q38 0 65 17zM892 964q-59 41 -112 41q-160 0 -160 -289q0 -279 141 -336
v-11q-77 14 -123 108.5t-46 239.5q0 310 185 310q62 0 115 -51v-12zM1112 552q-10 -150 -90 -228t-223 -78q-112 0 -210 68v5q83 -51 201 -51q132 0 207.5 72.5t86.5 209.5l1 14zM1135 1039l-8 -11q-67 -105 -113 -204l-24 12l8 15q40 79 108 190l7 11zM765 1378
q295 0 486.5 -191.5t191.5 -485.5q0 -290 -183 -463t-489 -173q-238 0 -426 122q-277 179 -277 533q0 302 189 480t508 178zM755 1306q-567 0 -567 -609q0 -273 147 -417.5t425 -144.5q274 0 415.5 149t141.5 437q0 161 -36 265.5t-117 181.5q-147 138 -409 138zM1166 1327
q171 -68 271 -235.5t100 -385.5q0 -323 -203 -521t-534 -198q-213 0 -400 115v5q158 -91 394 -91q317 0 516.5 190.5t199.5 494.5q0 209 -91.5 372.5t-252.5 242.5v11z" />
    <glyph glyph-name="trademark" unicode="&#x2122;" horiz-adv-x="1793" 
d="M790 1365q-6 -10 -8 -13l-40 -68q-16 -27 -39 -90l-2 -3l-5 4l-2 7q-18 64 -50 89t-98 25l-54 -2h-7v-612l70 -61h-273l84 66v548h-12h-31q-55 0 -77.5 -21t-27.5 -76l-22 4l1 8q7 62 37 84.5t107 22.5l25 -1v35q-30 3 -51 3q-84 0 -117.5 -28t-38.5 -102h-8
q-23 72 -80 175l-3 6h722zM842 1321q-47 -56 -87 -164l-2 -6l-21 15l2 5q46 117 86 162l3 4zM667 1234q-39 28 -84 28q-18 0 -39 -1v-567l98 -107h-307l-20 20h287l-80 86v588q24 1 34 1q53 0 75.5 -9.5t35.5 -38.5zM1640 1365l-82 -78v-580l74 -66h-276l83 66v366
l-176 -486h-58l-11 20h52l193 521v94l-223 -580h-42l-157 436v-279q0 -89 33 -126l23 -24l59 -62h-321l-18 20h296l-29 34h-268l12 7q69 37 89 70.5t20 109.5v467l-79 70h311l-87 -74l169 -472l22 56l-147 408l79 54l19 -14l-75 -49l136 -369l148 386l-73 74h304zM961 1232
v-405q0 -93 19 -128t78 -51l-5 8q-58 40 -58 111v41v334zM1688 1313l-68 -46v-568l104 -112h-318l-15 20h290l-83 89v585l70 46z" />
    <glyph glyph-name="acute" unicode="&#xb4;" 
d="M795 1764l-244 -198h-106l147 198h203zM489 1482l-24 28h123l246 199l19 -24l-251 -203h-113z" />
    <glyph glyph-name="dieresis" unicode="&#xa8;" 
d="M644 1765q40 0 68 -28t28 -68t-28 -68t-68 -28t-68 28t-28 68t28 68t68 28zM768 1722q56 -25 56 -99q0 -54 -35.5 -90.5t-88.5 -36.5q-59 0 -94 47v7q47 -34 81 -34q49 0 84 34.5t35 83.5q0 39 -38 88zM423 1722q56 -26 56 -99q0 -54 -36 -90.5t-88 -36.5q-59 0 -94 47v7
q47 -34 81 -34q49 0 84 34.5t35 83.5q0 39 -38 88zM296 1765q40 0 68 -28t28 -68t-28 -68t-68 -28t-68 28t-28 68t28 68t68 28z" />
    <glyph glyph-name="notequal" unicode="&#x2260;" 
d="M552 937l121 258l106 -49l-98 -209h310v-114h-363l-86 -185h450v-114h-503l-127 -272l-106 50l104 222h-326v114h379l86 185h-466v114h519z" />
    <glyph glyph-name="AE" unicode="&#xc6;" horiz-adv-x="2062" 
d="M1901 1365q-118 -152 -172 -298q-4 10 -6 16q-47 119 -95 154.5t-163 35.5h-91h-193v-444h62v393q53 3 109 3q165 0 229 -20.5t101 -84.5q-9 6 -14 9q-64 45 -120.5 56t-215.5 11l-62 -1v-366h200l130 181v-460l-139 188h-280v-568h62v516h218l26 -26h-217v-490l13 1
l158 -3l81 4q131 14 197 66t91 161q49 -150 105 -232l37 -55q5 -8 20 -30h-1146l167 145v226l-117 -147l-11 29l128 158v92l-167 -213q-30 32 -95 114q-47 59 -86 98l-7 7l-98 -154q-71 -111 -71 -197q0 -57 25 -97.5t116 -131.5l11 -11h-601l-15 27h567l-55 55h-551
q103 38 205 144.5t237 316.5l100 154q-51 29 -91 38l-32 7q-3 1 -11 3l101 148q7 -8 9 -10l24 -27q20 -22 39 -38l20 -17q2 -2 9 -8l25 36q-7 6 -8 8l-37 42l-42 49l-6 8l13 27l10 -10l38 -42l46 -47l6 -6l244 373l-154 134h1190zM619 607q-19 21 -43 40l-89 -134
q-99 -149 -99 -250q0 -106 116 -163q-62 57 -62 133q0 108 99 257zM994 1125l-252 -376l143 -158l109 126v408zM994 1268l-360 -533l193 -209l39 45l-158 177l286 427v93zM1937 1321l9 -21q-83 -94 -158 -259l-5 -10l-15 16q68 173 169 274zM1671 976v-469l-26 13v469z
M2083 85l-51 -85h-1143l-12 27h1142l31 50l-5 6q-128 163 -159 298l32 -10l3 -8l37 -86q30 -66 65 -113l51 -67q2 -3 9 -12z" />
    <glyph glyph-name="AE" unicode="&#xe6;" horiz-adv-x="2062" 
d="M1901 1365q-118 -152 -172 -298q-4 10 -6 16q-47 119 -95 154.5t-163 35.5h-91h-193v-444h62v393q53 3 109 3q165 0 229 -20.5t101 -84.5q-9 6 -14 9q-64 45 -120.5 56t-215.5 11l-62 -1v-366h200l130 181v-460l-139 188h-280v-568h62v516h218l26 -26h-217v-490l13 1
l158 -3l81 4q131 14 197 66t91 161q49 -150 105 -232l37 -55q5 -8 20 -30h-1146l167 145v226l-117 -147l-11 29l128 158v92l-167 -213q-30 32 -95 114q-47 59 -86 98l-7 7l-98 -154q-71 -111 -71 -197q0 -57 25 -97.5t116 -131.5l11 -11h-601l-15 27h567l-55 55h-551
q103 38 205 144.5t237 316.5l100 154q-51 29 -91 38l-32 7q-3 1 -11 3l101 148q7 -8 9 -10l24 -27q20 -22 39 -38l20 -17q2 -2 9 -8l25 36q-7 6 -8 8l-37 42l-42 49l-6 8l13 27l10 -10l38 -42l46 -47l6 -6l244 373l-154 134h1190zM619 607q-19 21 -43 40l-89 -134
q-99 -149 -99 -250q0 -106 116 -163q-62 57 -62 133q0 108 99 257zM994 1125l-252 -376l143 -158l109 126v408zM994 1268l-360 -533l193 -209l39 45l-158 177l286 427v93zM1937 1321l9 -21q-83 -94 -158 -259l-5 -10l-15 16q68 173 169 274zM1671 976v-469l-26 13v469z
M2083 85l-51 -85h-1143l-12 27h1142l31 50l-5 6q-128 163 -159 298l32 -10l3 -8l37 -86q30 -66 65 -113l51 -67q2 -3 9 -12z" />
    <glyph glyph-name="Oslash" unicode="&#xd8;" horiz-adv-x="1280" 
d="M1014 1377l-75 -130q87 -73 142.5 -226t55.5 -320q0 -287 -143 -461.5t-379 -174.5q-179 0 -318 103l-64 -105h-95l95 157q-186 181 -186 508q0 290 152 470.5t397 180.5q160 0 279 -78l43 76h96zM891 1005l-440 -735q31 -48 75 -82l-10 -11q-62 42 -95 93l461 778
q-7 29 -23 69l-501 -847q86 -121 244 -121q154 0 233.5 143.5t79.5 421.5q0 161 -24 291zM787 1156q-61 51 -154 51q-274 0 -274 -519q0 -135 19 -224zM813 1196q-79 98 -215 98q-332 0 -332 -588q0 -242 48 -349l41 70l-2 14q-23 134 -23 245q0 546 294 546q93 0 172 -64z
M1068 1358l19 -22l-53 -89q198 -197 198 -553q0 -311 -167 -508.5t-430 -197.5q-152 0 -295 97l-63 -109h-190l17 28h157l61 103q168 -91 302 -91q259 0 420.5 190t161.5 494q0 171 -54 316t-149 231z" />
    <glyph glyph-name="Oslash" unicode="&#xf8;" horiz-adv-x="1280" 
d="M1014 1377l-75 -130q87 -73 142.5 -226t55.5 -320q0 -287 -143 -461.5t-379 -174.5q-179 0 -318 103l-64 -105h-95l95 157q-186 181 -186 508q0 290 152 470.5t397 180.5q160 0 279 -78l43 76h96zM891 1005l-440 -735q31 -48 75 -82l-10 -11q-62 42 -95 93l461 778
q-7 29 -23 69l-501 -847q86 -121 244 -121q154 0 233.5 143.5t79.5 421.5q0 161 -24 291zM787 1156q-61 51 -154 51q-274 0 -274 -519q0 -135 19 -224zM813 1196q-79 98 -215 98q-332 0 -332 -588q0 -242 48 -349l41 70l-2 14q-23 134 -23 245q0 546 294 546q93 0 172 -64z
M1068 1358l19 -22l-53 -89q198 -197 198 -553q0 -311 -167 -508.5t-430 -197.5q-152 0 -295 97l-63 -109h-190l17 28h157l61 103q168 -91 302 -91q259 0 420.5 190t161.5 494q0 171 -54 316t-149 231z" />
    <glyph glyph-name="infinity" unicode="&#x221e;" horiz-adv-x="1365" 
d="M623 554q-82 -125 -149.5 -173.5t-158.5 -48.5q-129 0 -219 98t-90 238q0 165 99.5 276t247.5 111q197 0 349 -245q14 23 21 34q77 124 141.5 168.5t166.5 44.5q139 0 233.5 -106t94.5 -262q0 -162 -108 -271.5t-267 -109.5q-100 0 -195 65t-166 181zM738 758
q93 -151 179 -218t185 -67q85 0 143 62t58 153q0 99 -74.5 155t-206.5 56q-192 0 -284 -141zM579 617q-96 153 -167 211.5t-159 58.5q-85 0 -138.5 -57.5t-53.5 -149.5q0 -90 69 -142t189 -52q91 0 149.5 29.5t110.5 101.5z" />
    <glyph glyph-name="plusminus" unicode="&#xb1;" horiz-adv-x="1202" 
d="M153 267h523v347h350v124l23 -22v-130h-345v-319h264v-125h-815v125zM497 1149h125v-356h54v300l28 -17v-283h264v-125h-346v-334h-125v252h-293l-18 28h311v54h-344v125h344v356zM1026 212l23 -22v-130h-844l-18 28h839v124z" />
    <glyph glyph-name="lessequal" unicode="&#x2264;" 
d="M940 1281v-101l-582 -375l582 -391v-269l-855 578v15zM85 91h855v-91h-855v91z" />
    <glyph glyph-name="greaterequal" unicode="&#x2265;" 
d="M85 91h855v-91h-855v91zM85 145v101l582 375l-582 391v269l855 -583v-16z" />
    <glyph glyph-name="yen" unicode="&#xa5;" horiz-adv-x="1229" 
d="M1273 1365l-231 -131l-264 -436h62l249 397l214 129l15 -27l-215 -128l-232 -371h51l44 -116h-259l-41 -71v-56h57v56l19 29h287l-44 126l32 -15l51 -140h-310l-7 -9v-47h171l44 -112h-300v-230l146 -123h-487l141 123v159h-199l-8 24h207v47h-249l-39 112h288v56h-207
l-9 29h205l-29 42h-209l-46 116h181l-147 227l-29 42l-63 105q-80 125 -201 193h504l-122 -131l335 -500l29 49l-294 451l88 96l20 -15l-76 -81l278 -423l266 423l-128 131h461zM1067 372h-316v-159l171 -213h-551l-10 27h511l-149 186v183h313l-43 126l26 -18z" />
    <glyph glyph-name="mu" unicode="&#xb5;" horiz-adv-x="944" 
d="M978 108v-36l-211 -93q-4 -2 -9 -2q-73 0 -101 118q-3 13 -10 40q-103 -103 -157.5 -134.5t-130.5 -31.5q-161 0 -224 177l-1 -43q0 -107 44 -288q16 -66 16 -104q0 -45 -29 -75t-72 -30q-45 0 -73.5 29.5t-28.5 75.5q0 44 16 128q60 314 60 698v400h203v-588
q0 -147 36 -209t120 -62q108 0 209 139v720h201v-683q0 -97 16.5 -130t64.5 -33q28 0 61 17z" />
    <glyph glyph-name="partialdiff" unicode="&#x2202;" 
d="M289 1380l20 37q218 -83 368 -239q122 -127 206.5 -332.5t84.5 -374.5q0 -221 -129.5 -361.5t-332.5 -140.5q-193 0 -321 138.5t-128 347.5q0 200 128 337.5t315 137.5q76 0 123.5 -20t105.5 -75q6 -6 20 -19q-73 205 -179 335t-281 229zM512 875q-72 0 -130 -54
q-48 -46 -82 -154t-34 -215q0 -104 29.5 -209.5t72.5 -151.5q62 -68 139 -68q108 0 179.5 122t71.5 307q0 198 -65.5 310.5t-180.5 112.5z" />
    <glyph glyph-name="summation" unicode="&#x2211;" horiz-adv-x="1365" 
d="M98 1365h1094v-343h-40q-19 155 -93 218t-240 63h-447l408 -753l-498 -897h536q185 0 281 73t137 246h40l-68 -450h-1110l511 918z" />
    <glyph glyph-name="product" unicode="&#x220f;" horiz-adv-x="1365" 
d="M-15 1365h1395v-40h-46q-87 0 -111.5 -29.5t-24.5 -133.5v-1437q0 -103 24 -133t107 -30h49v-40h-601v40h44q88 0 112.5 29.5t24.5 133.5v1437q0 104 -24.5 133.5t-112.5 29.5h-274q-87 0 -111.5 -29.5t-24.5 -133.5v-1437q0 -103 24.5 -133t106.5 -30h50v-40h-601v40h44
q87 0 111.5 29.5t24.5 133.5v1437q0 104 -24.5 133.5t-111.5 29.5h-50v40z" />
    <glyph glyph-name="pi" unicode="&#x3c0;" 
d="M1139 965v-138h-281l-15 -37q-43 -109 -43 -190v-324q0 -109 17 -147t66 -38q15 0 63 11q11 3 34 7v-39l-265 -90q-20 -7 -26 -7q-33 0 -73 66q-32 52 -32 141v313q0 110 43 178l52 75l34 54q5 7 23 27h-341l-5 -225q0 -77 -18.5 -242.5t-38.5 -257.5q-30 -144 -114 -144
q-40 0 -68 29.5t-28 72.5t25 93l22 43q46 90 81.5 280.5t35.5 349.5q-108 0 -173 -34t-142 -133l-30 30l132 191q59 85 198 85h867z" />
    <glyph glyph-name="integral" unicode="&#x222b;" horiz-adv-x="1025" 
d="M632 1036v-1026q0 -165 -12 -238.5t-49 -137.5q-98 -165 -313 -165q-127 0 -211.5 65.5t-84.5 163.5q0 57 38 96.5t92 39.5q53 0 91 -34.5t38 -82.5q0 -33 -18 -61q-20 -31 -20 -52q0 -24 20 -41.5t50 -17.5q64 0 101.5 78.5t37.5 213.5v1080q0 170 12 244t49 138
q98 165 308 165q130 0 215.5 -64.5t85.5 -161.5q0 -60 -37.5 -100t-92.5 -40q-53 0 -91 35t-38 83q0 33 18 61q20 30 20 49q0 62 -69 62q-115 0 -133 -224l-5 -65q-2 -26 -2 -63z" />
    <glyph glyph-name="ordfeminine" unicode="&#xaa;" horiz-adv-x="800" 
d="M136 1186q-32 61 -77 113q40 7 98 32q95 41 186 41q136 0 197 -51t61 -166v-361l49 -70h-161q-79 -77 -182 -77q-52 0 -116 31q48 -18 91 -18q106 0 188 86v85q-57 -66 -104 -91t-112 -25q-90 0 -148 53.5t-58 135.5q0 86 78 136q54 35 254 51q105 8 105 93q0 35 -16 67
q-35 10 -78 10q-114 0 -191 -122l-21 13q78 125 202 125q45 0 81 -17q-42 49 -135 49q-114 0 -191 -123zM478 1078q-46 -38 -138 -47q-156 -15 -156 -131q0 -52 37 -88q-9 28 -9 50q0 117 156 133q71 6 109 25v18zM477 990q-44 -12 -89 -16q-156 -14 -156 -134q0 -19 7 -39
q31 -11 53 -11q81 0 133 56.5t52 143.5zM752 649h-204l-28 20h205l-69 97v362q0 63 -12 95t-49 68q50 -30 69 -70t19 -113v-362zM692 601v-84h-644v84h644zM750 545l23 -22v-89h-674l-17 28h668v83z" />
    <glyph glyph-name="ordmasculine" unicode="&#xba;" horiz-adv-x="829" 
d="M383 1372q148 0 235.5 -92.5t87.5 -248.5q0 -143 -87.5 -229t-232.5 -86q-149 0 -243.5 91.5t-94.5 235.5q0 151 91 240t244 89zM285 802q46 -23 95 -23q179 0 179 275q0 106 -30 172q-45 22 -84 22q-193 0 -193 -275q0 -103 33 -171zM273 810q-41 71 -41 184
q0 274 193 274q55 0 99 -31q-52 72 -140 72q-193 0 -193 -276q0 -165 82 -223zM171 726l7 7q86 -71 209 -71q166 0 270 100t104 260q0 78 -23.5 147t-55.5 89l-7 3l7 7q99 -88 99 -256t-102 -269t-272 -101q-137 0 -236 84zM707 601v-84h-645v84h645zM764 545l23 -22v-89
h-674l-17 28h668v83z" />
    <glyph glyph-name="Omega" unicode="&#x2126;" horiz-adv-x="1365" 
d="M1428 280l-78 -280h-585v126q153 84 226 181q132 179 132 439q0 255 -122.5 414.5t-317.5 159.5q-208 0 -324 -166q-117 -166 -117 -399q0 -256 129 -440q76 -108 230 -189v-126h-587l-78 280h42q27 -78 71 -110.5t129 -36.5l65 -3l224 -10v14q-180 65 -275 149
q-218 191 -218 466q0 251 196 446q191 192 514 192q349 0 544 -220q163 -183 163 -410q0 -292 -226 -481q-91 -76 -266 -142v-13l243 10l66 3q72 5 111.5 37.5t67.5 108.5h41z" />
    <glyph glyph-name="questiondown" unicode="&#xbf;" horiz-adv-x="889" 
d="M574 786q70 -57 70 -150t-53 -195q-29 -55 -159 -193l-41 -44q-75 -80 -75 -152q0 -58 40 -137l-35 30q-32 51 -32 106q0 57 26.5 103.5t97.5 116.5q115 113 161 198.5t46 187.5q0 92 -76 135l7 10q43 71 43 110q0 44 -40 103l8 8q57 -53 57 -112q0 -46 -45 -125z
M704 269q73 -89 73 -187q0 -127 -100.5 -207t-259.5 -80q-164 0 -273.5 89t-109.5 222q0 93 46 163t157 145l106 71q52 35 93 91t38 89l-4 55q-1 14 9 25q10 10 24 9q24 -1 42 -33.5t18 -72.5q0 -137 -152 -292q-100 -103 -134.5 -162t-34.5 -129q0 -85 50 -137.5t131 -52.5
q70 0 120 43.5t50 104.5q0 66 -83 114q10 6 11 7l54 31q57 33 129 94zM399 1065q54 0 92 -38t38 -91q0 -54 -38 -92t-92 -38q-53 0 -91 38t-38 92q0 53 38 91t91 38zM449 725q-87 8 -130 59l6 8q56 -33 117 -38zM780 265q89 -78 89 -205q0 -145 -125.5 -246t-304.5 -101
q-224 0 -365 162l7 12q150 -146 347 -146q178 0 295.5 94.5t117.5 238.5q0 53 -15 86l-42 95z" />
    <glyph glyph-name="exclamdown" unicode="&#xa1;" horiz-adv-x="635" 
d="M245 673h34q-1 -17 -1 -20q0 -178 56.5 -360.5t146.5 -290.5q-97 -43 -142 -92.5t-83 -155.5q-27 110 -69.5 165.5t-131.5 97.5l11 17q93 147 131 279t48 345v15zM580 -49l-18 -9q-91 -48 -140 -94.5t-93 -128.5l-32 -15q45 151 235 256q-84 117 -135 292.5t-51 348.5h28
l1 -10q12 -212 54 -348t142 -278zM263 1065q53 0 91 -38t38 -91q0 -54 -38 -92t-91 -38q-54 0 -92 38t-38 92q0 53 38 91t92 38zM425 1023q56 -52 56 -128q0 -68 -50.5 -119t-118.5 -51q-81 0 -130 59l6 8q65 -38 117 -38q62 0 107 43t45 104q0 56 -40 114z" />
    <glyph glyph-name="logicalnot" unicode="&#xac;" 
d="M701 0v436h-634v110h889v-546h-255z" />
    <glyph glyph-name="radical" unicode="&#x221a;" horiz-adv-x="1365" 
d="M1331 1686v-66h-235l-379 -1620h-218l-175 727h-290v66h468l161 -690l372 1583h296z" />
    <glyph glyph-name="florin" unicode="&#x192;" horiz-adv-x="1229" 
d="M822 986l43 -116h-268l-129 -675q-32 -168 -57 -233t-80 -124q-109 -115 -282 -115q-150 0 -282 100.5t-153 229.5q55 21 122 60l96 58l15 8q-7 -56 -7 -92q0 -113 57 -187.5t142 -74.5q94 0 147.5 83t92.5 289l8 45l124 628h-184l-40 116h247q50 231 182 370.5
t300 139.5q117 0 214.5 -63.5t130.5 -159.5q-88 -37 -177 -107q-30 247 -192 247q-101 0 -173.5 -112.5t-100.5 -314.5h64q47 377 224 377q44 0 85 -35.5t59 -90.5q-11 11 -13 14l-33 37q-46 51 -101 51q-70 0 -122 -94t-74 -259h115zM904 971l60 -172h-295l-121 -624
q-33 -172 -64.5 -249t-92.5 -138q-122 -120 -317 -120q-151 0 -237 55l6 12q107 -46 218 -46q198 0 315 120q57 59 86 131t61 239l126 647h280l-56 160zM1261 1366q68 -45 115 -129q-179 -69 -255 -140l-8 22q86 78 230 129q-30 58 -82 107v11zM-60 150q-13 -46 -13 -91
q0 -62 26.5 -117.5t67.5 -81.5l7 -4v-14q-127 64 -127 217q0 56 17 96zM243 826h137v-27h-129z" />
    <glyph glyph-name="approxequal" unicode="&#x2248;" 
d="M930 1008l43 -23q-60 -98 -141 -154t-163 -56q-49 0 -128 24l-64 20q-132 40 -194 40q-52 0 -85 -17t-85 -71q-7 -6 -20 -19l-42 23q143 212 305 212q61 0 195 -43q121 -38 177 -38q113 0 202 102zM930 679l43 -23q-60 -98 -141 -154t-163 -56q-52 0 -192 44
q-129 40 -194 40q-52 0 -85 -17t-85 -71q-7 -6 -20 -20l-42 24q143 212 305 212q62 0 195 -43q120 -38 177 -38q112 0 202 102z" />
    <glyph glyph-name="Delta" unicode="&#x2206;" horiz-adv-x="1365" 
d="M742 1394l629 -1394h-1376l626 1394h121zM613 1161l-390 -873q-28 -63 -28 -90q0 -34 21.5 -47.5t77.5 -13.5h764z" />
    <glyph glyph-name="guillemotleft" unicode="&#xab;" horiz-adv-x="619" 
d="M241 677l167 278h86l-109 -278l109 -275h-94zM440 639l110 270l21 -27l-99 -241l126 -314h-129l-32 25h117zM34 677l167 278h86l-109 -278l109 -275h-94zM232 639l159 -312h-130l-31 25h116z" />
    <glyph glyph-name="guillemotright" unicode="&#xbb;" horiz-adv-x="626" 
d="M303 669l-163 -272h-94l108 289l-108 266h94zM91 323l-12 29h95l32 53l13 -36l-27 -46h-101zM507 669l-164 -272h-93l108 289l-108 266h93zM588 652l-192 -329h-102l-11 29h95l178 300l-158 276l48 -35z" />
    <glyph glyph-name="ellipsis" unicode="&#x2026;" horiz-adv-x="1638" 
d="M228 326q54 0 92 -38t38 -92q0 -53 -38 -91t-92 -38q-53 0 -91 38t-38 91q0 54 38 92t91 38zM392 284q55 -51 55 -128q0 -68 -50.5 -119t-117.5 -51q-81 0 -131 60l7 7q64 -38 116 -38q63 0 107.5 43.5t44.5 103.5q0 57 -40 115zM775 326q53 0 91 -38t38 -92
q0 -53 -38 -91t-91 -38q-54 0 -92 38t-38 91q0 54 38 92t92 38zM938 284q56 -51 56 -128q0 -68 -51 -119t-118 -51q-81 0 -131 60l7 7q64 -38 117 -38q62 0 107 43.5t45 103.5q0 57 -40 115zM1321 326q53 0 91 -38t38 -92q0 -53 -38 -91t-91 -38q-54 0 -92 38t-38 91
q0 54 38 92t92 38zM1484 284q56 -52 56 -128q0 -68 -51 -119t-118 -51q-80 0 -131 60l7 7q64 -38 117 -38q62 0 107 43.5t45 103.5q0 57 -40 115z" />
    <glyph glyph-name="Agrave" unicode="&#xc0;" horiz-adv-x="1550" 
d="M967 1365l-104 -118l164 -436l40 22l-148 394l106 122l26 -11l-101 -117l140 -373q12 9 14 11l33 28q30 24 38 34q26 -114 80 -204q-29 2 -42 2q-95 0 -139 -30l181 -491l150 -116h-505l138 116l-111 292q-110 -111 -169 -211l-23 6q59 98 176 219l8 10l-19 44
q-119 -99 -197 -230l-18 29q-52 83 -133 189l-10 12q-77 -171 -77 -278q0 -63 21.5 -106.5t103.5 -145.5q7 -9 22 -28h-540l-20 27h509l-17 21q-66 80 -86.5 124.5t-20.5 104.5q0 102 83 304l-44 46q-13 -32 -33 -94l-33 -102q-27 -82 -27 -136q0 -56 19 -93t80 -101
q6 -6 18 -19h-500q143 74 226.5 199t165.5 386l4 14q-53 45 -153 55q55 82 85 171q14 -13 17 -16l45 -42q23 -22 55 -45l18 44l-12 10q-50 44 -84 71l-9 7l16 22q53 -35 102 -81l136 374l-106 114h461zM720 1044l-110 -290q9 -10 10 -12l41 -46q33 -36 84 -112l10 -15
q43 54 102 107zM675 1160l-159 -420q76 -78 131 -154l46 -64q1 -1 10 -13q9 9 10 11l14 17q3 4 11 13q-70 108 -163 195l128 338zM1263 873q22 -90 110 -247q-22 3 -25 3l-81 7q-55 5 -80 5q-4 0 -20 -1l167 -443l223 -197h-579l-19 27h531l-180 159l-178 471q34 9 78 9
q54 0 120 -9l-12 22q-64 118 -86 213zM657 1762l138 -192h-117l-229 192h208zM928 1502h-168l-28 25h139l-125 174l43 -9z" />
    <glyph glyph-name="Agrave" unicode="&#xe0;" horiz-adv-x="1550" 
d="M967 1365l-104 -118l164 -436l40 22l-148 394l106 122l26 -11l-101 -117l140 -373q12 9 14 11l33 28q30 24 38 34q26 -114 80 -204q-29 2 -42 2q-95 0 -139 -30l181 -491l150 -116h-505l138 116l-111 292q-110 -111 -169 -211l-23 6q59 98 176 219l8 10l-19 44
q-119 -99 -197 -230l-18 29q-52 83 -133 189l-10 12q-77 -171 -77 -278q0 -63 21.5 -106.5t103.5 -145.5q7 -9 22 -28h-540l-20 27h509l-17 21q-66 80 -86.5 124.5t-20.5 104.5q0 102 83 304l-44 46q-13 -32 -33 -94l-33 -102q-27 -82 -27 -136q0 -56 19 -93t80 -101
q6 -6 18 -19h-500q143 74 226.5 199t165.5 386l4 14q-53 45 -153 55q55 82 85 171q14 -13 17 -16l45 -42q23 -22 55 -45l18 44l-12 10q-50 44 -84 71l-9 7l16 22q53 -35 102 -81l136 374l-106 114h461zM720 1044l-110 -290q9 -10 10 -12l41 -46q33 -36 84 -112l10 -15
q43 54 102 107zM675 1160l-159 -420q76 -78 131 -154l46 -64q1 -1 10 -13q9 9 10 11l14 17q3 4 11 13q-70 108 -163 195l128 338zM1263 873q22 -90 110 -247q-22 3 -25 3l-81 7q-55 5 -80 5q-4 0 -20 -1l167 -443l223 -197h-579l-19 27h531l-180 159l-178 471q34 9 78 9
q54 0 120 -9l-12 22q-64 118 -86 213zM657 1762l138 -192h-117l-229 192h208zM928 1502h-168l-28 25h139l-125 174l43 -9z" />
    <glyph glyph-name="Atilde" unicode="&#xc3;" horiz-adv-x="1550" 
d="M967 1365l-104 -118l164 -436l40 22l-148 394l106 122l26 -11l-101 -117l140 -373q12 9 14 11l33 28q30 24 38 34q26 -114 80 -204q-29 2 -42 2q-95 0 -139 -30l181 -491l150 -116h-505l138 116l-111 292q-110 -111 -169 -211l-23 6q59 98 176 219l8 10l-19 44
q-119 -99 -197 -230l-18 29q-52 83 -133 189l-10 12q-77 -171 -77 -278q0 -63 21.5 -106.5t103.5 -145.5q7 -9 22 -28h-540l-20 27h509l-17 21q-66 80 -86.5 124.5t-20.5 104.5q0 102 83 304l-44 46q-13 -32 -33 -94l-33 -102q-27 -82 -27 -136q0 -56 19 -93t80 -101
q6 -6 18 -19h-500q143 74 226.5 199t165.5 386l4 14q-53 45 -153 55q55 82 85 171q14 -13 17 -16l45 -42q23 -22 55 -45l18 44l-12 10q-50 44 -84 71l-9 7l16 22q53 -35 102 -81l136 374l-106 114h461zM720 1044l-110 -290q9 -10 10 -12l41 -46q33 -36 84 -112l10 -15
q43 54 102 107zM675 1160l-159 -420q76 -78 131 -154l46 -64q1 -1 10 -13q9 9 10 11l14 17q3 4 11 13q-70 108 -163 195l128 338zM1263 873q22 -90 110 -247q-22 3 -25 3l-81 7q-55 5 -80 5q-4 0 -20 -1l167 -443l223 -197h-579l-19 27h531l-180 159l-178 471q34 9 78 9
q54 0 120 -9l-12 22q-64 118 -86 213zM1028 1762q2 -19 2 -26q0 -72 -45.5 -122.5t-109.5 -50.5q-71 0 -187 58q-67 34 -96 34q-65 0 -76 -78h-70q0 86 52 144t129 58q66 0 190 -73q48 -29 76 -29q27 0 45 20.5t18 49.5q0 5 -1 15h73zM1084 1734l21 -18q0 -91 -53 -153
t-130 -62q-50 0 -114 30l12 13q57 -21 97 -21q148 0 166 199zM600 1607v-30q-21 -29 -29 -74h-80l-16 23h79q11 56 46 81z" />
    <glyph glyph-name="Atilde" unicode="&#xe3;" horiz-adv-x="1550" 
d="M967 1365l-104 -118l164 -436l40 22l-148 394l106 122l26 -11l-101 -117l140 -373q12 9 14 11l33 28q30 24 38 34q26 -114 80 -204q-29 2 -42 2q-95 0 -139 -30l181 -491l150 -116h-505l138 116l-111 292q-110 -111 -169 -211l-23 6q59 98 176 219l8 10l-19 44
q-119 -99 -197 -230l-18 29q-52 83 -133 189l-10 12q-77 -171 -77 -278q0 -63 21.5 -106.5t103.5 -145.5q7 -9 22 -28h-540l-20 27h509l-17 21q-66 80 -86.5 124.5t-20.5 104.5q0 102 83 304l-44 46q-13 -32 -33 -94l-33 -102q-27 -82 -27 -136q0 -56 19 -93t80 -101
q6 -6 18 -19h-500q143 74 226.5 199t165.5 386l4 14q-53 45 -153 55q55 82 85 171q14 -13 17 -16l45 -42q23 -22 55 -45l18 44l-12 10q-50 44 -84 71l-9 7l16 22q53 -35 102 -81l136 374l-106 114h461zM720 1044l-110 -290q9 -10 10 -12l41 -46q33 -36 84 -112l10 -15
q43 54 102 107zM675 1160l-159 -420q76 -78 131 -154l46 -64q1 -1 10 -13q9 9 10 11l14 17q3 4 11 13q-70 108 -163 195l128 338zM1263 873q22 -90 110 -247q-22 3 -25 3l-81 7q-55 5 -80 5q-4 0 -20 -1l167 -443l223 -197h-579l-19 27h531l-180 159l-178 471q34 9 78 9
q54 0 120 -9l-12 22q-64 118 -86 213zM1028 1762q2 -19 2 -26q0 -72 -45.5 -122.5t-109.5 -50.5q-71 0 -187 58q-67 34 -96 34q-65 0 -76 -78h-70q0 86 52 144t129 58q66 0 190 -73q48 -29 76 -29q27 0 45 20.5t18 49.5q0 5 -1 15h73zM1084 1734l21 -18q0 -91 -53 -153
t-130 -62q-50 0 -114 30l12 13q57 -21 97 -21q148 0 166 199zM600 1607v-30q-21 -29 -29 -74h-80l-16 23h79q11 56 46 81z" />
    <glyph glyph-name="Otilde" unicode="&#xd5;" horiz-adv-x="1278" 
d="M816 1142l-17 10q-96 53 -176 53q-263 0 -263 -517q0 -378 163 -501l-9 -10q-100 71 -142.5 186.5t-42.5 312.5q0 555 292 555q133 0 195 -89zM602 1378q243 0 388.5 -184t145.5 -492q0 -291 -143.5 -464t-385.5 -173q-191 0 -340 122q-219 180 -219 533q0 302 150 480
t404 178zM602 1292q-338 0 -338 -594q0 -549 333 -549q155 0 236 145.5t81 425.5q0 317 -78 442q-82 130 -234 130zM921 1327q143 -69 226 -236t83 -386q0 -322 -163.5 -520t-429.5 -198q-170 0 -318 115v5q124 -91 311 -91q251 0 412 189t161 483q0 219 -73.5 383
t-208.5 245v11zM891 1762q2 -19 2 -26q0 -72 -45.5 -122.5t-109.5 -50.5q-71 0 -187 58q-67 34 -96 34q-65 0 -76 -78h-70q0 86 52 144t129 58q66 0 190 -73q48 -29 76 -29q27 0 45 20.5t18 49.5q0 5 -1 15h73zM947 1734l21 -18q0 -91 -53 -153t-130 -62q-51 0 -114 30
l12 13q57 -21 97 -21q148 0 166 199zM463 1607v-30q-21 -29 -29 -74h-80l-16 23h79q11 56 46 81z" />
    <glyph glyph-name="Otilde" unicode="&#xf5;" horiz-adv-x="1278" 
d="M816 1142l-17 10q-96 53 -176 53q-263 0 -263 -517q0 -378 163 -501l-9 -10q-100 71 -142.5 186.5t-42.5 312.5q0 555 292 555q133 0 195 -89zM602 1378q243 0 388.5 -184t145.5 -492q0 -291 -143.5 -464t-385.5 -173q-191 0 -340 122q-219 180 -219 533q0 302 150 480
t404 178zM602 1292q-338 0 -338 -594q0 -549 333 -549q155 0 236 145.5t81 425.5q0 317 -78 442q-82 130 -234 130zM921 1327q143 -69 226 -236t83 -386q0 -322 -163.5 -520t-429.5 -198q-170 0 -318 115v5q124 -91 311 -91q251 0 412 189t161 483q0 219 -73.5 383
t-208.5 245v11zM891 1762q2 -19 2 -26q0 -72 -45.5 -122.5t-109.5 -50.5q-71 0 -187 58q-67 34 -96 34q-65 0 -76 -78h-70q0 86 52 144t129 58q66 0 190 -73q48 -29 76 -29q27 0 45 20.5t18 49.5q0 5 -1 15h73zM947 1734l21 -18q0 -91 -53 -153t-130 -62q-51 0 -114 30
l12 13q57 -21 97 -21q148 0 166 199zM463 1607v-30q-21 -29 -29 -74h-80l-16 23h79q11 56 46 81z" />
    <glyph glyph-name="OE" unicode="&#x152;" horiz-adv-x="1951" 
d="M757 0l-7 -1q-76 -16 -124 -16q-161 0 -307 114v5q126 -91 322 -91q54 0 92 9l27 6l8 1h1138l34 63q-144 133 -202 284l31 -12q55 -128 187 -256l16 -16l-52 -90h-1163zM816 1137q-110 64 -193 64q-263 0 -263 -517q0 -379 163 -501l-9 -14q-99 71 -142 187t-43 314
q0 557 292 557q132 0 195 -90zM782 82l-6 -3q-54 -19 -137 -19q-271 0 -431 177.5t-160 478.5t150 479t404 178q72 0 142 -17h1059l-16 -19q-103 -127 -162 -287l-15 33q-54 120 -117 155t-226 35l-147 -4l-33 -1v-450h64v398q77 6 145 6q126 0 186 -27t107 -105
q-14 10 -20 16q-80 62 -116.5 74.5t-141.5 12.5q-38 0 -114 -4h-21v-371h183l129 177v-431l-129 167h-272v-562h64v515h217l25 -26h-217v-489q204 0 289.5 29t134.5 114l53 92q3 5 12 21q26 -114 65 -184t127 -159h-1075zM905 630v138q0 158 -15 243.5t-54 145.5
q-84 130 -233 130q-339 0 -339 -594q0 -548 333 -548q219 0 290 284l2 6q16 80 16 195zM1851 1295l-7 -9q-121 -164 -162 -275l-18 21q67 155 174 284zM1557 962v-442l-25 13v442z" />
    <glyph glyph-name="OE" unicode="&#x153;" horiz-adv-x="1951" 
d="M757 0l-7 -1q-76 -16 -124 -16q-161 0 -307 114v5q126 -91 322 -91q54 0 92 9l27 6l8 1h1138l34 63q-144 133 -202 284l31 -12q55 -128 187 -256l16 -16l-52 -90h-1163zM816 1137q-110 64 -193 64q-263 0 -263 -517q0 -379 163 -501l-9 -14q-99 71 -142 187t-43 314
q0 557 292 557q132 0 195 -90zM782 82l-6 -3q-54 -19 -137 -19q-271 0 -431 177.5t-160 478.5t150 479t404 178q72 0 142 -17h1059l-16 -19q-103 -127 -162 -287l-15 33q-54 120 -117 155t-226 35l-147 -4l-33 -1v-450h64v398q77 6 145 6q126 0 186 -27t107 -105
q-14 10 -20 16q-80 62 -116.5 74.5t-141.5 12.5q-38 0 -114 -4h-21v-371h183l129 177v-431l-129 167h-272v-562h64v515h217l25 -26h-217v-489q204 0 289.5 29t134.5 114l53 92q3 5 12 21q26 -114 65 -184t127 -159h-1075zM905 630v138q0 158 -15 243.5t-54 145.5
q-84 130 -233 130q-339 0 -339 -594q0 -548 333 -548q219 0 290 284l2 6q16 80 16 195zM1851 1295l-7 -9q-121 -164 -162 -275l-18 21q67 155 174 284zM1557 962v-442l-25 13v442z" />
    <glyph glyph-name="endash" unicode="&#xad;" horiz-adv-x="1052" 
d="M908 772l44 -118h-910l-42 118h908zM1052 582h-945l-22 28h930l-46 137l32 -23z" />
    <glyph glyph-name="endash" unicode="&#x2013;" horiz-adv-x="1052" 
d="M908 772l44 -118h-910l-42 118h908zM1052 582h-945l-22 28h930l-46 137l32 -23z" />
    <glyph glyph-name="emdash" unicode="&#x2014;" horiz-adv-x="1462" 
d="M1318 772l44 -118h-1320l-42 118h1318zM1462 582h-1355l-22 28h1340l-47 137l33 -23z" />
    <glyph glyph-name="quotedblleft" unicode="&#x201c;" horiz-adv-x="847" 
d="M164 853l-19 21q82 54 164 80l20 7l-4 -1q-72 75 -72 163q0 91 128 194l10 8l21 -21l-11 -8q-116 -92 -116 -172q0 -84 92 -172q-113 -37 -213 -99zM64 891q-30 71 -30 138q0 249 296 344l8 -14l-10 -9q-103 -86 -103 -206q0 -85 53 -148q-12 -5 -18 -7
q-113 -41 -196 -98zM560 853l-19 21q82 54 165 80l19 7l-4 -1q-72 76 -72 163q0 91 128 194l10 8l21 -21l-11 -8q-116 -92 -116 -172q0 -83 92 -172q-112 -37 -213 -99zM460 891q-30 71 -30 138q0 249 296 344l8 -14l-10 -9q-103 -86 -103 -206q0 -85 54 -148q-13 -5 -19 -7
q-113 -41 -196 -98z" />
    <glyph glyph-name="quotedblright" unicode="&#x201d;" horiz-adv-x="841" 
d="M698 1373q30 -69 30 -137q0 -250 -296 -345l-8 15l10 8q103 86 103 207q0 85 -54 148q13 5 19 7q114 42 196 97zM797 1343q16 -59 16 -111q0 -283 -330 -409l-14 27l17 6q167 66 233 165t66 204q0 52 -17 132zM308 1373q30 -70 30 -137q0 -249 -296 -345l-8 15l10 8
q103 87 103 207q0 85 -53 148q12 5 19 7q112 41 195 97zM407 1343q17 -61 17 -111q0 -283 -331 -409l-13 27l17 6q169 68 234 165q66 100 66 204q0 52 -18 132z" />
    <glyph glyph-name="quoteleft" unicode="&#x2018;" horiz-adv-x="451" 
d="M164 853l-19 21q82 54 164 80l20 7l-4 -1q-72 75 -72 163q0 91 128 194l10 8l21 -21l-11 -8q-116 -92 -116 -172q0 -84 92 -172q-113 -37 -213 -99zM64 891q-30 71 -30 138q0 249 296 344l8 -14l-10 -9q-103 -86 -103 -206q0 -85 53 -148q-12 -5 -18 -7
q-113 -41 -196 -98z" />
    <glyph glyph-name="quoteright" unicode="&#x2019;" horiz-adv-x="451" 
d="M308 1373q30 -70 30 -137q0 -249 -296 -345l-8 15l10 8q103 87 103 207q0 85 -53 148q12 5 19 7q112 41 195 97zM407 1343q17 -61 17 -111q0 -283 -331 -409l-13 27l17 6q169 68 234 165q66 100 66 204q0 52 -18 132z" />
    <glyph glyph-name="divide" unicode="&#xf7;" horiz-adv-x="1202" 
d="M968 793v-125h-815v125h815zM1026 738l23 -22v-130h-844l-18 28h839v124zM557 1138q43 0 73.5 -30.5t30.5 -73.5t-30.5 -73.5t-73.5 -30.5t-73.5 30.5t-30.5 73.5t30.5 73.5t73.5 30.5zM687 1099q51 -40 51 -102q0 -56 -42.5 -98t-99.5 -42q-64 0 -104 51l5 6
q52 -29 94 -29q49 0 85 34.5t36 82.5q0 45 -32 91zM557 532q43 0 73.5 -30.5t30.5 -73.5t-30.5 -73.5t-73.5 -30.5t-73.5 30.5t-30.5 73.5t30.5 73.5t73.5 30.5zM687 494q51 -41 51 -103q0 -56 -42.5 -98t-99.5 -42q-65 0 -104 52l5 6q53 -30 94 -30q49 0 85 34.5t36 82.5
q0 45 -32 91z" />
    <glyph glyph-name="lozenge" unicode="&#x25ca;" horiz-adv-x="1365" 
d="M683 1419l532 -736l-532 -736l-532 736zM683 1237l-404 -554l404 -555l403 555z" />
    <glyph glyph-name="Ydieresis" unicode="&#xff;" horiz-adv-x="1314" 
d="M-48 1365h505l-124 -129l333 -502l32 51l-297 451l105 100l21 -16l-91 -84l277 -427l224 353q97 154 97 230q0 56 -70 132q-39 -28 -78 -28q-59 0 -94 47v6q47 -33 81 -33q49 0 84 34.5t35 83.5q0 38 -38 88q56 -26 56 -99q0 -41 -24 -76q265 67 441 164l12 6l6 -8
l-10 -11q-179 -186 -295 -378q-45 -73 -64 -104l-372 -595v-406l145 -133h-487l144 133v406l-240 369l-52 83q-71 111 -116.5 162t-134.5 121zM1484 1657v-41l-10 -10q-84 -80 -144.5 -160t-179.5 -269l-362 -570v-392l178 -215h-626l-12 27h585l-152 188v399l369 582l58 92
q155 247 296 369zM830 1765q40 0 68 -28t28 -68t-28 -68t-68 -28t-68 28t-28 68t28 68t68 28zM609 1722q56 -26 56 -99q0 -54 -36 -90.5t-88 -36.5q-59 0 -95 47v7q48 -34 82 -34q49 0 84 34.5t35 83.5q0 39 -38 88zM482 1765q40 0 68 -28t28 -68t-28 -68t-68 -28t-68 28
t-28 68t28 68t68 28z" />
    <glyph glyph-name="Ydieresis" unicode="&#x178;" horiz-adv-x="1314" 
d="M-48 1365h505l-124 -129l333 -502l32 51l-297 451l105 100l21 -16l-91 -84l277 -427l224 353q97 154 97 230q0 56 -70 132q-39 -28 -78 -28q-59 0 -94 47v6q47 -33 81 -33q49 0 84 34.5t35 83.5q0 38 -38 88q56 -26 56 -99q0 -41 -24 -76q265 67 441 164l12 6l6 -8
l-10 -11q-179 -186 -295 -378q-45 -73 -64 -104l-372 -595v-406l145 -133h-487l144 133v406l-240 369l-52 83q-71 111 -116.5 162t-134.5 121zM1484 1657v-41l-10 -10q-84 -80 -144.5 -160t-179.5 -269l-362 -570v-392l178 -215h-626l-12 27h585l-152 188v399l369 582l58 92
q155 247 296 369zM830 1765q40 0 68 -28t28 -68t-28 -68t-68 -28t-68 28t-28 68t28 68t68 28zM609 1722q56 -26 56 -99q0 -54 -36 -90.5t-88 -36.5q-59 0 -95 47v7q48 -34 82 -34q49 0 84 34.5t35 83.5q0 39 -38 88zM482 1765q40 0 68 -28t28 -68t-28 -68t-68 -28t-68 28
t-28 68t28 68t68 28z" />
    <glyph glyph-name="fraction" unicode="&#x2215;" horiz-adv-x="254" 
d="M577 1386l-792 -1311h-94l792 1311h94zM-291 16h106l810 1341l18 -21l-813 -1347h-110z" />
    <glyph glyph-name="Euro" unicode="&#x20ac;" horiz-adv-x="1202" 
d="M684 1259q96 0 177 -85v-13q-91 73 -172 73q-197 0 -244 -284h208l32 -92h-347q-5 -59 -5 -122q0 -43 3 -86h67q-3 37 -3 92q0 7 1 35v36h351l-41 105l28 -12l47 -119h-355q-1 -10 -1 -47q0 -54 2 -90h221l32 -92h-340q62 -428 360 -428q290 0 323 361q4 42 34 42
q39 0 39 -65q0 -97 -44 -201q-93 -220 -384 -220q-217 0 -359 126q-129 114 -179 314h-56l-10 26h60q-5 22 -9 45h-88l-35 92h112q-2 36 -2 73q0 32 2 64h-30l-10 26h43q2 23 6 45h-86l-35 92h141q55 195 183 315q142 133 340 133q77 0 201 -42t178 -42q53 0 95 29l16 -9
l-11 -19q-102 -177 -156 -314l-9 -23l-13 7q-21 138 -95 227q-85 103 -215 103q-246 0 -304 -365h67q53 309 269 309zM659 172v-10q-98 18 -165 135q-53 91 -75 216h333l-41 105l28 -12l47 -119h-332q54 -254 205 -315zM1187 474q-33 -507 -481 -507q-167 0 -311 103v8
q128 -84 309 -84q146 0 260 74q118 78 161 214q21 70 31 182l2 23zM1224 1286l-11 -19q-113 -195 -174 -339l-27 13l11 25q36 81 88 174l90 160z" />
    <glyph glyph-name="guilsinglleft" unicode="&#x2039;" horiz-adv-x="411" 
d="M34 677l167 278h86l-109 -278l109 -275h-94zM232 639l110 270l21 -27l-98 -241l126 -314h-130l-31 25h116z" />
    <glyph glyph-name="guilsinglright" unicode="&#x203a;" horiz-adv-x="423" 
d="M303 669l-163 -272h-94l108 289l-108 266h94zM384 652l-192 -329h-101l-12 29h95l179 300l-158 276l47 -35z" />
    <glyph glyph-name="daggerdbl" unicode="&#x2021;" horiz-adv-x="1204" 
d="M726 705v309h201l29 -27h-205v-282h151l161 163v-419l-168 172h-230v-573l128 -135h-490l162 135v488h-196l-139 -145l-23 21l155 151h203v58h-229l-168 -172v419l161 -163h236v282h-196l-139 -139l-23 21l155 145h203v58h-229l-168 -166v418l161 -168h236v244l-141 129
h476l-135 -136v-237h61v225l113 111l17 -20l-102 -101v-215h148l161 168v-418l-168 166h-230v-367h61zM1135 1290v-433l-26 16v431zM1135 819v-419l-26 16v418zM956 536h-205v-496l176 -217h-565l-25 27h534l-145 179v534h201z" />
    <glyph glyph-name="periodcentered" unicode="&#x2219;" horiz-adv-x="366" 
d="M136 868q57 0 96.5 -39.5t39.5 -96.5t-40 -96.5t-96 -39.5q-57 0 -96.5 39.5t-39.5 96.5q0 56 40 96t96 40zM307 824q59 -54 59 -135q0 -71 -53.5 -124.5t-123.5 -53.5q-85 0 -137 62l6 8q69 -39 123 -39q65 0 112 45.5t47 108.5q0 59 -41 120z" />
    <glyph glyph-name="quotesinglbase" unicode="&#x201a;" horiz-adv-x="536" 
d="M308 304q30 -70 30 -137q0 -249 -296 -345l-8 14l10 9q103 85 103 206q0 86 -53 149q12 4 19 7q109 40 195 97zM407 274q17 -62 17 -111q0 -283 -331 -410l-13 28l17 6q169 67 234 165q66 100 66 204q0 51 -18 131z" />
    <glyph glyph-name="quotedblbase" unicode="&#x201e;" horiz-adv-x="841" 
d="M698 304q30 -69 30 -137q0 -251 -296 -345l-8 14l10 9q103 85 103 206q0 86 -54 149q13 4 19 7q114 42 196 97zM797 274q16 -60 16 -111q0 -284 -330 -410l-14 27l17 7q167 66 233 165t66 204q0 52 -17 131zM308 304q30 -70 30 -137q0 -250 -296 -345l-8 14l10 9
q103 86 103 206q0 86 -53 149q12 4 19 7q112 41 195 97zM407 274q17 -61 17 -111q0 -283 -331 -410l-13 27l17 7q169 67 234 165q66 100 66 204q0 51 -18 131z" />
    <glyph glyph-name="perthousand" unicode="&#x2030;" horiz-adv-x="1923" 
d="M1017 1363l-716 -1290h-87l713 1290h90zM1056 1340l16 -28l-721 -1314h-96l-16 27h99zM373 1250q-26 20 -52 20q-51 0 -70 -43.5t-19 -157.5q0 -184 67 -255h-13q-45 35 -62.5 90.5t-17.5 167.5q0 126 23 173t85 47q40 0 67 -42h-8zM292 1405q117 0 190.5 -99.5
t73.5 -258.5q0 -156 -67 -242t-188 -86q-125 0 -196 93.5t-71 257.5q0 152 70.5 243.5t187.5 91.5zM294 1324q-71 0 -102 -61t-31 -201q0 -273 140 -273q130 0 130 267q0 268 -137 268zM475 1357h15q70 -46 109 -129.5t39 -187.5q0 -161 -75.5 -262.5t-194.5 -101.5
q-49 0 -84 24h15q27 -9 52 -9q113 0 187.5 98.5t74.5 248.5q0 188 -138 319zM990 533q-27 20 -53 20q-85 0 -85 -110l-4 -125l3 -50q11 -116 64 -171h-12q-47 38 -64 92t-17 166q0 127 23 173.5t85 46.5q40 0 67 -42h-7zM908 689q116 0 190 -100t74 -257t-66.5 -243
t-188.5 -86q-124 0 -195.5 93.5t-71.5 257.5q0 152 70.5 243.5t187.5 91.5zM910 608q-71 0 -102 -60.5t-31 -201.5q0 -273 140 -273q130 0 130 266q0 269 -137 269zM1091 641h15q70 -46 109 -129.5t39 -187.5q0 -161 -75 -262.5t-195 -101.5q-50 0 -84 24h15q25 -9 54 -9
q113 0 187 98t74 248q0 187 -139 320zM1631 533q-27 20 -53 20q-85 0 -85 -110l-4 -125l3 -50q11 -116 64 -171h-12q-47 38 -64 92t-17 166q0 127 22.5 173.5t85.5 46.5q40 0 67 -42h-7zM1549 689q116 0 190 -100t74 -257t-66.5 -243t-188.5 -86q-124 0 -195.5 93.5
t-71.5 257.5q0 152 70.5 243.5t187.5 91.5zM1551 608q-71 0 -102 -60.5t-31 -201.5q0 -273 140 -273q130 0 130 266q0 269 -137 269zM1732 641h15q70 -46 109 -129.5t39 -187.5q0 -162 -75 -263t-195 -101q-50 0 -84 24h15q25 -9 54 -9q113 0 187 98t74 248q0 188 -139 320z
" />
    <glyph glyph-name="Acircumflex" unicode="&#xc2;" horiz-adv-x="1550" 
d="M967 1365l-104 -118l164 -436l40 22l-148 394l106 122l26 -11l-101 -117l140 -373q12 9 14 11l33 28q30 24 38 34q26 -114 80 -204q-29 2 -42 2q-95 0 -139 -30l181 -491l150 -116h-505l138 116l-111 292q-110 -111 -169 -211l-23 6q59 98 176 219l8 10l-19 44
q-119 -99 -197 -230l-18 29q-52 83 -133 189l-10 12q-77 -171 -77 -278q0 -63 21.5 -106.5t103.5 -145.5q7 -9 22 -28h-540l-20 27h509l-17 21q-66 80 -86.5 124.5t-20.5 104.5q0 102 83 304l-44 46q-13 -32 -33 -94l-33 -102q-27 -82 -27 -136q0 -56 19 -93t80 -101
q6 -6 18 -19h-500q143 74 226.5 199t165.5 386l4 14q-53 45 -153 55q55 82 85 171q14 -13 17 -16l45 -42q23 -22 55 -45l18 44l-12 10q-50 44 -84 71l-9 7l16 22q53 -35 102 -81l136 374l-106 114h461zM720 1044l-110 -290q9 -10 10 -12l41 -46q33 -36 84 -112l10 -15
q43 54 102 107zM675 1160l-159 -420q76 -78 131 -154l46 -64q1 -1 10 -13q9 9 10 11l14 17q3 4 11 13q-70 108 -163 195l128 338zM1263 873q22 -90 110 -247q-22 3 -25 3l-81 7q-55 5 -80 5q-4 0 -20 -1l167 -443l223 -197h-579l-19 27h531l-180 159l-178 471q34 9 78 9
q54 0 120 -9l-12 22q-64 118 -86 213zM746 1638l-120 -140h-87l-18 21h96l115 135l-26 29l-101 -116h-105l168 200h129l172 -200h-160zM1105 1498h-231l-19 21h200l-173 202l37 -8z" />
    <glyph glyph-name="Acircumflex" unicode="&#xe2;" horiz-adv-x="1550" 
d="M967 1365l-104 -118l164 -436l40 22l-148 394l106 122l26 -11l-101 -117l140 -373q12 9 14 11l33 28q30 24 38 34q26 -114 80 -204q-29 2 -42 2q-95 0 -139 -30l181 -491l150 -116h-505l138 116l-111 292q-110 -111 -169 -211l-23 6q59 98 176 219l8 10l-19 44
q-119 -99 -197 -230l-18 29q-52 83 -133 189l-10 12q-77 -171 -77 -278q0 -63 21.5 -106.5t103.5 -145.5q7 -9 22 -28h-540l-20 27h509l-17 21q-66 80 -86.5 124.5t-20.5 104.5q0 102 83 304l-44 46q-13 -32 -33 -94l-33 -102q-27 -82 -27 -136q0 -56 19 -93t80 -101
q6 -6 18 -19h-500q143 74 226.5 199t165.5 386l4 14q-53 45 -153 55q55 82 85 171q14 -13 17 -16l45 -42q23 -22 55 -45l18 44l-12 10q-50 44 -84 71l-9 7l16 22q53 -35 102 -81l136 374l-106 114h461zM720 1044l-110 -290q9 -10 10 -12l41 -46q33 -36 84 -112l10 -15
q43 54 102 107zM675 1160l-159 -420q76 -78 131 -154l46 -64q1 -1 10 -13q9 9 10 11l14 17q3 4 11 13q-70 108 -163 195l128 338zM1263 873q22 -90 110 -247q-22 3 -25 3l-81 7q-55 5 -80 5q-4 0 -20 -1l167 -443l223 -197h-579l-19 27h531l-180 159l-178 471q34 9 78 9
q54 0 120 -9l-12 22q-64 118 -86 213zM746 1638l-120 -140h-87l-18 21h96l115 135l-26 29l-101 -116h-105l168 200h129l172 -200h-160zM1105 1498h-231l-19 21h200l-173 202l37 -8z" />
    <glyph glyph-name="Ecircumflex" unicode="&#xca;" horiz-adv-x="1273" 
d="M1125 1365l-16 -19q-102 -125 -162 -287q-10 23 -15 34q-55 120 -118 155t-226 35q-75 0 -180 -5v-460h64v407q76 7 145 7q127 0 187 -27t107 -105q-14 10 -20 15q-81 64 -117 76t-142 12q-32 0 -114 -4l-21 -1v-380h184l129 177v-431l-129 167h-273v-561h64v514h217
l26 -26h-218v-488q204 0 290 29t135 114l53 91q3 6 12 22q26 -110 64.5 -176t127.5 -154h-1121l152 116v446q-84 -10 -152 -52l-14 21q61 44 166 57v47q-17 2 -24 2q-102 0 -186 -75q46 160 210 160v427l-152 120h1067zM1173 1295l-7 -9q-122 -164 -163 -275l-17 21
q67 155 173 284zM879 962v-442l-25 13v442zM1293 90l-52 -90h-1092l-16 27h1095l34 63q-144 133 -203 284l32 -12q55 -128 186 -256zM607 1638l-120 -140h-87l-18 21h96l115 135l-25 29l-102 -116h-105l168 200h130l172 -200h-161zM966 1498h-231l-18 21h199l-173 202l37 -8
z" />
    <glyph glyph-name="Ecircumflex" unicode="&#xea;" horiz-adv-x="1273" 
d="M1125 1365l-16 -19q-102 -125 -162 -287q-10 23 -15 34q-55 120 -118 155t-226 35q-75 0 -180 -5v-460h64v407q76 7 145 7q127 0 187 -27t107 -105q-14 10 -20 15q-81 64 -117 76t-142 12q-32 0 -114 -4l-21 -1v-380h184l129 177v-431l-129 167h-273v-561h64v514h217
l26 -26h-218v-488q204 0 290 29t135 114l53 91q3 6 12 22q26 -110 64.5 -176t127.5 -154h-1121l152 116v446q-84 -10 -152 -52l-14 21q61 44 166 57v47q-17 2 -24 2q-102 0 -186 -75q46 160 210 160v427l-152 120h1067zM1173 1295l-7 -9q-122 -164 -163 -275l-17 21
q67 155 173 284zM879 962v-442l-25 13v442zM1293 90l-52 -90h-1092l-16 27h1095l34 63q-144 133 -203 284l32 -12q55 -128 186 -256zM607 1638l-120 -140h-87l-18 21h96l115 135l-25 29l-102 -116h-105l168 200h130l172 -200h-161zM966 1498h-231l-18 21h199l-173 202l37 -8
z" />
    <glyph glyph-name="Aacute" unicode="&#xc1;" horiz-adv-x="1550" 
d="M967 1365l-104 -118l164 -436l40 22l-148 394l106 122l26 -11l-101 -117l140 -373q12 9 14 11l33 28q30 24 38 34q26 -114 80 -204q-29 2 -42 2q-95 0 -139 -30l181 -491l150 -116h-505l138 116l-111 292q-110 -111 -169 -211l-23 6q59 98 176 219l8 10l-19 44
q-119 -99 -197 -230l-18 29q-52 83 -133 189l-10 12q-77 -171 -77 -278q0 -63 21.5 -106.5t103.5 -145.5q7 -9 22 -28h-540l-20 27h509l-17 21q-66 80 -86.5 124.5t-20.5 104.5q0 102 83 304l-44 46q-13 -32 -33 -94l-33 -102q-27 -82 -27 -136q0 -56 19 -93t80 -101
q6 -6 18 -19h-500q143 74 226.5 199t165.5 386l4 14q-53 45 -153 55q55 82 85 171q14 -13 17 -16l45 -42q23 -22 55 -45l18 44l-12 10q-50 44 -84 71l-9 7l16 22q53 -35 102 -81l136 374l-106 114h461zM720 1044l-110 -290q9 -10 10 -12l41 -46q33 -36 84 -112l10 -15
q43 54 102 107zM675 1160l-159 -420q76 -78 131 -154l46 -64q1 -1 10 -13q9 9 10 11l14 17q3 4 11 13q-70 108 -163 195l128 338zM1263 873q22 -90 110 -247q-22 3 -25 3l-81 7q-55 5 -80 5q-4 0 -20 -1l167 -443l223 -197h-579l-19 27h531l-180 159l-178 471q34 9 78 9
q54 0 120 -9l-12 22q-64 118 -86 213zM1058 1764l-244 -198h-106l146 198h204zM751 1482l-23 28h123l246 199l19 -24l-251 -203h-114z" />
    <glyph glyph-name="Aacute" unicode="&#xe1;" horiz-adv-x="1550" 
d="M967 1365l-104 -118l164 -436l40 22l-148 394l106 122l26 -11l-101 -117l140 -373q12 9 14 11l33 28q30 24 38 34q26 -114 80 -204q-29 2 -42 2q-95 0 -139 -30l181 -491l150 -116h-505l138 116l-111 292q-110 -111 -169 -211l-23 6q59 98 176 219l8 10l-19 44
q-119 -99 -197 -230l-18 29q-52 83 -133 189l-10 12q-77 -171 -77 -278q0 -63 21.5 -106.5t103.5 -145.5q7 -9 22 -28h-540l-20 27h509l-17 21q-66 80 -86.5 124.5t-20.5 104.5q0 102 83 304l-44 46q-13 -32 -33 -94l-33 -102q-27 -82 -27 -136q0 -56 19 -93t80 -101
q6 -6 18 -19h-500q143 74 226.5 199t165.5 386l4 14q-53 45 -153 55q55 82 85 171q14 -13 17 -16l45 -42q23 -22 55 -45l18 44l-12 10q-50 44 -84 71l-9 7l16 22q53 -35 102 -81l136 374l-106 114h461zM720 1044l-110 -290q9 -10 10 -12l41 -46q33 -36 84 -112l10 -15
q43 54 102 107zM675 1160l-159 -420q76 -78 131 -154l46 -64q1 -1 10 -13q9 9 10 11l14 17q3 4 11 13q-70 108 -163 195l128 338zM1263 873q22 -90 110 -247q-22 3 -25 3l-81 7q-55 5 -80 5q-4 0 -20 -1l167 -443l223 -197h-579l-19 27h531l-180 159l-178 471q34 9 78 9
q54 0 120 -9l-12 22q-64 118 -86 213zM1058 1764l-244 -198h-106l146 198h204zM751 1482l-23 28h123l246 199l19 -24l-251 -203h-114z" />
    <glyph glyph-name="Edieresis" unicode="&#xcb;" horiz-adv-x="1273" 
d="M1125 1365l-16 -19q-102 -125 -162 -287q-10 23 -15 34q-55 120 -118 155t-226 35q-75 0 -180 -5v-460h64v407q76 7 145 7q127 0 187 -27t107 -105q-14 10 -20 15q-81 64 -117 76t-142 12q-32 0 -114 -4l-21 -1v-380h184l129 177v-431l-129 167h-273v-561h64v514h217
l26 -26h-218v-488q204 0 290 29t135 114l53 91q3 6 12 22q26 -110 64.5 -176t127.5 -154h-1121l152 116v446q-84 -10 -152 -52l-14 21q61 44 166 57v47q-17 2 -24 2q-102 0 -186 -75q46 160 210 160v427l-152 120h1067zM1173 1295l-7 -9q-122 -164 -163 -275l-17 21
q67 155 173 284zM879 962v-442l-25 13v442zM1293 90l-52 -90h-1092l-16 27h1095l34 63q-144 133 -203 284l32 -12q55 -128 186 -256zM768 1765q40 0 68 -28t28 -68t-28 -68t-68 -28t-68 28t-28 68t28 68t68 28zM893 1722q55 -25 55 -99q0 -54 -35.5 -90.5t-88.5 -36.5
q-58 0 -94 47v7q48 -34 82 -34q49 0 83.5 34.5t34.5 83.5q0 38 -37 88zM548 1722q55 -26 55 -99q0 -54 -35.5 -90.5t-88.5 -36.5q-59 0 -94 47v7q48 -34 82 -34q48 0 83 34.5t35 83.5q0 38 -37 88zM421 1765q40 0 68 -28t28 -68t-28 -68t-68 -28t-68 28t-28 68t28 68t68 28z
" />
    <glyph glyph-name="Edieresis" unicode="&#xeb;" horiz-adv-x="1273" 
d="M1125 1365l-16 -19q-102 -125 -162 -287q-10 23 -15 34q-55 120 -118 155t-226 35q-75 0 -180 -5v-460h64v407q76 7 145 7q127 0 187 -27t107 -105q-14 10 -20 15q-81 64 -117 76t-142 12q-32 0 -114 -4l-21 -1v-380h184l129 177v-431l-129 167h-273v-561h64v514h217
l26 -26h-218v-488q204 0 290 29t135 114l53 91q3 6 12 22q26 -110 64.5 -176t127.5 -154h-1121l152 116v446q-84 -10 -152 -52l-14 21q61 44 166 57v47q-17 2 -24 2q-102 0 -186 -75q46 160 210 160v427l-152 120h1067zM1173 1295l-7 -9q-122 -164 -163 -275l-17 21
q67 155 173 284zM879 962v-442l-25 13v442zM1293 90l-52 -90h-1092l-16 27h1095l34 63q-144 133 -203 284l32 -12q55 -128 186 -256zM768 1765q40 0 68 -28t28 -68t-28 -68t-68 -28t-68 28t-28 68t28 68t68 28zM893 1722q55 -25 55 -99q0 -54 -35.5 -90.5t-88.5 -36.5
q-58 0 -94 47v7q48 -34 82 -34q49 0 83.5 34.5t34.5 83.5q0 38 -37 88zM548 1722q55 -26 55 -99q0 -54 -35.5 -90.5t-88.5 -36.5q-59 0 -94 47v7q48 -34 82 -34q48 0 83 34.5t35 83.5q0 38 -37 88zM421 1765q40 0 68 -28t28 -68t-28 -68t-68 -28t-68 28t-28 68t28 68t68 28z
" />
    <glyph glyph-name="Egrave" unicode="&#xc8;" horiz-adv-x="1273" 
d="M1125 1365l-16 -19q-102 -125 -162 -287q-10 23 -15 34q-55 120 -118 155t-226 35q-75 0 -180 -5v-460h64v407q76 7 145 7q127 0 187 -27t107 -105q-14 10 -20 15q-81 64 -117 76t-142 12q-32 0 -114 -4l-21 -1v-380h184l129 177v-431l-129 167h-273v-561h64v514h217
l26 -26h-218v-488q204 0 290 29t135 114l53 91q3 6 12 22q26 -110 64.5 -176t127.5 -154h-1121l152 116v446q-84 -10 -152 -52l-14 21q61 44 166 57v47q-17 2 -24 2q-102 0 -186 -75q46 160 210 160v427l-152 120h1067zM1173 1295l-7 -9q-122 -164 -163 -275l-17 21
q67 155 173 284zM879 962v-442l-25 13v442zM1293 90l-52 -90h-1092l-16 27h1095l34 63q-144 133 -203 284l32 -12q55 -128 186 -256zM450 1762l138 -192h-117l-229 192h208zM721 1502h-168l-28 25h139l-125 174l43 -9z" />
    <glyph glyph-name="Egrave" unicode="&#xe8;" horiz-adv-x="1273" 
d="M1125 1365l-16 -19q-102 -125 -162 -287q-10 23 -15 34q-55 120 -118 155t-226 35q-75 0 -180 -5v-460h64v407q76 7 145 7q127 0 187 -27t107 -105q-14 10 -20 15q-81 64 -117 76t-142 12q-32 0 -114 -4l-21 -1v-380h184l129 177v-431l-129 167h-273v-561h64v514h217
l26 -26h-218v-488q204 0 290 29t135 114l53 91q3 6 12 22q26 -110 64.5 -176t127.5 -154h-1121l152 116v446q-84 -10 -152 -52l-14 21q61 44 166 57v47q-17 2 -24 2q-102 0 -186 -75q46 160 210 160v427l-152 120h1067zM1173 1295l-7 -9q-122 -164 -163 -275l-17 21
q67 155 173 284zM879 962v-442l-25 13v442zM1293 90l-52 -90h-1092l-16 27h1095l34 63q-144 133 -203 284l32 -12q55 -128 186 -256zM450 1762l138 -192h-117l-229 192h208zM721 1502h-168l-28 25h139l-125 174l43 -9z" />
    <glyph glyph-name="Iacute" unicode="&#xcd;" horiz-adv-x="626" 
d="M41 1365h474l-134 -136v-1041l126 -106h-466l139 115v1043zM560 1308l-102 -101v-1019l168 -188h-520l-25 27h486l-137 151v1038l113 112zM596 1764l-244 -198h-106l146 198h204zM289 1482l-23 28h123l246 199l19 -24l-251 -203h-114z" />
    <glyph glyph-name="Iacute" unicode="&#xed;" horiz-adv-x="626" 
d="M41 1365h474l-134 -136v-1041l126 -106h-466l139 115v1043zM560 1308l-102 -101v-1019l168 -188h-520l-25 27h486l-137 151v1038l113 112zM596 1764l-244 -198h-106l146 198h204zM289 1482l-23 28h123l246 199l19 -24l-251 -203h-114z" />
    <glyph glyph-name="Icircumflex" unicode="&#xce;" horiz-adv-x="626" 
d="M42 1365h474l-134 -136v-1041l126 -106h-466l139 115v1043zM561 1308l-102 -101v-1019l168 -188h-520l-25 27h486l-137 151v1038l113 112zM284 1638l-120 -140h-87l-18 21h96l115 135l-26 29l-101 -116h-105l168 200h130l172 -200h-161zM643 1498h-231l-19 21h200
l-173 202l37 -8z" />
    <glyph glyph-name="Icircumflex" unicode="&#xee;" horiz-adv-x="626" 
d="M42 1365h474l-134 -136v-1041l126 -106h-466l139 115v1043zM561 1308l-102 -101v-1019l168 -188h-520l-25 27h486l-137 151v1038l113 112zM284 1638l-120 -140h-87l-18 21h96l115 135l-26 29l-101 -116h-105l168 200h130l172 -200h-161zM643 1498h-231l-19 21h200
l-173 202l37 -8z" />
    <glyph glyph-name="Idieresis" unicode="&#xcf;" horiz-adv-x="627" 
d="M41 1365h474l-134 -136v-1041l126 -106h-466l139 115v1043zM560 1308l-102 -101v-1019l168 -188h-520l-25 27h486l-137 151v1038l113 112zM432 1765q40 0 68 -28t28 -68t-28 -68t-68 -28t-68 28t-28 68t28 68t68 28zM556 1722q56 -25 56 -99q0 -54 -36 -90.5t-88 -36.5
q-59 0 -95 47v7q48 -34 82 -34q49 0 84 34.5t35 83.5q0 39 -38 88zM238 1722q56 -26 56 -99q0 -54 -36 -90.5t-88 -36.5q-59 0 -94 47v7q47 -34 81 -34q49 0 84 34.5t35 83.5q0 39 -38 88zM111 1765q40 0 68 -28t28 -68t-28 -68t-68 -28t-68 28t-28 68t28 68t68 28z" />
    <glyph glyph-name="Idieresis" unicode="&#xef;" horiz-adv-x="627" 
d="M41 1365h474l-134 -136v-1041l126 -106h-466l139 115v1043zM560 1308l-102 -101v-1019l168 -188h-520l-25 27h486l-137 151v1038l113 112zM432 1765q40 0 68 -28t28 -68t-28 -68t-68 -28t-68 28t-28 68t28 68t68 28zM556 1722q56 -25 56 -99q0 -54 -36 -90.5t-88 -36.5
q-59 0 -95 47v7q48 -34 82 -34q49 0 84 34.5t35 83.5q0 39 -38 88zM238 1722q56 -26 56 -99q0 -54 -36 -90.5t-88 -36.5q-59 0 -94 47v7q47 -34 81 -34q49 0 84 34.5t35 83.5q0 39 -38 88zM111 1765q40 0 68 -28t28 -68t-28 -68t-68 -28t-68 28t-28 68t28 68t68 28z" />
    <glyph glyph-name="Igrave" unicode="&#xcc;" horiz-adv-x="626" 
d="M41 1365h474l-134 -136v-1041l126 -106h-466l139 115v1043zM560 1308l-102 -101v-1019l168 -188h-520l-25 27h486l-137 151v1038l113 112zM195 1762l138 -192h-117l-229 192h208zM466 1502h-168l-28 25h139l-125 174l43 -9z" />
    <glyph glyph-name="Igrave" unicode="&#xec;" horiz-adv-x="626" 
d="M41 1365h474l-134 -136v-1041l126 -106h-466l139 115v1043zM560 1308l-102 -101v-1019l168 -188h-520l-25 27h486l-137 151v1038l113 112zM195 1762l138 -192h-117l-229 192h208zM466 1502h-168l-28 25h139l-125 174l43 -9z" />
    <glyph glyph-name="Oacute" unicode="&#xd3;" horiz-adv-x="1278" 
d="M816 1142l-17 10q-96 53 -176 53q-263 0 -263 -517q0 -378 163 -501l-9 -10q-100 71 -142.5 186.5t-42.5 312.5q0 555 292 555q133 0 195 -89zM602 1378q243 0 388.5 -184t145.5 -492q0 -291 -143.5 -464t-385.5 -173q-191 0 -340 122q-219 180 -219 533q0 302 150 480
t404 178zM602 1292q-338 0 -338 -594q0 -549 333 -549q155 0 236 145.5t81 425.5q0 317 -78 442q-82 130 -234 130zM921 1327q143 -69 226 -236t83 -386q0 -322 -163.5 -520t-429.5 -198q-170 0 -318 115v5q124 -91 311 -91q251 0 412 189t161 483q0 219 -73.5 383
t-208.5 245v11zM922 1764l-244 -198h-106l146 198h204zM615 1482l-23 28h123l246 199l19 -24l-251 -203h-114z" />
    <glyph glyph-name="Oacute" unicode="&#xf3;" horiz-adv-x="1278" 
d="M816 1142l-17 10q-96 53 -176 53q-263 0 -263 -517q0 -378 163 -501l-9 -10q-100 71 -142.5 186.5t-42.5 312.5q0 555 292 555q133 0 195 -89zM602 1378q243 0 388.5 -184t145.5 -492q0 -291 -143.5 -464t-385.5 -173q-191 0 -340 122q-219 180 -219 533q0 302 150 480
t404 178zM602 1292q-338 0 -338 -594q0 -549 333 -549q155 0 236 145.5t81 425.5q0 317 -78 442q-82 130 -234 130zM921 1327q143 -69 226 -236t83 -386q0 -322 -163.5 -520t-429.5 -198q-170 0 -318 115v5q124 -91 311 -91q251 0 412 189t161 483q0 219 -73.5 383
t-208.5 245v11zM922 1764l-244 -198h-106l146 198h204zM615 1482l-23 28h123l246 199l19 -24l-251 -203h-114z" />
    <glyph glyph-name="Ocircumflex" unicode="&#xd4;" horiz-adv-x="1278" 
d="M816 1142l-17 10q-96 53 -176 53q-263 0 -263 -517q0 -378 163 -501l-9 -10q-100 71 -142.5 186.5t-42.5 312.5q0 555 292 555q133 0 195 -89zM602 1378q243 0 388.5 -184t145.5 -492q0 -291 -143.5 -464t-385.5 -173q-191 0 -340 122q-219 180 -219 533q0 302 150 480
t404 178zM602 1292q-338 0 -338 -594q0 -549 333 -549q155 0 236 145.5t81 425.5q0 317 -78 442q-82 130 -234 130zM921 1327q143 -69 226 -236t83 -386q0 -322 -163.5 -520t-429.5 -198q-170 0 -318 115v5q124 -91 311 -91q251 0 412 189t161 483q0 219 -73.5 383
t-208.5 245v11zM610 1638l-120 -140h-87l-18 21h96l115 135l-26 29l-101 -116h-105l168 200h129l172 -200h-160zM969 1498h-232l-18 21h200l-173 202l37 -8z" />
    <glyph glyph-name="Ocircumflex" unicode="&#xf4;" horiz-adv-x="1278" 
d="M816 1142l-17 10q-96 53 -176 53q-263 0 -263 -517q0 -378 163 -501l-9 -10q-100 71 -142.5 186.5t-42.5 312.5q0 555 292 555q133 0 195 -89zM602 1378q243 0 388.5 -184t145.5 -492q0 -291 -143.5 -464t-385.5 -173q-191 0 -340 122q-219 180 -219 533q0 302 150 480
t404 178zM602 1292q-338 0 -338 -594q0 -549 333 -549q155 0 236 145.5t81 425.5q0 317 -78 442q-82 130 -234 130zM921 1327q143 -69 226 -236t83 -386q0 -322 -163.5 -520t-429.5 -198q-170 0 -318 115v5q124 -91 311 -91q251 0 412 189t161 483q0 219 -73.5 383
t-208.5 245v11zM610 1638l-120 -140h-87l-18 21h96l115 135l-26 29l-101 -116h-105l168 200h129l172 -200h-160zM969 1498h-232l-18 21h200l-173 202l37 -8z" />
    <glyph glyph-name="Ograve" unicode="&#xd2;" horiz-adv-x="1278" 
d="M816 1142l-17 10q-96 53 -176 53q-263 0 -263 -517q0 -378 163 -501l-9 -10q-100 71 -142.5 186.5t-42.5 312.5q0 555 292 555q133 0 195 -89zM602 1378q243 0 388.5 -184t145.5 -492q0 -291 -143.5 -464t-385.5 -173q-191 0 -340 122q-219 180 -219 533q0 302 150 480
t404 178zM602 1292q-338 0 -338 -594q0 -549 333 -549q155 0 236 145.5t81 425.5q0 317 -78 442q-82 130 -234 130zM921 1327q143 -69 226 -236t83 -386q0 -322 -163.5 -520t-429.5 -198q-170 0 -318 115v5q124 -91 311 -91q251 0 412 189t161 483q0 219 -73.5 383
t-208.5 245v11zM521 1762l138 -192h-117l-229 192h208zM792 1502h-168l-28 25h139l-125 174l43 -9z" />
    <glyph glyph-name="Ograve" unicode="&#xf2;" horiz-adv-x="1278" 
d="M816 1142l-17 10q-96 53 -176 53q-263 0 -263 -517q0 -378 163 -501l-9 -10q-100 71 -142.5 186.5t-42.5 312.5q0 555 292 555q133 0 195 -89zM602 1378q243 0 388.5 -184t145.5 -492q0 -291 -143.5 -464t-385.5 -173q-191 0 -340 122q-219 180 -219 533q0 302 150 480
t404 178zM602 1292q-338 0 -338 -594q0 -549 333 -549q155 0 236 145.5t81 425.5q0 317 -78 442q-82 130 -234 130zM921 1327q143 -69 226 -236t83 -386q0 -322 -163.5 -520t-429.5 -198q-170 0 -318 115v5q124 -91 311 -91q251 0 412 189t161 483q0 219 -73.5 383
t-208.5 245v11zM521 1762l138 -192h-117l-229 192h208zM792 1502h-168l-28 25h139l-125 174l43 -9z" />
    <glyph glyph-name="Uacute" unicode="&#xda;" horiz-adv-x="1244" 
d="M1189 1365l-179 -143v-646q0 -178 -11.5 -256t-45.5 -128q-86 -128 -334 -128q-262 0 -366 128q-83 101 -83 387v664l-136 122h472l-136 -133v-654l2 -154q0 -149 62 -211.5t209 -62.5q162 0 223 95q49 77 49 330l4 647l-156 143h426zM1223 1297l-136 -113v-621
q0 -305 -48 -398q-98 -188 -383 -188q-246 0 -370 123l8 -4l35 -20q123 -72 316 -72q276 0 366 174q48 94 48 378v640l149 122zM548 1311l-98 -99v-743l-1 -69l31 -127q23 -38 87 -92l2 -9q-84 34 -116 99t-32 201v750l113 110zM959 1764l-244 -198h-106l147 198h203z
M653 1482l-24 28h123l246 199l19 -24l-251 -203h-113z" />
    <glyph glyph-name="Uacute" unicode="&#xfa;" horiz-adv-x="1244" 
d="M1189 1365l-179 -143v-646q0 -178 -11.5 -256t-45.5 -128q-86 -128 -334 -128q-262 0 -366 128q-83 101 -83 387v664l-136 122h472l-136 -133v-654l2 -154q0 -149 62 -211.5t209 -62.5q162 0 223 95q49 77 49 330l4 647l-156 143h426zM1223 1297l-136 -113v-621
q0 -305 -48 -398q-98 -188 -383 -188q-246 0 -370 123l8 -4l35 -20q123 -72 316 -72q276 0 366 174q48 94 48 378v640l149 122zM548 1311l-98 -99v-743l-1 -69l31 -127q23 -38 87 -92l2 -9q-84 34 -116 99t-32 201v750l113 110zM959 1764l-244 -198h-106l147 198h203z
M653 1482l-24 28h123l246 199l19 -24l-251 -203h-113z" />
    <glyph glyph-name="Ucircumflex" unicode="&#xdb;" horiz-adv-x="1244" 
d="M1189 1365l-179 -143v-646q0 -178 -11.5 -256t-45.5 -128q-86 -128 -334 -128q-262 0 -366 128q-83 101 -83 387v664l-136 122h472l-136 -133v-654l2 -154q0 -149 62 -211.5t209 -62.5q162 0 223 95q49 77 49 330l4 647l-156 143h426zM1223 1297l-136 -113v-621
q0 -305 -48 -398q-98 -188 -383 -188q-246 0 -370 123l8 -4l35 -20q123 -72 316 -72q276 0 366 174q48 94 48 378v640l149 122zM548 1311l-98 -99v-743l-1 -69l31 -127q23 -38 87 -92l2 -9q-84 34 -116 99t-32 201v750l113 110zM647 1638l-120 -140h-87l-18 21h96l115 135
l-25 29l-101 -116h-106l169 200h129l172 -200h-161zM1007 1498h-232l-18 21h199l-173 202l38 -8z" />
    <glyph glyph-name="Ucircumflex" unicode="&#xfb;" horiz-adv-x="1244" 
d="M1189 1365l-179 -143v-646q0 -178 -11.5 -256t-45.5 -128q-86 -128 -334 -128q-262 0 -366 128q-83 101 -83 387v664l-136 122h472l-136 -133v-654l2 -154q0 -149 62 -211.5t209 -62.5q162 0 223 95q49 77 49 330l4 647l-156 143h426zM1223 1297l-136 -113v-621
q0 -305 -48 -398q-98 -188 -383 -188q-246 0 -370 123l8 -4l35 -20q123 -72 316 -72q276 0 366 174q48 94 48 378v640l149 122zM548 1311l-98 -99v-743l-1 -69l31 -127q23 -38 87 -92l2 -9q-84 34 -116 99t-32 201v750l113 110zM647 1638l-120 -140h-87l-18 21h96l115 135
l-25 29l-101 -116h-106l169 200h129l172 -200h-161zM1007 1498h-232l-18 21h199l-173 202l38 -8z" />
    <glyph glyph-name="Ugrave" unicode="&#xd9;" horiz-adv-x="1244" 
d="M1189 1365l-179 -143v-646q0 -178 -11.5 -256t-45.5 -128q-86 -128 -334 -128q-262 0 -366 128q-83 101 -83 387v664l-136 122h472l-136 -133v-654l2 -154q0 -149 62 -211.5t209 -62.5q162 0 223 95q49 77 49 330l4 647l-156 143h426zM1223 1297l-136 -113v-621
q0 -305 -48 -398q-98 -188 -383 -188q-246 0 -370 123l8 -4l35 -20q123 -72 316 -72q276 0 366 174q48 94 48 378v640l149 122zM548 1311l-98 -99v-743l-1 -69l31 -127q23 -38 87 -92l2 -9q-84 34 -116 99t-32 201v750l113 110zM558 1762l138 -192h-117l-229 192h208z
M829 1502h-167l-29 25h140l-125 174l42 -9z" />
    <glyph glyph-name="Ugrave" unicode="&#xf9;" horiz-adv-x="1244" 
d="M1189 1365l-179 -143v-646q0 -178 -11.5 -256t-45.5 -128q-86 -128 -334 -128q-262 0 -366 128q-83 101 -83 387v664l-136 122h472l-136 -133v-654l2 -154q0 -149 62 -211.5t209 -62.5q162 0 223 95q49 77 49 330l4 647l-156 143h426zM1223 1297l-136 -113v-621
q0 -305 -48 -398q-98 -188 -383 -188q-246 0 -370 123l8 -4l35 -20q123 -72 316 -72q276 0 366 174q48 94 48 378v640l149 122zM548 1311l-98 -99v-743l-1 -69l31 -127q23 -38 87 -92l2 -9q-84 34 -116 99t-32 201v750l113 110zM558 1762l138 -192h-117l-229 192h208z
M829 1502h-167l-29 25h140l-125 174l42 -9z" />
    <glyph glyph-name="circumflex" unicode="&#x2c6;" 
d="M455 1638l-120 -140h-87l-18 21h96l115 135l-26 29l-101 -116h-105l168 200h130l172 -200h-161zM814 1498h-231l-19 21h200l-173 202l37 -8z" />
    <glyph glyph-name="tilde" unicode="&#x2dc;" 
d="M766 1762q1 -18 1 -26q0 -72 -45.5 -122.5t-109.5 -50.5q-71 0 -187 58q-66 34 -95 34q-66 0 -76 -78h-71q0 86 52.5 144t129.5 58q66 0 189 -73q48 -29 76 -29q27 0 45 20.5t18 49.5q0 7 -1 15h74zM822 1734l20 -18q0 -91 -52.5 -153t-130.5 -62q-50 0 -114 30l13 13
q56 -21 96 -21q148 0 166 199zM338 1607v-30q-21 -29 -29 -74h-80l-16 23h79q11 56 46 81z" />
    <glyph glyph-name="macron" unicode="&#x2c9;" 
d="M845 1696v-98h-747v98h747zM902 1641l23 -23v-102h-776l-17 28h770v97z" />
    <glyph glyph-name="breve" unicode="&#x2d8;" 
d="M189 1790h71q10 -56 35 -76q58 -48 182 -48q102 0 153.5 30t58.5 94h67q1 -10 1 -13q0 -95 -79.5 -158t-199.5 -63q-126 0 -208 62.5t-82 159.5q0 2 1 12zM305 1547l10 15q88 -55 201 -55q126 0 203 64t96 185l21 -16q-10 -117 -97 -187t-224 -70q-129 0 -210 64z" />
    <glyph glyph-name="dotaccent" unicode="&#x2d9;" 
d="M596 1722q56 -26 56 -99q0 -54 -36 -90.5t-88 -36.5q-59 0 -94 47v7q47 -34 81 -34q49 0 84 34.5t35 83.5q0 39 -38 88zM469 1765q40 0 68 -28t28 -68t-28 -68t-68 -28t-68 28t-28 68t28 68t68 28z" />
    <glyph glyph-name="ring" unicode="&#x2da;" 
d="M607 1789q91 -47 91 -149q0 -73 -49.5 -125t-118.5 -52q-81 0 -135 59l8 7q57 -48 116 -48q64 0 111 47t47 112q0 83 -81 140zM469 1819q60 0 102 -41.5t42 -101.5t-42 -101.5t-102 -41.5q-59 0 -101 41.5t-42 101.5q0 59 42 101t101 42zM470 1740q-27 0 -46 -19t-19 -45
q0 -27 19 -46t46 -19t46 19t19 46q0 26 -19 45t-46 19z" />
    <glyph glyph-name="cedilla" unicode="&#xb8;" 
d="M550 -73q10 1 15 1q39 0 63.5 -34.5t24.5 -89.5q0 -87 -53.5 -144.5t-136.5 -57.5q-99 0 -156 99l8 4q59 38 98 70q0 -94 62 -94q28 0 49.5 38.5t21.5 90.5q0 67 -57 67q-29 0 -50 -29l-18 16q31 78 47 151h103zM611 -17l22 -23l-11 -36l-24 14zM657 -100q67 -53 67 -156
q0 -80 -58.5 -141t-135.5 -61q-88 0 -131 44v9q55 -32 118 -32q68 0 124 64t56 142q0 67 -49 125zM475 -180q8 34 45 34v-10q-18 -10 -31 -39zM479 -273l24 -11l-19 -12z" />
    <glyph glyph-name="hungarumlaut" unicode="&#x2dd;" 
d="M589 1764l-227 -198h-106l129 198h204zM307 1482l-26 28h123l71 61l21 -23l-76 -66h-113zM868 1764l-227 -198h-106l129 198h204zM586 1482l-26 28h123l229 199l21 -24l-234 -203h-113z" />
    <glyph glyph-name="ogonek" unicode="&#x2db;" 
d="M615 18q-78 -47 -138.5 -122.5t-60.5 -125.5q0 -39 44 -37q60 3 132 100h13q-17 -57 -22 -150v-10q-84 -41 -154 -41q-51 0 -88 39t-37 93q0 121 179 254h132zM654 -51l-12 -9q-106 -78 -138 -159l-26 -9q27 99 169 195zM666 -232l-19 -150q-61 -34 -123 -34
q-56 0 -102 26v8q42 -13 85 -13q66 0 119 42l21 143z" />
    <glyph glyph-name="caron" unicode="&#x2c7;" 
d="M515 1651l101 116h106l-169 -200h-129l-172 200h161zM774 1700l-173 -207h-87l-23 26h96l167 203z" />
    <glyph glyph-name="Scaron" unicode="&#x160;" horiz-adv-x="1136" 
d="M980 1354q-52 -70 -83 -146q-61 -150 -81 -184l-5 -6q-4 11 -6 17q-28 90 -46 125t-54 67q-91 81 -207 81q-107 0 -178 -59.5t-71 -149.5q0 -168 253 -229l169 -41q361 -87 361 -381q0 -164 -123.5 -275.5t-305.5 -111.5q-114 0 -255 35l-117 29q-71 17 -117 17
q-61 0 -126 -39l-8 14q124 187 174 356l18 -5q21 -157 126 -244t275 -87q134 0 213 62t79 167q0 121 -110 200q-79 56 -324 104q-189 37 -274 123t-85 239q0 158 113.5 256.5t295.5 98.5q117 0 273 -42q73 -20 108 -20q49 0 107 34zM1042 1312l-9 -15q-41 -69 -70 -132
q-70 -147 -79 -164l-5 -7l-24 10l4 9q29 66 84 172l68 132l5 8zM750 1113q-110 117 -236 117q-76 0 -126 -44t-50 -112q0 -74 101 -152l8 -5l-5 -8q-132 59 -132 171q0 78 56 127t146 49q86 0 150.5 -36.5t94.5 -102.5zM980 716q136 -103 136 -282q0 -191 -148 -323.5
t-360 -132.5q-108 0 -195 22l-160 39q-56 14 -120 14q-57 0 -105 -23l-12 29q52 24 106 24q60 0 137 -18l154 -37q92 -22 194 -22q200 0 340.5 127.5t140.5 308.5q0 153 -108 268v6zM268 428q37 -180 198 -255v-8q-186 54 -225 258zM143 752l34 -19q33 -59 193 -98l161 -40
q164 -41 218.5 -70.5t77.5 -89.5l-7 -4q-45 52 -97.5 76t-201.5 59q-216 50 -290 86.5t-88 99.5zM571 1651l101 116h105l-168 -200h-129l-172 200h160zM829 1700l-173 -207h-87l-22 26h96l167 203z" />
    <glyph glyph-name="Scaron" unicode="&#x161;" horiz-adv-x="1136" 
d="M980 1354q-52 -70 -83 -146q-61 -150 -81 -184l-5 -6q-4 11 -6 17q-28 90 -46 125t-54 67q-91 81 -207 81q-107 0 -178 -59.5t-71 -149.5q0 -168 253 -229l169 -41q361 -87 361 -381q0 -164 -123.5 -275.5t-305.5 -111.5q-114 0 -255 35l-117 29q-71 17 -117 17
q-61 0 -126 -39l-8 14q124 187 174 356l18 -5q21 -157 126 -244t275 -87q134 0 213 62t79 167q0 121 -110 200q-79 56 -324 104q-189 37 -274 123t-85 239q0 158 113.5 256.5t295.5 98.5q117 0 273 -42q73 -20 108 -20q49 0 107 34zM1042 1312l-9 -15q-41 -69 -70 -132
q-70 -147 -79 -164l-5 -7l-24 10l4 9q29 66 84 172l68 132l5 8zM750 1113q-110 117 -236 117q-76 0 -126 -44t-50 -112q0 -74 101 -152l8 -5l-5 -8q-132 59 -132 171q0 78 56 127t146 49q86 0 150.5 -36.5t94.5 -102.5zM980 716q136 -103 136 -282q0 -191 -148 -323.5
t-360 -132.5q-108 0 -195 22l-160 39q-56 14 -120 14q-57 0 -105 -23l-12 29q52 24 106 24q60 0 137 -18l154 -37q92 -22 194 -22q200 0 340.5 127.5t140.5 308.5q0 153 -108 268v6zM268 428q37 -180 198 -255v-8q-186 54 -225 258zM143 752l34 -19q33 -59 193 -98l161 -40
q164 -41 218.5 -70.5t77.5 -89.5l-7 -4q-45 52 -97.5 76t-201.5 59q-216 50 -290 86.5t-88 99.5zM571 1651l101 116h105l-168 -200h-129l-172 200h160zM829 1700l-173 -207h-87l-22 26h96l167 203z" />
    <glyph glyph-name="brokenbar" unicode="&#xa6;" 
d="M436 1365h153v-703h-153v703zM436 314h153v-655h-153v655z" />
    <glyph glyph-name="Eth" unicode="&#xd0;" horiz-adv-x="1237" 
d="M70 1365h413q313 0 465 -156.5t152 -479.5q0 -331 -151.5 -489t-468.5 -158h-440l138 105v470h-78l-10 26h88v45h-125l-35 92h160v433zM374 1278v-458h56v394q38 8 99 8q133 0 218 -76q-114 48 -226 48q-32 0 -66 -4v-370h159l32 -92h-272v-569h56v524h283l-41 105
l28 -12l47 -119h-292v-498q22 -1 27 -1q209 0 300 151q98 162 98 423q0 265 -100 413q-91 134 -364 134zM978 1236q212 -137 212 -510q0 -369 -172 -547.5t-527 -178.5h-388l-15 27h396q349 0 515 170.5t166 527.5q0 179 -40 288t-147 223z" />
    <glyph glyph-name="Eth" unicode="&#xf0;" horiz-adv-x="1237" 
d="M70 1365h413q313 0 465 -156.5t152 -479.5q0 -331 -151.5 -489t-468.5 -158h-440l138 105v470h-78l-10 26h88v45h-125l-35 92h160v433zM374 1278v-458h56v394q38 8 99 8q133 0 218 -76q-114 48 -226 48q-32 0 -66 -4v-370h159l32 -92h-272v-569h56v524h283l-41 105
l28 -12l47 -119h-292v-498q22 -1 27 -1q209 0 300 151q98 162 98 423q0 265 -100 413q-91 134 -364 134zM978 1236q212 -137 212 -510q0 -369 -172 -547.5t-527 -178.5h-388l-15 27h396q349 0 515 170.5t166 527.5q0 179 -40 288t-147 223z" />
    <glyph glyph-name="Yacute" unicode="&#xdd;" horiz-adv-x="1314" 
d="M1439 1717l6 -8l-10 -11q-179 -186 -295 -378q-45 -73 -64 -104l-372 -595v-406l145 -133h-487l144 133v406l-240 369l-52 83q-71 111 -116.5 162t-134.5 121l-11 9h505l-124 -129l333 -502l32 51l-297 451l105 100l21 -16l-91 -84l277 -427l224 353q97 154 97 230
q0 64 -85 146q291 70 478 173zM1484 1657v-41l-10 -10q-84 -80 -144.5 -160t-179.5 -269l-362 -570v-392l178 -215h-626l-12 27h585l-152 188v399l369 582l58 92q155 247 296 369zM939 1764l-244 -198h-106l147 198h203zM633 1482l-23 28h123l245 199l19 -24l-251 -203h-113
z" />
    <glyph glyph-name="Yacute" unicode="&#xfd;" horiz-adv-x="1314" 
d="M1439 1717l6 -8l-10 -11q-179 -186 -295 -378q-45 -73 -64 -104l-372 -595v-406l145 -133h-487l144 133v406l-240 369l-52 83q-71 111 -116.5 162t-134.5 121l-11 9h505l-124 -129l333 -502l32 51l-297 451l105 100l21 -16l-91 -84l277 -427l224 353q97 154 97 230
q0 64 -85 146q291 70 478 173zM1484 1657v-41l-10 -10q-84 -80 -144.5 -160t-179.5 -269l-362 -570v-392l178 -215h-626l-12 27h585l-152 188v399l369 582l58 92q155 247 296 369zM939 1764l-244 -198h-106l147 198h203zM633 1482l-23 28h123l245 199l19 -24l-251 -203h-113
z" />
    <glyph glyph-name="Thorn" unicode="&#xde;" horiz-adv-x="1184" 
d="M557 1365l-134 -136v-137h52v125l113 111l17 -20l-102 -101v-115h43q272 0 387 -79q146 -99 146 -275q0 -107 -56 -186t-156 -114q-101 -35 -321 -35h-123v-211l118 -110h-461l139 117v128q-13 1 -17 1q-72 0 -138 -31l-9 18q67 38 120 38h36l8 1v49q-23 3 -31 3
q-108 0 -171 -52l-10 15q62 112 196 112h16v759l-139 125h477zM423 989v-501h13l26 -1q3 0 13 1v446h110q114 0 161.5 -22.5t81.5 -93.5q-33 51 -83 71.5t-139 20.5h-103v-422q184 0 269.5 58t85.5 183q0 139 -75.5 201.5t-245.5 62.5q-46 0 -114 -4zM1029 985
q61 -30 98 -105.5t37 -171.5q0 -217 -159 -312q-123 -72 -416 -72q-51 0 -86 2v-140l157 -186h-501l-27 27h471l-128 148v178q82 -6 176 -6q252 0 371 90t119 281q0 78 -24 135t-88 132z" />
    <glyph glyph-name="Thorn" unicode="&#xfe;" horiz-adv-x="1184" 
d="M557 1365l-134 -136v-137h52v125l113 111l17 -20l-102 -101v-115h43q272 0 387 -79q146 -99 146 -275q0 -107 -56 -186t-156 -114q-101 -35 -321 -35h-123v-211l118 -110h-461l139 117v128q-13 1 -17 1q-72 0 -138 -31l-9 18q67 38 120 38h36l8 1v49q-23 3 -31 3
q-108 0 -171 -52l-10 15q62 112 196 112h16v759l-139 125h477zM423 989v-501h13l26 -1q3 0 13 1v446h110q114 0 161.5 -22.5t81.5 -93.5q-33 51 -83 71.5t-139 20.5h-103v-422q184 0 269.5 58t85.5 183q0 139 -75.5 201.5t-245.5 62.5q-46 0 -114 -4zM1029 985
q61 -30 98 -105.5t37 -171.5q0 -217 -159 -312q-123 -72 -416 -72q-51 0 -86 2v-140l157 -186h-501l-27 27h471l-128 148v178q82 -6 176 -6q252 0 371 90t119 281q0 78 -24 135t-88 132z" />
    <glyph glyph-name="multiply" unicode="&#xd7;" horiz-adv-x="1202" 
d="M196 981l89 88l270 -270l21 21l-207 207l32 7l195 -194l223 222l88 -88l-263 -264l255 -255l-88 -89l-198 198l-254 -254l-32 7l266 266l-38 39l-263 -263l-88 89l263 262zM743 693l252 -252l-91 -91h-33l88 88l-256 255l266 266l-88 88h33l91 -91z" />
    <glyph glyph-name="onesuperior" unicode="&#xb9;" horiz-adv-x="751" 
d="M436 1365v-670l61 -67h-249l77 67v492q-36 -17 -71 -17q-45 0 -83 56l7 -3l37 -24q11 -7 38 -7q32 0 72 19v48q-41 -30 -97 -30q-71 0 -71 49q0 31 29 31q24 0 25 -21q0 -4 -1 -9l-1 -5l7 -8q4 -2 10 -2q40 0 79.5 29t58.5 72h72zM479 1342l23 -11v-658l111 -127h-331
l-13 21h303l-93 105v670z" />
    <glyph glyph-name="twosuperior" unicode="&#xb2;" horiz-adv-x="751" 
d="M628 799v-171h-565q41 178 242 297q114 67 153.5 118t39.5 131q0 73 -42.5 116t-114.5 43q-69 0 -112 -35.5t-43 -93.5q0 -45 26.5 -74.5t67.5 -29.5q42 0 75 36l10 -5q-8 -48 -43 -76.5t-86 -28.5q-69 0 -114 43.5t-45 109.5q0 88 72.5 145.5t183.5 57.5q118 0 200 -66
t82 -162q0 -131 -198 -233l-92 -47q-102 -53 -148 -128l-15 -25l-3 -4h52q48 81 174 145l84 42q193 97 193 236q0 107 -103 188l3 4q124 -56 124 -193q0 -155 -199 -252l-84 -40q-124 -61 -159 -124l-3 -6h169q116 0 155 15.5t50 66.5h13zM695 758v-212h-573l-22 21h572v204
zM491 1169l-4 8q-45 94 -139 94q-41 0 -67.5 -23.5t-26.5 -59.5q0 -45 37 -70l4 -3v-7q-63 13 -63 81q0 47 32 76t83 29q62 0 103 -35.5t41 -89.5zM416 1095l-3 -10q-37 -114 -154 -114q-86 0 -126 71q60 -54 117 -54q121 0 145 117z" />
    <glyph glyph-name="threesuperior" unicode="&#xb3;" horiz-adv-x="751" 
d="M192 877q-8 -31 -8 -63q0 -154 155 -154q163 0 163 171q0 83 -48.5 137.5t-121.5 54.5q-14 0 -55 -6l-6 -1l27 61q19 -1 33 -1q64 0 105 36t41 92t-45 95t-109 39q-60 0 -98.5 -31t-38.5 -79q0 -66 59 -66q14 0 32 13l10 -5q-38 -51 -89 -51q-47 0 -79.5 31t-32.5 75
q0 67 74 111.5t184 44.5q108 0 177 -48.5t69 -124.5q0 -53 -39 -97t-96 -54q-14 -3 -14 -8q0 -6 13 -10q176 -50 176 -209q0 -103 -77.5 -159.5t-218.5 -56.5q-234 0 -276 197l6 2q77 25 128 64zM260 854l-3 -18q-5 -32 -5 -42q0 -71 66 -116l2 -7q-91 21 -91 124q0 23 8 65
zM468 922q-51 38 -113 38q-19 0 -58 -8l-11 22q36 8 63 8q85 0 119 -60zM611 964q89 -81 89 -178q0 -115 -87.5 -185.5t-230.5 -70.5q-72 0 -137.5 23t-94.5 58l-4 7l6 -3l49 -30q59 -37 172 -37q133 0 218 68t85 174q0 75 -37 125l-27 37q-2 2 -5 6zM563 1332l7 -2
q38 -15 65.5 -60t27.5 -92q0 -114 -125 -164l-22 11q123 41 123 155q0 76 -71 146q-2 2 -5 6zM461 1217q-4 6 -6 8q-48 68 -119 68q-88 0 -88 -76q0 -19 18 -34l-6 -6q-36 13 -36 49q0 38 31 63.5t77 25.5q104 0 134 -91zM336 1134q-41 -60 -111 -60q-50 0 -105 49l-2 5
l6 -4l20 -15q28 -21 73 -21q64 0 98 59z" />
    <glyph glyph-name="onehalf" unicode="&#xbd;" horiz-adv-x="1756" 
d="M436 1365v-670l61 -67h-249l77 67v492q-36 -17 -71 -17q-45 0 -83 56l7 -3l37 -24q11 -7 38 -7q32 0 72 19v48q-41 -30 -97 -30q-71 0 -71 49q0 31 29 31q24 0 25 -21q0 -4 -1 -9l-1 -5l7 -8q4 -2 10 -2q40 0 79.5 29t58.5 72h72zM479 1342l23 -11v-658l111 -127h-331
l-13 21h303l-93 105v670zM1328 1386l-792 -1311h-94l791 1311h95zM460 16h106l810 1341l17 -21l-812 -1347h-110zM1632 253v-171h-565q41 178 242 297q114 67 153.5 118t39.5 131q0 73 -42.5 116t-114.5 43q-69 0 -112 -35.5t-43 -92.5q0 -45 26.5 -74.5t67.5 -29.5
q42 0 75 35l10 -5q-8 -47 -43 -75.5t-86 -28.5q-68 0 -113.5 43.5t-45.5 109.5q0 87 72.5 144.5t183.5 57.5q118 0 200 -66t82 -162q0 -131 -198 -233l-92 -47q-102 -53 -148 -128l-15 -25l-3 -4h52q48 81 174 145l84 42q193 97 193 236q0 107 -103 188l3 4
q124 -56 124 -193q0 -155 -199 -252l-84 -40q-124 -61 -159 -124l-3 -6h169q116 0 155 15.5t50 66.5h13zM1699 212v-212h-573l-22 21h572v204zM1495 623l-4 8q-45 93 -139 93q-41 0 -67.5 -23t-26.5 -59q0 -48 41 -73v-7q-63 13 -63 81q0 46 32 75t83 29q62 0 103 -35.5
t41 -88.5zM1420 549l-3 -10q-37 -115 -154 -115q-86 0 -126 72q60 -54 117 -54q121 0 144 117z" />
    <glyph glyph-name="onequarter" unicode="&#xbc;" horiz-adv-x="1756" 
d="M436 1365v-670l61 -67h-249l77 67v492q-36 -17 -71 -17q-45 0 -83 56l7 -3l37 -24q11 -7 38 -7q32 0 72 19v48q-41 -30 -97 -30q-71 0 -71 49q0 31 29 31q24 0 25 -21q0 -4 -1 -9l-1 -5l7 -8q4 -2 10 -2q40 0 79.5 29t58.5 72h72zM479 1342l23 -11v-658l111 -127h-331
l-13 21h303l-93 105v670zM1328 1386l-792 -1311h-94l791 1311h95zM460 16h106l810 1341l17 -21l-812 -1347h-110zM1407 819v-5q-20 -99 -95 -226t-183 -245v-14h40q111 118 169.5 213.5t112.5 250.5l21 -10l-1 -7q-18 -71 -83.5 -190.5t-118.5 -177.5l-70 -74l-6 -6h202v224
q70 40 103 92h11v-316h50v293l23 -12v-281q81 0 81 -67q0 -43 -41 -43q-39 0 -39 29q0 11 4 16l5 5q1 2 1 4q0 15 -31 15h-11h-42v-138l76 -67h-265l75 63v53h-296l-13 22h309v67h-357v20q99 119 159 258.5t60 253.5h150zM1674 305q55 -18 55 -67q0 -25 -16 -43.5t-37 -18.5
q-20 0 -53 17l-3 9q24 -11 40 -11q50 0 50 50q0 31 -36 64zM1692 0h-319l-21 20h300l-93 105v91l23 -11v-79z" />
    <glyph glyph-name="threequarters" unicode="&#xbe;" horiz-adv-x="1756" 
d="M192 877q-8 -31 -8 -63q0 -154 155 -154q163 0 163 171q0 83 -48.5 137.5t-121.5 54.5q-14 0 -55 -6l-6 -1l27 61q19 -1 33 -1q64 0 105 36t41 92t-45 95t-109 39q-60 0 -98.5 -31t-38.5 -79q0 -66 59 -66q14 0 32 13l10 -5q-38 -51 -89 -51q-47 0 -79.5 31t-32.5 75
q0 67 74 111.5t184 44.5q108 0 177 -48.5t69 -124.5q0 -53 -39 -97t-96 -54q-14 -3 -14 -8q0 -6 13 -10q176 -50 176 -209q0 -103 -77.5 -159.5t-218.5 -56.5q-234 0 -276 197l6 2q77 25 128 64zM260 854l-3 -18q-5 -32 -5 -42q0 -71 66 -116l2 -7q-91 21 -91 124q0 23 8 65
zM468 922q-51 38 -113 38q-19 0 -58 -8l-11 22q36 8 63 8q85 0 119 -60zM611 964q89 -81 89 -178q0 -115 -87.5 -185.5t-230.5 -70.5q-72 0 -137.5 23t-94.5 58l-4 7l6 -3l49 -30q59 -37 172 -37q133 0 218 68t85 174q0 75 -37 125l-27 37q-2 2 -5 6zM563 1332l7 -2
q38 -15 65.5 -60t27.5 -92q0 -114 -125 -164l-22 11q123 41 123 155q0 76 -71 146q-2 2 -5 6zM461 1217q-4 6 -6 8q-48 68 -119 68q-88 0 -88 -76q0 -19 18 -34l-6 -6q-36 13 -36 49q0 38 31 63.5t77 25.5q104 0 134 -91zM336 1134q-41 -60 -111 -60q-50 0 -105 49l-2 5
l6 -4l20 -15q28 -21 73 -21q64 0 98 59zM1328 1386l-791 -1311h-95l792 1311h94zM460 16h106l811 1341l17 -21l-813 -1347h-110zM1407 819v-5q-20 -99 -94.5 -226t-182.5 -245v-14h39q111 117 169.5 213t112.5 251l21 -10l-1 -7q-18 -70 -85 -193t-117 -175l-69 -74l-6 -6
h201v224q70 40 103 92h11v-316h51v293l23 -12v-281q81 0 81 -67q0 -43 -41 -43q-39 0 -39 29q0 11 4 16l4 5q2 2 2 4q0 15 -31 15h-11h-43v-138l77 -67h-266l75 63v53h-296l-12 22h308v67h-356v20q99 119 158.5 258.5t59.5 253.5h150zM1675 305q55 -18 55 -67
q0 -25 -16 -43.5t-37 -18.5t-54 17l-2 9q24 -11 40 -11q49 0 49 50q0 31 -35 64zM1693 0h-319l-21 20h300l-93 105v91l23 -11v-79z" />
    <glyph glyph-name="glyph177" horiz-adv-x="1550" 
d="M921 1765q40 0 68 -28t28 -68t-28 -68t-68 -28t-68 28t-28 68q0 39 28 67.5t68 28.5zM1045 1722q56 -25 56 -99q0 -54 -35.5 -90.5t-88.5 -36.5q-59 0 -94 47v7q47 -34 81 -34q49 0 84 34.5t35 83.5q0 39 -38 88zM700 1722q56 -25 56 -99q0 -54 -36 -90.5t-88 -36.5
q-59 0 -94 47v7q47 -34 81 -34q49 0 84 34.5t35 83.5q0 39 -38 88zM573 1765q40 0 68 -28t28 -68t-28 -68t-68 -28t-68 28t-28 68t28 68t68 28z" />
    <glyph glyph-name="glyph178" horiz-adv-x="1550" 
d="M1058 1764l-244 -198h-106l146 198h204zM751 1482l-23 28h123l246 199l19 -24l-251 -203h-114z" />
    <glyph glyph-name="glyph179" horiz-adv-x="1550" 
d="M657 1762l138 -192h-117l-229 192h208zM928 1502h-168l-28 25h139l-125 174l43 -9z" />
    <glyph glyph-name="glyph180" horiz-adv-x="1550" 
d="M746 1638l-120 -140h-87l-18 21h96l115 135l-26 29l-101 -116h-105l168 200h129l172 -200h-160zM1105 1498h-231l-19 21h200l-173 202l37 -8z" />
    <glyph glyph-name="glyph181" horiz-adv-x="1550" 
d="M1028 1762q2 -19 2 -26q0 -72 -45.5 -122.5t-109.5 -50.5q-71 0 -187 58q-67 34 -96 34q-65 0 -76 -78h-70q0 86 52 144t129 58q66 0 190 -73q48 -29 76 -29q27 0 45 20.5t18 49.5q0 5 -1 15h73zM1084 1734l21 -18q0 -91 -53 -153t-130 -62q-50 0 -114 30l12 13
q57 -21 97 -21q148 0 166 199zM600 1607v-30q-21 -29 -29 -74h-80l-16 23h79q11 56 46 81z" />
    <glyph glyph-name="glyph182" horiz-adv-x="1550" 
d="M870 1789q91 -47 91 -149q0 -73 -49 -125t-119 -52q-81 0 -135 59l8 7q57 -48 116 -48q65 0 111.5 47t46.5 112q0 84 -81 140zM733 1819q59 0 101 -41.5t42 -101.5t-42 -101.5t-101 -41.5q-60 0 -102 41.5t-42 101.5q0 59 42 101t102 42zM733 1740q-27 0 -46 -19t-19 -45
q0 -27 19 -46t46 -19t46 19t19 46q0 26 -19 45t-46 19z" />
    <glyph glyph-name="glyph183" horiz-adv-x="1273" 
d="M768 1765q40 0 68 -28t28 -68t-28 -68t-68 -28t-68 28t-28 68t28 68t68 28zM893 1722q55 -25 55 -99q0 -54 -35.5 -90.5t-88.5 -36.5q-58 0 -94 47v7q48 -34 82 -34q49 0 83.5 34.5t34.5 83.5q0 38 -37 88zM548 1722q55 -26 55 -99q0 -54 -35.5 -90.5t-88.5 -36.5
q-59 0 -94 47v7q48 -34 82 -34q48 0 83 34.5t35 83.5q0 38 -37 88zM421 1765q40 0 68 -28t28 -68t-28 -68t-68 -28t-68 28t-28 68t28 68t68 28z" />
    <glyph glyph-name="glyph184" horiz-adv-x="1273" 
d="M728 1764l-244 -198h-106l147 198h203zM421 1482l-23 28h123l246 199l19 -24l-251 -203h-114z" />
    <glyph glyph-name="glyph185" horiz-adv-x="1273" 
d="M450 1762l138 -192h-117l-229 192h208zM721 1502h-168l-28 25h139l-125 174l43 -9z" />
    <glyph glyph-name="glyph186" horiz-adv-x="1273" 
d="M607 1638l-120 -140h-87l-18 21h96l115 135l-25 29l-102 -116h-105l168 200h130l172 -200h-161zM966 1498h-231l-18 21h199l-173 202l37 -8z" />
    <glyph glyph-name="glyph187" horiz-adv-x="627" 
d="M432 1765q40 0 68 -28t28 -68t-28 -68t-68 -28t-68 28t-28 68t28 68t68 28zM556 1722q56 -25 56 -99q0 -54 -36 -90.5t-88 -36.5q-59 0 -95 47v7q48 -34 82 -34q49 0 84 34.5t35 83.5q0 39 -38 88zM238 1722q56 -26 56 -99q0 -54 -36 -90.5t-88 -36.5q-59 0 -94 47v7
q47 -34 81 -34q49 0 84 34.5t35 83.5q0 39 -38 88zM111 1765q40 0 68 -28t28 -68t-28 -68t-68 -28t-68 28t-28 68t28 68t68 28z" />
    <glyph glyph-name="glyph188" horiz-adv-x="626" 
d="M596 1764l-244 -198h-106l146 198h204zM289 1482l-23 28h123l246 199l19 -24l-251 -203h-114z" />
    <glyph glyph-name="glyph189" horiz-adv-x="626" 
d="M195 1762l138 -192h-117l-229 192h208zM466 1502h-168l-28 25h139l-125 174l43 -9z" />
    <glyph glyph-name="glyph190" horiz-adv-x="626" 
d="M284 1638l-120 -140h-87l-18 21h96l115 135l-26 29l-101 -116h-105l168 200h130l172 -200h-161zM643 1498h-231l-19 21h200l-173 202l37 -8z" />
    <glyph glyph-name="glyph191" horiz-adv-x="1230" 
d="M867 1762q2 -19 2 -26q0 -72 -45.5 -122.5t-109.5 -50.5q-71 0 -187 58q-67 34 -95 34q-66 0 -76 -78h-71q0 86 52.5 144t129.5 58q65 0 189 -73q48 -29 76 -29q27 0 45 20.5t18 49.5q0 6 -1 15h73zM923 1734l21 -18q0 -91 -53 -153t-130 -62q-50 0 -114 30l13 13
q56 -21 96 -21q148 0 166 199zM439 1607v-30q-21 -29 -29 -74h-80l-16 23h79q11 56 46 81z" />
    <glyph glyph-name="glyph192" horiz-adv-x="1278" 
d="M771 1765q40 0 68 -28t28 -68t-28 -68t-68 -28t-68 28t-28 68t28 68t68 28zM896 1722q55 -25 55 -99q0 -54 -35.5 -90.5t-88.5 -36.5q-59 0 -94 47v7q47 -34 81 -34q49 0 84 34.5t35 83.5q0 39 -37 88zM551 1722q55 -26 55 -99q0 -54 -35.5 -90.5t-88.5 -36.5
q-59 0 -94 47v7q47 -34 81 -34q49 0 84 34.5t35 83.5q0 39 -37 88zM423 1765q40 0 68 -28t28 -68t-28 -68t-68 -28t-68 28t-28 68q0 39 28 67.5t68 28.5z" />
    <glyph glyph-name="glyph193" horiz-adv-x="1278" 
d="M922 1764l-244 -198h-106l146 198h204zM615 1482l-23 28h123l246 199l19 -24l-251 -203h-114z" />
    <glyph glyph-name="glyph194" horiz-adv-x="1278" 
d="M521 1762l138 -192h-117l-229 192h208zM792 1502h-168l-28 25h139l-125 174l43 -9z" />
    <glyph glyph-name="glyph195" horiz-adv-x="1278" 
d="M610 1638l-120 -140h-87l-18 21h96l115 135l-26 29l-101 -116h-105l168 200h129l172 -200h-160zM969 1498h-232l-18 21h200l-173 202l37 -8z" />
    <glyph glyph-name="glyph196" horiz-adv-x="1278" 
d="M891 1762q2 -19 2 -26q0 -72 -45.5 -122.5t-109.5 -50.5q-71 0 -187 58q-67 34 -96 34q-65 0 -76 -78h-70q0 86 52 144t129 58q66 0 190 -73q48 -29 76 -29q27 0 45 20.5t18 49.5q0 5 -1 15h73zM947 1734l21 -18q0 -91 -53 -153t-130 -62q-51 0 -114 30l12 13
q57 -21 97 -21q148 0 166 199zM463 1607v-30q-21 -29 -29 -74h-80l-16 23h79q11 56 46 81z" />
    <glyph glyph-name="glyph197" horiz-adv-x="1136" 
d="M571 1651l101 116h105l-168 -200h-129l-172 200h160zM829 1700l-173 -207h-87l-22 26h96l167 203z" />
    <glyph glyph-name="glyph198" horiz-adv-x="1244" 
d="M809 1765q40 0 68 -28t28 -68t-28 -68t-68 -28t-68 28t-28 68t28 68t68 28zM933 1722q56 -25 56 -99q0 -54 -36 -90.5t-88 -36.5q-59 0 -95 47v7q48 -34 82 -34q49 0 84 34.5t35 83.5q0 39 -38 88zM588 1722q55 -26 55 -99q0 -54 -35.5 -90.5t-88.5 -36.5q-58 0 -94 47v7
q48 -34 82 -34q49 0 83.5 34.5t34.5 83.5q0 39 -37 88zM461 1765q40 0 68 -28t28 -68t-28 -68t-68 -28t-68 28t-28 68t28 68t68 28z" />
    <glyph glyph-name="glyph199" horiz-adv-x="1244" 
d="M959 1764l-244 -198h-106l147 198h203zM653 1482l-24 28h123l246 199l19 -24l-251 -203h-113z" />
    <glyph glyph-name="glyph200" horiz-adv-x="1244" 
d="M558 1762l138 -192h-117l-229 192h208zM829 1502h-167l-29 25h140l-125 174l42 -9z" />
    <glyph glyph-name="glyph201" horiz-adv-x="1244" 
d="M647 1638l-120 -140h-87l-18 21h96l115 135l-25 29l-101 -116h-106l169 200h129l172 -200h-161zM1007 1498h-232l-18 21h199l-173 202l38 -8z" />
    <glyph glyph-name="glyph202" horiz-adv-x="1314" 
d="M939 1764l-244 -198h-106l147 198h203zM633 1482l-23 28h123l245 199l19 -24l-251 -203h-113z" />
    <glyph glyph-name="currency" unicode="&#xa4;" horiz-adv-x="1202" 
d="M778 818q-112 64 -193 64q-195 0 -195 -244q0 -172 95 -228l-9 -10q-117 62 -117 233q0 275 224 275q132 0 195 -90zM332 348l-165 -165l-88 89l154 154q-86 101 -86 244t72 238l-148 148l89 89l154 -154q25 14 51 25l-104 103l33 8l99 -100q84 28 171 28q133 0 235 -63
l146 146l88 -89l-144 -144q72 -112 72 -240q0 -143 -76 -246l150 -150l-89 -88l-97 97q-105 -68 -250 -68q-115 0 -231 58l-134 -134l-32 7l151 151l6 -7q125 -46 233 -46q124 0 235 62l-39 38q-103 -51 -219 -51q-126 0 -237 60zM565 969q-270 0 -270 -310q0 -287 264 -287
q249 0 249 308q0 150 -58.5 219.5t-184.5 69.5zM981 405l150 -150l-92 -91h-32l87 88l-149 150q92 117 92 271q0 118 -27 160l-39 61q-1 2 -6 11l130 129l-88 88h33l91 -91l-131 -132q63 -82 63 -233q0 -82 -16 -133t-66 -128z" />
  </font>
</defs>
</svg>
